SplineFontDB: 3.2
FontName: ChromFixed-BoldItalic
FullName: Chrom Fixed Bold Italic
FamilyName: Chroh Fixed
Weight: Bold
Copyright:                                           
Version: 001.001
ItalicAngle: 0
UnderlinePosition: -100
UnderlineWidth: 50
Ascent: 800
Descent: 200
InvalidEm: 0
sfntRevision: 0x00000000
LayerCount: 2
Layer: 0 0 "Back" 1
Layer: 1 0 "Fore" 0
StyleMap: 0x0000
FSType: 0
OS2Version: 0
OS2_WeightWidthSlopeOnly: 0
OS2_UseTypoMetrics: 0
CreationTime: 0
ModificationTime: 1757284878
OS2TypoAscent: 0
OS2TypoAOffset: 0
OS2TypoDescent: 0
OS2TypoDOffset: 0
OS2TypoLinegap: 0
OS2WinAscent: 0
OS2WinAOffset: 0
OS2WinDescent: 0
OS2WinDOffset: 0
HheadAscent: 0
HheadAOffset: 0
HheadDescent: 0
HheadDOffset: 0
DEI: 91125
Encoding: AdobeStandard
UnicodeInterp: none
NameList: AGL For New Fonts
DisplaySize: -48
AntiAlias: 1
FitToEm: 0
BeginPrivate: 6
BlueValues 31 [-18 0 439 459 566 580 600 620]
OtherBlues 11 [-146 -142]
BlueScale 1 0
StdHW 4 [93]
StdVW 4 [93]
ForceBold 4 true
EndPrivate
BeginChars: 350 243

StartChar: A
Encoding: 65 65 0
Width: 600
Flags: HMW
HStem: 0 91<-40 41 -22 41 138 209 355 442 541 582> 168 91<244 403 244 423 185 403> 471 91<179 290 161 433>
LayerCount: 2
Fore
SplineSet
244 259 m 1
 403 259 l 1
 361 432 l 1
 244 259 l 1
-40 0 m 1
 -22 91 l 1
 41 91 l 1
 290 471 l 1
 161 471 l 1
 179 562 l 1
 433 562 l 1
 541 91 l 1
 600 91 l 1
 582 0 l 1
 336 0 l 1
 355 91 l 1
 442 91 l 1
 423 168 l 1
 185 168 l 1
 138 91 l 1
 228 91 l 1
 209 0 l 1
 -40 0 l 1
EndSplineSet
EndChar

StartChar: AE
Encoding: 225 198 1
Width: 600
Flags: HMW
HStem: 0 90<-118 -34 -99 -34 65 123 303 441> 0 172<458 501> 159 91<169 222 110 241> 193 188<402 441 363 481> 389 173<504 582 504 504> 472 90<143 216 123 618 383 383 383 521>
LayerCount: 2
Fore
SplineSet
169 250 m 1
 241 250 l 1
 275 415 l 1
 169 250 l 1
-118 0 m 1
 -99 90 l 1
 -34 90 l 1
 216 472 l 1
 123 472 l 1
 143 562 l 1
 618 562 l 1
 582 389 l 1
 504 389 l 1
 521 472 l 1
 383 472 l 1
 354 332 l 1
 393 332 l 1
 402 381 l 1
 481 381 l 1
 441 193 l 1
 363 193 l 1
 373 242 l 1
 335 242 l 1
 303 90 l 1
 441 90 l 1
 458 172 l 1
 537 172 l 1
 501 0 l 1
 189 0 l 1
 222 159 l 1
 110 159 l 1
 65 90 l 1
 143 90 l 1
 123 0 l 1
 -118 0 l 1
EndSplineSet
EndChar

StartChar: Aacute
Encoding: 256 193 2
Width: 600
Flags: HMW
HStem: 0 90<-21 59 -2 59 157 228 375 463 561 600> 166 90<263 424 263 443 203 424> 464 90<199 309 180 452> 764 20G<617 617>
LayerCount: 2
Fore
SplineSet
263 256 m 1
 424 256 l 1
 381 425 l 1
 263 256 l 1
-21 0 m 1
 -2 90 l 1
 59 90 l 1
 309 464 l 1
 180 464 l 1
 199 554 l 1
 452 554 l 1
 561 90 l 1
 619 90 l 1
 600 0 l 1
 356 0 l 1
 375 90 l 1
 463 90 l 1
 443 166 l 1
 203 166 l 1
 157 90 l 1
 248 90 l 1
 228 0 l 1
 -21 0 l 1
290 607 m 1
 281 666 l 1
 617 784 l 1
 637 681 l 1
 290 607 l 1
EndSplineSet
EndChar

StartChar: Acircumflex
Encoding: 257 194 3
Width: 600
Flags: HMW
HStem: 0 90<-21 59 -2 59 157 228 375 463 561 600> 166 90<263 424 263 443 203 424> 464 90<199 309 180 452> 760 20G<393 490 490 490>
LayerCount: 2
Fore
SplineSet
263 256 m 1
 424 256 l 1
 381 425 l 1
 263 256 l 1
-21 0 m 1
 -2 90 l 1
 59 90 l 1
 309 464 l 1
 180 464 l 1
 199 554 l 1
 452 554 l 1
 561 90 l 1
 619 90 l 1
 600 0 l 1
 356 0 l 1
 375 90 l 1
 463 90 l 1
 443 166 l 1
 203 166 l 1
 157 90 l 1
 248 90 l 1
 228 0 l 1
 -21 0 l 1
253 602 m 1
 200 638 l 1
 393 780 l 1
 490 780 l 1
 620 637 l 1
 554 602 l 1
 427 714 l 1
 253 602 l 1
EndSplineSet
EndChar

StartChar: Adieresis
Encoding: 258 196 4
Width: 600
Flags: HMW
HStem: 0 90<-21 59 -2 59 157 228 375 463 561 600> 166 90<263 424 263 443 203 424> 464 90<199 309 180 452> 626 122<268 406 295 380 295 451 478 564>
LayerCount: 2
Fore
SplineSet
263 256 m 1
 424 256 l 1
 381 425 l 1
 263 256 l 1
-21 0 m 1
 -2 90 l 1
 59 90 l 1
 309 464 l 1
 180 464 l 1
 199 554 l 1
 452 554 l 1
 561 90 l 1
 619 90 l 1
 600 0 l 1
 356 0 l 1
 375 90 l 1
 463 90 l 1
 443 166 l 1
 203 166 l 1
 157 90 l 1
 248 90 l 1
 228 0 l 1
 -21 0 l 1
268 626 m 1
 295 748 l 1
 406 748 l 1
 380 626 l 1
 268 626 l 1
451 626 m 1
 478 748 l 1
 590 748 l 1
 564 626 l 1
 451 626 l 1
EndSplineSet
EndChar

StartChar: Agrave
Encoding: 259 192 5
Width: 600
Flags: HMW
HStem: 0 90<-21 59 -2 59 157 228 375 463 561 600> 166 90<263 424 263 443 203 424> 464 90<199 309 180 452> 764 20G<333 333>
LayerCount: 2
Fore
SplineSet
267 688 m 1
 333 784 l 1
 608 665 l 1
 569 607 l 1
 267 688 l 1
263 256 m 1
 424 256 l 1
 381 425 l 1
 263 256 l 1
-21 0 m 1
 -2 90 l 1
 59 90 l 1
 309 464 l 1
 180 464 l 1
 199 554 l 1
 452 554 l 1
 561 90 l 1
 619 90 l 1
 600 0 l 1
 356 0 l 1
 375 90 l 1
 463 90 l 1
 443 166 l 1
 203 166 l 1
 157 90 l 1
 248 90 l 1
 228 0 l 1
 -21 0 l 1
EndSplineSet
EndChar

StartChar: Aring
Encoding: 260 197 6
Width: 600
Flags: HMW
HStem: 0 90<-21 59 -2 59 157 228 375 463 561 600> 166 90<263 424 263 443 203 424> 464 90<199 309 180 452> 601 200<414 437.5>
LayerCount: 2
Fore
SplineSet
263 256 m 1
 424 256 l 1
 381 425 l 1
 263 256 l 1
-21 0 m 1
 -2 90 l 1
 59 90 l 1
 309 464 l 1
 180 464 l 1
 199 554 l 1
 452 554 l 1
 561 90 l 1
 619 90 l 1
 600 0 l 1
 356 0 l 1
 375 90 l 1
 463 90 l 1
 443 166 l 1
 203 166 l 1
 157 90 l 1
 248 90 l 1
 228 0 l 1
 -21 0 l 1
384 693 m 0
 384 677 399 663 417 663 c 0
 439 663 466 683 466 707 c 0
 466 725 451 739 432 739 c 0
 403 739 384 719 384 693 c 0
317 683 m 0
 317 750 383 801 445 801 c 0
 497 801 531 764 531 717 c 0
 531 655 471 601 404 601 c 0
 352 601 317 637 317 683 c 0
EndSplineSet
EndChar

StartChar: Atilde
Encoding: 261 195 7
Width: 600
Flags: HMW
HStem: 0 90<-21 59 -2 59 157 228 375 463 561 600> 166 90<263 424 263 443 203 424> 464 90<199 309 180 452> 592 20G<450.5 502> 739 20G<548 548>
LayerCount: 2
Fore
SplineSet
263 256 m 1
 424 256 l 1
 381 425 l 1
 263 256 l 1
-21 0 m 1
 -2 90 l 1
 59 90 l 1
 309 464 l 1
 180 464 l 1
 199 554 l 1
 452 554 l 1
 561 90 l 1
 619 90 l 1
 600 0 l 1
 356 0 l 1
 375 90 l 1
 463 90 l 1
 443 166 l 1
 203 166 l 1
 157 90 l 1
 248 90 l 1
 228 0 l 1
 -21 0 l 1
188 636 m 1
 212 689 266 755 344 755 c 0
 378 755 405 732 432 715 c 0
 448 704 464 696 481 696 c 0
 515 696 537 738 548 759 c 1
 624 734 l 1
 597 671 538 612 466 612 c 0
 435 612 412 628 390 644 c 0
 370 658 352 672 329 672 c 0
 302 672 285 646 263 611 c 1
 188 636 l 1
EndSplineSet
EndChar

StartChar: B
Encoding: 66 66 8
Width: 600
Flags: HMW
HStem: 0 91<-20 81 -1 81 178 326> 253 91<228 316 209 353> 471 91<97 160 78 403 257 257 257 397>
VStem: 464 98<150 179 130 211> 483 96<397.5 418>
LayerCount: 2
Fore
SplineSet
178 91 m 1
 351 91 l 2
 381 91 464 120 464 180 c 0
 464 242 356 253 316 253 c 2
 209 253 l 1
 178 91 l 1
228 344 m 1
 353 344 l 2
 379 344 483 347 483 418 c 0
 482 444 458 471 397 471 c 2
 257 471 l 1
 228 344 l 1
-20 0 m 1
 -1 91 l 1
 81 91 l 1
 160 471 l 1
 78 471 l 1
 97 562 l 1
 403 562 l 2
 542 562 579 493 579 431 c 0
 579 364 542 326 481 294 c 1
 510 275 l 2
 543 253 563 217 562 179 c 0
 562 81 457 0 326 0 c 2
 -20 0 l 1
EndSplineSet
EndChar

StartChar: C
Encoding: 67 67 9
Width: 600
Flags: HMW
HStem: -18 93<229 287.5> 468 92<317 390.5>
VStem: 30 97<179 305.5 179 316.5>
LayerCount: 2
Fore
SplineSet
486 138 m 1
 530 70 l 1
 438 0 308 -18 267 -18 c 0
 83 -18 30 108 30 218 c 0
 30 415 195 560 380 560 c 0
 467 560 514 528 525 517 c 1
 533 560 l 1
 629 560 l 1
 580 315 l 1
 485 315 l 1
 506 420 l 1
 467 448 418 468 363 468 c 0
 271 468 127 392 127 219 c 0
 127 139 175 75 283 75 c 0
 365 75 448 117 486 138 c 1
EndSplineSet
EndChar

StartChar: Ccedilla
Encoding: 262 199 10
Width: 600
Flags: HMW
HStem: -206 21G<167.5 209> -12 90<261 300 189.5 307.5> 467 92<295.5 365> 540 20G<504 600 600 600>
VStem: 0 99<214 327.5 214 337>
LayerCount: 2
Fore
SplineSet
108 -178 m 1
 153 -121 l 1
 168 -131 182 -135 193 -135 c 0
 208 -135 221 -125 221 -113 c 0
 221 -102 211 -96 202 -96 c 0
 186 -96 167 -99 157 -102 c 1
 184 -9 l 1
 75 8 0 101 0 217 c 0
 0 457 182 559 356 559 c 0
 417 559 468 542 496 517 c 1
 504 560 l 1
 600 560 l 1
 551 319 l 1
 455 319 l 1
 476 422 l 1
 439 449 392 467 338 467 c 0
 253 467 99 403 99 252 c 0
 99 176 121 78 258 78 c 0
 342 78 415 118 463 143 c 1
 506 75 l 1
 430 35 354 -12 261 -12 c 1
 257 -25 l 1
 296 -34 303 -68 303 -90 c 0
 303 -164 240 -206 178 -206 c 0
 157 -206 136 -204 108 -178 c 1
EndSplineSet
EndChar

StartChar: D
Encoding: 68 68 11
Width: 600
Flags: HMW
HStem: 0 91<-54 48 -35 48 145 216> 471 91<62 127 43 358 224 224 224 343>
VStem: 484 96<278 386.5>
LayerCount: 2
Fore
SplineSet
145 91 m 1
 253 91 l 2
 390 91 484 204 484 352 c 0
 484 421 438 471 343 471 c 2
 224 471 l 1
 145 91 l 1
-54 0 m 1
 -35 91 l 1
 48 91 l 1
 127 471 l 1
 43 471 l 1
 62 562 l 1
 358 562 l 2
 505 562 580 478 580 358 c 0
 580 105 411 0 216 0 c 2
 -54 0 l 1
EndSplineSet
EndChar

StartChar: E
Encoding: 69 69 12
Width: 600
Flags: HMW
HStem: 0 91<-22 69 -3 69 165 427> 166 165<303 337 215 401 303 303> 241 90<215 319 195 337> 471 91<96 148 78 622 244 244 244 506>
LayerCount: 2
Fore
SplineSet
-22 0 m 1
 -3 91 l 1
 69 91 l 1
 148 471 l 1
 78 471 l 1
 96 562 l 1
 622 562 l 1
 582 369 l 1
 485 369 l 1
 506 471 l 1
 244 471 l 1
 215 331 l 1
 337 331 l 1
 352 406 l 1
 450 406 l 1
 401 166 l 1
 303 166 l 1
 319 241 l 1
 195 241 l 1
 165 91 l 1
 427 91 l 1
 451 197 l 1
 548 197 l 1
 506 0 l 1
 -22 0 l 1
EndSplineSet
EndChar

StartChar: Eacute
Encoding: 263 201 13
Width: 600
Flags: HMW
HStem: 0 90<-22 81 -3 81 176 428> 164 162<304 338 227 402 304 304> 237 89<227 320 208 338> 464 90<97 159 79 622 255 255 255 506> 764 20G<577 577>
LayerCount: 2
Fore
SplineSet
-22 0 m 1
 -3 90 l 1
 81 90 l 1
 159 464 l 1
 79 464 l 1
 97 554 l 1
 622 554 l 1
 579 348 l 1
 481 348 l 1
 506 464 l 1
 255 464 l 1
 227 326 l 1
 338 326 l 1
 353 400 l 1
 451 400 l 1
 402 164 l 1
 304 164 l 1
 320 237 l 1
 208 237 l 1
 176 90 l 1
 428 90 l 1
 452 202 l 1
 548 202 l 1
 506 0 l 1
 -22 0 l 1
261 607 m 1
 252 666 l 1
 577 784 l 1
 597 681 l 1
 261 607 l 1
EndSplineSet
EndChar

StartChar: Ecircumflex
Encoding: 264 202 14
Width: 600
Flags: HMW
HStem: 0 90<-22 81 -3 81 176 428> 164 162<304 338 227 402 304 304> 237 89<227 320 208 338> 464 90<97 159 79 622 255 255 255 506> 760 20G<364 462 462 462>
LayerCount: 2
Fore
SplineSet
-22 0 m 1
 -3 90 l 1
 81 90 l 1
 159 464 l 1
 79 464 l 1
 97 554 l 1
 622 554 l 1
 579 348 l 1
 481 348 l 1
 506 464 l 1
 255 464 l 1
 227 326 l 1
 338 326 l 1
 353 400 l 1
 451 400 l 1
 402 164 l 1
 304 164 l 1
 320 237 l 1
 208 237 l 1
 176 90 l 1
 428 90 l 1
 452 202 l 1
 548 202 l 1
 506 0 l 1
 -22 0 l 1
223 602 m 1
 168 638 l 1
 364 780 l 1
 462 780 l 1
 594 637 l 1
 526 602 l 1
 399 714 l 1
 223 602 l 1
EndSplineSet
EndChar

StartChar: Edieresis
Encoding: 265 203 15
Width: 600
Flags: HMW
HStem: 0 90<-22 81 -3 81 176 428> 164 162<304 338 227 402 304 304> 237 89<227 320 208 338> 464 90<97 159 79 622 255 255 255 506> 627 121<232 371 258 345 258 416 442 527>
LayerCount: 2
Fore
SplineSet
-22 0 m 1
 -3 90 l 1
 81 90 l 1
 159 464 l 1
 79 464 l 1
 97 554 l 1
 622 554 l 1
 579 348 l 1
 481 348 l 1
 506 464 l 1
 255 464 l 1
 227 326 l 1
 338 326 l 1
 353 400 l 1
 451 400 l 1
 402 164 l 1
 304 164 l 1
 320 237 l 1
 208 237 l 1
 176 90 l 1
 428 90 l 1
 452 202 l 1
 548 202 l 1
 506 0 l 1
 -22 0 l 1
232 627 m 1
 258 748 l 1
 371 748 l 1
 345 627 l 1
 232 627 l 1
416 627 m 1
 442 748 l 1
 553 748 l 1
 527 627 l 1
 416 627 l 1
EndSplineSet
EndChar

StartChar: Egrave
Encoding: 266 200 16
Width: 600
Flags: HMW
HStem: 0 90<-22 81 -3 81 176 428> 237 89<227 320 208 338> 348 0<481 481 579 579>
VStem: 81 95<90 90> 304 98<164 164> 452 96<202 202>
LayerCount: 2
Fore
SplineSet
232 682 m 1
 297 784 l 1
 570 665 l 1
 532 607 l 1
 232 682 l 1
-22 0 m 1
 -3 90 l 1
 81 90 l 1
 159 464 l 1
 79 464 l 1
 97 554 l 1
 622 554 l 1
 579 348 l 1
 481 348 l 1
 506 464 l 1
 255 464 l 1
 227 326 l 1
 338 326 l 1
 353 400 l 1
 451 400 l 1
 402 164 l 1
 304 164 l 1
 320 237 l 1
 208 237 l 1
 176 90 l 1
 428 90 l 1
 452 202 l 1
 548 202 l 1
 506 0 l 1
 -22 0 l 1
EndSplineSet
EndChar

StartChar: Eth
Encoding: 267 208 17
Width: 600
Flags: HMW
HStem: 0 91<-27 75 -8 75 172 243> 247 67<59 107 46 121 219 331> 471 91<90 154 71 386 250 250 250 370>
VStem: 498 99<274 383.5>
LayerCount: 2
Fore
SplineSet
172 91 m 1
 257 91 l 2
 416 91 498 200 498 348 c 0
 498 419 467 471 370 471 c 2
 250 471 l 1
 219 314 l 1
 345 314 l 1
 331 247 l 1
 205 247 l 1
 172 91 l 1
-27 0 m 1
 -8 91 l 1
 75 91 l 1
 107 247 l 1
 46 247 l 1
 59 314 l 1
 121 314 l 1
 154 471 l 1
 71 471 l 1
 90 562 l 1
 386 562 l 2
 534 562 597 476 597 355 c 0
 597 104 405 0 243 0 c 2
 -27 0 l 1
EndSplineSet
EndChar

StartChar: Euro
Encoding: 268 8364 18
Width: 600
Flags: HMW
HStem: 0 82<267 305.5> 176 72<-20 74 19 72 169 169 169 327> 302 72<44 83 4 111 44 175 208 389> 480 82<344 410.5>
VStem: 487 89<352 352>
LayerCount: 2
Fore
SplineSet
-20 176 m 1
 19 248 l 1
 74 248 l 1
 75 258 77 276 83 302 c 1
 4 302 l 1
 44 374 l 1
 111 374 l 1
 165 487 270 562 394 562 c 0
 439 562 489 546 520 515 c 1
 530 562 l 1
 620 562 l 1
 576 352 l 1
 487 352 l 1
 500 419 l 1
 487 452 436 480 385 480 c 0
 303 480 243 440 208 374 c 1
 429 374 l 1
 389 302 l 1
 175 302 l 1
 170 288 166 264 165 248 c 1
 366 248 l 1
 327 176 l 1
 169 176 l 1
 183 112 232 82 302 82 c 0
 380 82 448 122 483 142 c 1
 525 81 l 1
 438 19 325 0 286 0 c 0
 141 0 78 72 72 176 c 1
 -20 176 l 1
EndSplineSet
EndChar

StartChar: F
Encoding: 70 70 19
Width: 600
Flags: HMW
HStem: 0 91<-22 77 -3 77 174 285> 175 155<306 337 224 404 306 306> 471 91<96 157 78 622 254 254 254 505>
VStem: 77 97<91 91> 306 98<175 175> 478 98<345 345>
LayerCount: 2
Fore
SplineSet
-22 0 m 1
 -3 91 l 1
 77 91 l 1
 157 471 l 1
 78 471 l 1
 96 562 l 1
 622 562 l 1
 576 345 l 1
 478 345 l 1
 505 471 l 1
 254 471 l 1
 224 330 l 1
 337 330 l 1
 352 395 l 1
 450 395 l 1
 404 175 l 1
 306 175 l 1
 319 239 l 1
 205 239 l 1
 174 91 l 1
 305 91 l 1
 285 0 l 1
 -22 0 l 1
EndSplineSet
EndChar

StartChar: G
Encoding: 71 71 20
Width: 600
Flags: HMW
HStem: -18 93<235.5 301.5 235.5 316> 181 94<275 596 295 433 529 529 529 576> 469 90
VStem: 20 99<161 288.5 161 316>
LayerCount: 2
Fore
SplineSet
275 181 m 1
 295 275 l 1
 596 275 l 1
 576 181 l 1
 529 181 l 1
 501 34 l 1
 477 25 364 -18 268 -18 c 0
 129 -18 20 61 20 212 c 0
 20 420 208 563 372 563 c 0
 446 563 487 547 513 525 c 1
 522 563 l 1
 619 563 l 1
 572 345 l 1
 475 345 l 1
 495 439 l 1
 449 469 418 473 356 473 c 0
 239 473 119 368 119 209 c 0
 119 113 195 75 276 75 c 0
 327 75 380 86 418 105 c 1
 433 181 l 1
 275 181 l 1
EndSplineSet
EndChar

StartChar: Gcaron
Encoding: 269 486 21
Width: 600
Flags: HMW
HStem: -18 87<221 287.5 221 296> 69 99<255 255 255 287.5> 195 88 256 66<455 552 455 576 455 576> 542 66<307 307 307 389>
VStem: 0 99<148.5 269.5 148.5 294.5>
LayerCount: 2
Fore
SplineSet
307 608 m 1
 174 756 l 1
 244 790 l 1
 368 684 l 1
 545 789 l 1
 597 753 l 1
 406 608 l 1
 307 608 l 1
255 168 m 1
 275 256 l 1
 576 256 l 1
 556 168 l 1
 509 168 l 1
 481 31 l 1
 457 22 344 -18 248 -18 c 0
 109 -18 0 56 0 197 c 0
 0 392 178 542 352 542 c 0
 426 542 457 522 493 499 c 1
 502 542 l 1
 599 542 l 1
 552 322 l 1
 455 322 l 1
 475 409 l 1
 429 437 398 456 336 456 c 0
 219 456 99 344 99 195 c 0
 99 102 179 69 263 69 c 0
 312 69 362 80 398 97 c 1
 413 168 l 1
 255 168 l 1
EndSplineSet
EndChar

StartChar: H
Encoding: 72 72 22
Width: 600
Flags: HMW
HStem: 0 91<-39 57 -21 57 151 213 293 373 468 526> 234 91<198 402 180 420> 471 91<75 133 56 327 228 228 228 309 75 370 389 450 544 544 544 622>
VStem: 57 94<91 91> 373 95<91 91>
LayerCount: 2
Fore
SplineSet
-39 0 m 1
 -21 91 l 1
 57 91 l 1
 133 471 l 1
 56 471 l 1
 75 562 l 1
 327 562 l 1
 309 471 l 1
 228 471 l 1
 198 325 l 1
 420 325 l 1
 450 471 l 1
 370 471 l 1
 389 562 l 1
 640 562 l 1
 622 471 l 1
 544 471 l 1
 468 91 l 1
 545 91 l 1
 526 0 l 1
 275 0 l 1
 293 91 l 1
 373 91 l 1
 402 234 l 1
 180 234 l 1
 151 91 l 1
 232 91 l 1
 213 0 l 1
 -39 0 l 1
EndSplineSet
EndChar

StartChar: I
Encoding: 73 73 23
Width: 600
Flags: HMW
HStem: 0 91<17 211 36 211 312 465> 471 91<137 291 118 582 392 392 392 563>
VStem: 211 101<91 91>
LayerCount: 2
Fore
SplineSet
17 0 m 1
 36 91 l 1
 211 91 l 1
 291 471 l 1
 118 471 l 1
 137 562 l 1
 582 562 l 1
 563 471 l 1
 392 471 l 1
 312 91 l 1
 485 91 l 1
 465 0 l 1
 17 0 l 1
EndSplineSet
EndChar

StartChar: IJ
Encoding: 270 306 24
Width: 600
Flags: HMW
HStem: -18 91<-74 30 -55 30 131 204> 471 91<46 110 27 321 211 211 211 302>
LayerCount: 2
Fore
SplineSet
264 48 m 1
 309 267 l 1
 407 267 l 1
 385 170 l 2
 379 145 373 121 373 103 c 0
 373 84 381 72 405 72 c 0
 450 72 457 119 472 194 c 2
 528 470 l 1
 383 470 l 1
 401 562 l 1
 675 562 l 1
 656 470 l 1
 623 470 l 1
 565 180 l 2
 540 61 544 -18 406 -18 c 0
 312 -18 287 27 264 48 c 1
-74 -18 m 1
 -55 73 l 1
 30 73 l 1
 110 471 l 1
 27 471 l 1
 46 562 l 1
 321 562 l 1
 302 471 l 1
 211 471 l 1
 131 73 l 1
 224 73 l 1
 204 -18 l 1
 -74 -18 l 1
EndSplineSet
EndChar

StartChar: Iacute
Encoding: 271 205 25
Width: 600
Flags: HMW
HStem: 0 90<17 211 36 211 313 466> 464 90<137 291 118 582 393 393 393 563> 764 20G<563 563>
VStem: 211 102<90 90>
LayerCount: 2
Fore
SplineSet
17 0 m 1
 36 90 l 1
 211 90 l 1
 291 464 l 1
 118 464 l 1
 137 554 l 1
 582 554 l 1
 563 464 l 1
 393 464 l 1
 313 90 l 1
 485 90 l 1
 466 0 l 1
 17 0 l 1
252 607 m 1
 244 666 l 1
 563 784 l 1
 582 681 l 1
 252 607 l 1
EndSplineSet
EndChar

StartChar: Icircumflex
Encoding: 272 206 26
Width: 600
Flags: HMW
HStem: 0 90<17 211 36 211 313 466> 464 90<137 291 118 582 393 393 393 563> 760 20G<355 452 452 452>
VStem: 211 102<90 90>
LayerCount: 2
Fore
SplineSet
17 0 m 1
 36 90 l 1
 211 90 l 1
 291 464 l 1
 118 464 l 1
 137 554 l 1
 582 554 l 1
 563 464 l 1
 393 464 l 1
 313 90 l 1
 485 90 l 1
 466 0 l 1
 17 0 l 1
215 604 m 1
 161 640 l 1
 355 780 l 1
 452 780 l 1
 582 639 l 1
 514 604 l 1
 396 714 l 1
 215 604 l 1
EndSplineSet
EndChar

StartChar: Idieresis
Encoding: 273 207 27
Width: 600
Flags: HMW
HStem: 0 90<17 211 36 211 313 466> 464 90<137 291 118 582 393 393 393 563> 625 123<230 370 257 344 257 416 443 530>
VStem: 211 102<90 90>
LayerCount: 2
Fore
SplineSet
17 0 m 1
 36 90 l 1
 211 90 l 1
 291 464 l 1
 118 464 l 1
 137 554 l 1
 582 554 l 1
 563 464 l 1
 393 464 l 1
 313 90 l 1
 485 90 l 1
 466 0 l 1
 17 0 l 1
230 625 m 1
 257 748 l 1
 370 748 l 1
 344 625 l 1
 230 625 l 1
416 625 m 1
 443 748 l 1
 556 748 l 1
 530 625 l 1
 416 625 l 1
EndSplineSet
EndChar

StartChar: Idot
Encoding: 274 304 28
Width: 600
Flags: HMW
HStem: 0 88<17 211 36 211 313 466> 454 88<137 291 118 582 393 393 393 563> 625 123<310 450 337 424>
VStem: 211 102<88 88>
LayerCount: 2
Fore
SplineSet
17 0 m 1
 36 88 l 1
 211 88 l 1
 291 454 l 1
 118 454 l 1
 137 542 l 1
 582 542 l 1
 563 454 l 1
 393 454 l 1
 313 88 l 1
 485 88 l 1
 466 0 l 1
 17 0 l 1
310 625 m 1
 337 748 l 1
 450 748 l 1
 424 625 l 1
 310 625 l 1
EndSplineSet
EndChar

StartChar: Igrave
Encoding: 275 204 29
Width: 600
Flags: HMW
HStem: 0 90<17 211 36 211 313 466> 464 90<137 291 118 582 393 393 393 563> 764 20G<295 295>
VStem: 211 102<90 90>
LayerCount: 2
Fore
SplineSet
230 684 m 1
 295 784 l 1
 575 665 l 1
 535 607 l 1
 230 684 l 1
17 0 m 1
 36 90 l 1
 211 90 l 1
 291 464 l 1
 118 464 l 1
 137 554 l 1
 582 554 l 1
 563 464 l 1
 393 464 l 1
 313 90 l 1
 485 90 l 1
 466 0 l 1
 17 0 l 1
EndSplineSet
EndChar

StartChar: J
Encoding: 74 74 30
Width: 600
Flags: HMW
HStem: -18 90<169 244.5 169 274> 470 92<226 392 208 631 487 487 487 612>
VStem: 15 98<267 267> 336 93<180 194>
LayerCount: 2
Fore
SplineSet
-30 48 m 1
 15 267 l 1
 113 267 l 1
 91 170 l 2
 75 94 134 72 204 72 c 0
 285 72 321 119 336 194 c 2
 392 470 l 1
 208 470 l 1
 226 562 l 1
 631 562 l 1
 612 470 l 1
 487 470 l 1
 429 180 l 2
 404 61 343 -18 205 -18 c 0
 111 -18 -7 27 -30 48 c 1
EndSplineSet
EndChar

StartChar: K
Encoding: 75 75 31
Width: 600
Flags: HMW
HStem: 0 91<-35 68 -16 68 166 230 456 544> 471 91<83 147 63 347 246 246 246 328 83 372 392 416 547 547 547 616>
VStem: 68 98<91 91> 416 131<471 471>
LayerCount: 2
Fore
SplineSet
-35 0 m 1
 -16 91 l 1
 68 91 l 1
 147 471 l 1
 63 471 l 1
 83 562 l 1
 347 562 l 1
 328 471 l 1
 246 471 l 1
 211 309 l 1
 416 471 l 1
 372 471 l 1
 392 562 l 1
 635 562 l 1
 616 471 l 1
 547 471 l 1
 336 303 l 1
 347 286 384 233 397 204 c 0
 419 162 440 135 456 91 c 1
 563 91 l 1
 544 0 l 1
 384 0 l 1
 368 51 341 102 314 155 c 0
 299 181 277 218 257 245 c 1
 187 192 l 1
 166 91 l 1
 249 91 l 1
 230 0 l 1
 -35 0 l 1
EndSplineSet
EndChar

StartChar: L
Encoding: 76 76 32
Width: 600
Flags: HMW
HStem: 0 91<2 123 22 123 221 466> 471 91<121 203 102 450 303 303 303 431>
VStem: 123 98<91 91>
LayerCount: 2
Fore
SplineSet
2 0 m 1
 22 91 l 1
 123 91 l 1
 203 471 l 1
 102 471 l 1
 121 562 l 1
 450 562 l 1
 431 471 l 1
 303 471 l 1
 221 91 l 1
 466 91 l 1
 498 254 l 1
 598 254 l 1
 546 0 l 1
 2 0 l 1
EndSplineSet
EndChar

StartChar: Lslash
Encoding: 232 321 33
Width: 600
Flags: HMW
HStem: 0 91<2 122 21 122 220 462> 471 91<120 202 101 448 301 301 301 429>
VStem: 122 98<91 91>
LayerCount: 2
Fore
SplineSet
2 0 m 1
 21 91 l 1
 122 91 l 1
 151 228 l 1
 62 205 l 1
 74 269 l 1
 165 292 l 1
 202 471 l 1
 101 471 l 1
 120 562 l 1
 448 562 l 1
 429 471 l 1
 301 471 l 1
 268 317 l 1
 430 357 l 1
 415 295 l 1
 255 254 l 1
 220 91 l 1
 462 91 l 1
 499 264 l 1
 598 264 l 1
 543 0 l 1
 2 0 l 1
EndSplineSet
EndChar

StartChar: M
Encoding: 77 77 34
Width: 600
Flags: HMW
HStem: 0 91<-61 13 -43 13 108 166 334 408 502 538> 471 91<48 106 30 251 564 564 564 644>
LayerCount: 2
Fore
SplineSet
-61 0 m 1
 -43 91 l 1
 13 91 l 1
 106 471 l 1
 30 471 l 1
 48 562 l 1
 251 562 l 1
 299 272 l 1
 457 562 l 1
 662 562 l 1
 644 471 l 1
 564 471 l 1
 502 91 l 1
 556 91 l 1
 538 0 l 1
 317 0 l 1
 334 91 l 1
 408 91 l 1
 456 397 l 1
 305 125 l 1
 245 125 l 1
 187 405 l 1
 108 91 l 1
 185 91 l 1
 166 0 l 1
 -61 0 l 1
EndSplineSet
EndChar

StartChar: N
Encoding: 78 78 35
Width: 600
Flags: HMW
HStem: -12 93<-60 37 -42 37 132 212> 469 93<54 113 36 238 393 469 564 564 564 643>
LayerCount: 2
Fore
SplineSet
-60 -12 m 1
 -42 81 l 1
 37 81 l 1
 113 469 l 1
 36 469 l 1
 54 562 l 1
 238 562 l 1
 408 153 l 1
 469 469 l 1
 374 469 l 1
 393 562 l 1
 661 562 l 1
 643 469 l 1
 564 469 l 1
 468 -12 l 1
 376 -12 l 1
 194 398 l 1
 132 81 l 1
 231 81 l 1
 212 -12 l 1
 -60 -12 l 1
EndSplineSet
EndChar

StartChar: Ntilde
Encoding: 276 209 36
Width: 600
Flags: HMW
HStem: -12 92<-60 38 -42 38 132 213> 463 93<55 114 37 239 393 470 564 564 564 643> 610 85<461 489 461 493.5> 671 84<298 325.5> 739 20G<542 542>
LayerCount: 2
Fore
SplineSet
164 634 m 1
 190 688 247 755 329 755 c 0
 362 755 389 735 414 718 c 0
 433 705 451 695 471 695 c 0
 507 695 530 738 542 759 c 1
 621 734 l 1
 594 670 531 610 456 610 c 0
 427 610 405 623 384 637 c 0
 360 653 339 671 312 671 c 0
 284 671 265 644 244 609 c 1
 164 634 l 1
-60 -12 m 1
 -42 80 l 1
 38 80 l 1
 114 463 l 1
 37 463 l 1
 55 556 l 1
 239 556 l 1
 409 157 l 1
 470 463 l 1
 374 463 l 1
 393 556 l 1
 661 556 l 1
 643 463 l 1
 564 463 l 1
 469 -12 l 1
 379 -12 l 1
 195 393 l 1
 132 80 l 1
 232 80 l 1
 213 -12 l 1
 -60 -12 l 1
EndSplineSet
EndChar

StartChar: O
Encoding: 79 79 37
Width: 600
Flags: HMW
HStem: -18 92<213 334.5> 469 94<270 396>
VStem: 23 102<173 270 173 288.5> 488 97<286 372.5>
LayerCount: 2
Fore
SplineSet
125 210 m 0
 125 136 167 74 259 74 c 0
 411 74 488 234 488 338 c 0
 488 407 450 469 342 469 c 0
 198 469 125 330 125 210 c 0
23 195 m 0
 23 382 161 563 362 563 c 0
 515 563 585 472 585 353 c 0
 585 104 428 -18 241 -18 c 0
 127 -18 23 51 23 195 c 0
EndSplineSet
EndChar

StartChar: OE
Encoding: 234 338 38
Width: 600
Flags: HMW
HStem: 0 91<94.5 196.5 142.5 196.5 334 468> 0 169<485 525> 194 187 388 174<528 602 528 528> 471 91<257 270 410 544 410 410>
VStem: -37 95<191.5 294 191.5 324>
LayerCount: 2
Fore
SplineSet
58 236 m 0
 58 147 97 91 188 91 c 0
 205 91 241 93 250 140 c 2
 309 433 l 2
 316 470 277 471 263 471 c 0
 156 471 58 352 58 236 c 0
334 91 m 1
 468 91 l 1
 485 169 l 1
 560 169 l 1
 525 0 l 1
 139 0 l 2
 50 0 -37 73 -37 209 c 0
 -37 439 119 562 257 562 c 2
 637 562 l 1
 602 388 l 1
 528 388 l 1
 544 471 l 1
 410 471 l 1
 382 332 l 1
 420 332 l 1
 428 378 l 1
 502 378 l 1
 464 191 l 1
 391 191 l 1
 401 242 l 1
 365 242 l 1
 334 91 l 1
EndSplineSet
EndChar

StartChar: Oacute
Encoding: 277 211 39
Width: 600
Flags: HMW
HStem: -18 89<214 332> 472 91<276 401.5> 764 20G<564 564>
VStem: 19 100<181.5 221 181.5 305> 484 96<266.5 315>
LayerCount: 2
Fore
SplineSet
119 221 m 0
 119 142 165 71 263 71 c 0
 406 71 484 218 484 315 c 0
 485 384 458 472 345 472 c 0
 207 472 118 333 119 221 c 0
19 202 m 0
 19 408 169 563 364 563 c 0
 513 563 580 458 580 344 c 0
 580 99 420 -18 244 -18 c 0
 128 -18 19 54 19 202 c 0
249 604 m 1
 241 663 l 1
 564 784 l 1
 585 681 l 1
 249 604 l 1
EndSplineSet
EndChar

StartChar: Ocircumflex
Encoding: 278 212 40
Width: 600
Flags: HMW
HStem: -18 89<214 332> 472 91<276 401.5> 760 20G<362 457 457 457>
VStem: 19 100<181.5 221 181.5 305> 484 96<266.5 315>
LayerCount: 2
Fore
SplineSet
119 221 m 0
 119 142 165 71 263 71 c 0
 406 71 484 218 484 315 c 0
 485 384 458 472 345 472 c 0
 207 472 118 333 119 221 c 0
19 202 m 0
 19 408 169 563 364 563 c 0
 513 563 580 458 580 344 c 0
 580 99 420 -18 244 -18 c 0
 128 -18 19 54 19 202 c 0
171 639 m 1
 362 780 l 1
 457 780 l 1
 585 637 l 1
 520 601 l 1
 402 706 l 1
 224 602 l 1
 171 639 l 1
EndSplineSet
EndChar

StartChar: Odieresis
Encoding: 279 214 41
Width: 600
Flags: HMW
HStem: -18 89<214 332> 472 91<276 401.5> 625 123<237 375 263 349 263 420 446 532>
VStem: 19 100<181.5 221 181.5 305> 484 96<266.5 315>
LayerCount: 2
Fore
SplineSet
119 221 m 0
 119 142 165 71 263 71 c 0
 406 71 484 218 484 315 c 0
 485 384 458 472 345 472 c 0
 207 472 118 333 119 221 c 0
19 202 m 0
 19 408 169 563 364 563 c 0
 513 563 580 458 580 344 c 0
 580 99 420 -18 244 -18 c 0
 128 -18 19 54 19 202 c 0
237 625 m 1
 263 748 l 1
 375 748 l 1
 349 625 l 1
 237 625 l 1
420 625 m 1
 446 748 l 1
 557 748 l 1
 532 625 l 1
 420 625 l 1
EndSplineSet
EndChar

StartChar: Ograve
Encoding: 280 210 42
Width: 600
Flags: HMW
HStem: -18 89<214 332> 468 91
VStem: 19 102 467 98
LayerCount: 2
Fore
SplineSet
119 221 m 0
 119 142 165 71 263 71 c 0
 406 71 484 218 484 315 c 0
 485 384 458 472 345 472 c 0
 207 472 118 333 119 221 c 0
19 202 m 0
 19 408 169 563 364 563 c 0
 513 563 580 458 580 344 c 0
 580 99 420 -18 244 -18 c 0
 128 -18 19 54 19 202 c 0
237 681 m 1
 303 784 l 1
 578 664 l 1
 539 606 l 1
 237 681 l 1
EndSplineSet
EndChar

StartChar: Oslash
Encoding: 233 216 43
Width: 600
Flags: HMW
HStem: -22 21G<40 40> -15 91<239 333.5 239 342> 489 91<271.5 359> 564 20G<560 560>
VStem: 12 103<235 284.5> 484 96<285 387.5>
LayerCount: 2
Fore
SplineSet
169 103 m 1
 190 86 221 76 257 76 c 0
 410 76 484 235 484 335 c 0
 484 358 481 381 473 400 c 1
 169 103 l 1
125 164 m 1
 432 461 l 1
 410 478 379 489 339 489 c 0
 204 489 115 346 115 235 c 0
 114 209 117 183 125 164 c 1
-12 28 m 1
 43 85 l 1
 24 118 12 159 12 207 c 0
 12 362 105 580 359 580 c 0
 422 580 472 563 507 533 c 1
 560 584 l 1
 612 536 l 1
 553 477 l 1
 570 444 580 407 580 368 c 0
 581 137 445 -15 239 -15 c 0
 187 -15 136 0 94 30 c 1
 40 -22 l 1
 -12 28 l 1
EndSplineSet
EndChar

StartChar: Otilde
Encoding: 281 213 44
Width: 600
Flags: HMW
HStem: -18 89<214 332> 472 91<276 401.5> 611 84<440.5 469 440.5 474> 739 20G<521 521>
VStem: 19 100<181.5 221 181.5 305> 484 96<266.5 315>
LayerCount: 2
Fore
SplineSet
119 221 m 0
 119 142 165 71 263 71 c 0
 406 71 484 218 484 315 c 0
 485 384 458 472 345 472 c 0
 207 472 118 333 119 221 c 0
19 202 m 0
 19 408 169 563 364 563 c 0
 513 563 580 458 580 344 c 0
 580 99 420 -18 244 -18 c 0
 128 -18 19 54 19 202 c 0
152 635 m 1
 177 688 233 755 312 755 c 0
 347 755 371 740 391 725 c 0
 412 710 429 695 452 695 c 0
 486 695 510 738 521 759 c 1
 597 734 l 1
 570 670 511 611 437 611 c 0
 401 611 380 631 356 648 c 0
 340 659 321 670 296 671 c 0
 269 672 251 645 230 609 c 1
 152 635 l 1
EndSplineSet
EndChar

StartChar: P
Encoding: 80 80 45
Width: 600
Flags: HMW
HStem: 0 92<-7 95 12 95 193 303> 182 91<231 315 315 336 211 315> 470 92<111 175 92 387 271 271 271 367>
VStem: 489 98<338 403 338 417>
LayerCount: 2
Fore
SplineSet
231 273 m 1
 315 273 l 2
 393 273 489 281 489 388 c 0
 489 446 425 470 367 470 c 2
 271 470 l 1
 231 273 l 1
-7 0 m 1
 12 92 l 1
 95 92 l 1
 175 470 l 1
 92 470 l 1
 111 562 l 1
 387 562 l 2
 505 562 586 507 587 403 c 0
 587 273 503 182 336 182 c 2
 211 182 l 1
 193 92 l 1
 322 92 l 1
 303 0 l 1
 -7 0 l 1
EndSplineSet
EndChar

StartChar: Q
Encoding: 81 81 46
Width: 600
Flags: HMW
HStem: -138 21G<105 105> -84 172<216 327> 469 91<326 414.5>
VStem: 47 97<177 312.5 177 327> 505 94<260.5 353.5>
LayerCount: 2
Fore
SplineSet
144 229 m 0
 144 125 217 88 285 88 c 0
 369 88 505 186 505 313 c 0
 505 394 463 469 366 469 c 0
 286 469 144 396 144 229 c 0
76 -70 m 1
 136 -28 l 1
 170 13 l 1
 97 37 47 104 47 219 c 0
 47 435 222 560 385 560 c 0
 554 560 599 430 599 334 c 0
 599 187 501 39 330 -3 c 1
 358 -26 379 -42 403 -42 c 0
 422 -42 437 -34 480 2 c 1
 524 -61 l 1
 468 -106 435 -133 379 -133 c 0
 351 -133 329 -122 307 -110 c 0
 284 -97 262 -84 234 -84 c 0
 198 -84 169 -106 105 -138 c 1
 76 -70 l 1
EndSplineSet
EndChar

StartChar: R
Encoding: 82 82 47
Width: 600
Flags: HMW
HStem: 0 92<3 106 22 106 204 263 508 568> 214 92<249 311 229 344> 470 92<125 186 106 414 283 283 283 414 414 415>
VStem: 106 98<92 92> 496 99<379.5 438>
LayerCount: 2
Fore
SplineSet
249 306 m 1
 344 306 l 2
 394 306 496 319 496 414 c 0
 496 462 438 470 415 470 c 2
 283 470 l 1
 249 306 l 1
3 0 m 1
 22 92 l 1
 106 92 l 1
 186 470 l 1
 106 470 l 1
 125 562 l 1
 414 562 l 2
 515 562 595 519 595 425 c 0
 595 334 533 250 415 232 c 1
 508 92 l 1
 587 92 l 1
 568 0 l 1
 426 0 l 1
 416 35 400 71 382 104 c 2
 311 214 l 1
 229 214 l 1
 204 92 l 1
 282 92 l 1
 263 0 l 1
 3 0 l 1
EndSplineSet
EndChar

StartChar: S
Encoding: 83 83 48
Width: 600
Flags: HMW
HStem: -22 94<241.5 323 241.5 356.5> 488 94<315.5 386.5>
VStem: 96 107<381.5 432 381.5 448> 440 105<132.5 185>
LayerCount: 2
Fore
SplineSet
-9 -22 m 1
 36 191 l 1
 139 191 l 1
 124 123 l 1
 166 98 214 72 269 72 c 0
 377 72 440 107 440 158 c 0
 440 212 346 222 292 229 c 0
 197 239 96 301 96 388 c 0
 96 508 191 582 368 582 c 0
 412 582 466 564 500 548 c 1
 506 582 l 1
 609 582 l 1
 564 363 l 1
 461 363 l 1
 479 451 l 1
 446 467 408 488 365 488 c 0
 266 488 203 462 203 402 c 0
 203 361 258 328 321 315 c 0
 409 297 545 283 545 172 c 0
 545 34 443 -22 270 -22 c 0
 199 -22 119 14 104 25 c 1
 94 -22 l 1
 -9 -22 l 1
EndSplineSet
EndChar

StartChar: Scaron
Encoding: 282 352 49
Width: 600
Flags: HMW
HStem: -22 91<224.5 294 224.5 327> 476 91<298 360.5>
VStem: 89 100<350 404 350 424.5> 407 99<128 182>
LayerCount: 2
Fore
SplineSet
319 608 m 1
 186 756 l 1
 256 790 l 1
 380 684 l 1
 557 789 l 1
 609 753 l 1
 418 608 l 1
 319 608 l 1
-9 -22 m 1
 34 184 l 1
 130 184 l 1
 118 120 l 1
 159 83 198 69 251 69 c 0
 337 69 407 103 407 153 c 0
 407 211 301 219 249 224 c 0
 169 233 89 271 89 361 c 0
 89 488 194 567 356 567 c 0
 398 567 435 548 467 533 c 1
 474 567 l 1
 570 567 l 1
 528 354 l 1
 431 354 l 1
 446 439 l 1
 415 454 380 476 341 476 c 0
 255 476 189 425 189 383 c 0
 189 317 301 307 342 302 c 0
 432 289 506 263 506 153 c 0
 506 42 410 -22 244 -22 c 0
 167 -22 118 6 98 24 c 1
 88 -22 l 1
 -9 -22 l 1
EndSplineSet
EndChar

StartChar: Scedilla
Encoding: 283 350 50
Width: 600
Flags: HMW
HStem: 22 195<37 296> 495 87<319.5 385.5>
VStem: 95 107<375.5 427.5 375.5 447> 435 105<164 215.5>
LayerCount: 2
Fore
SplineSet
174 -92 m 1
 209 24 l 1
 156 32 122 51 105 64 c 1
 94 21 l 1
 -9 21 l 1
 37 217 l 1
 139 217 l 1
 127 156 l 1
 170 121 212 108 268 108 c 0
 360 108 435 140 435 188 c 0
 435 243 321 251 266 256 c 0
 180 265 95 301 95 387 c 0
 95 507 209 582 381 582 c 0
 426 582 465 564 500 550 c 1
 507 582 l 1
 609 582 l 1
 563 380 l 1
 460 380 l 1
 477 460 l 1
 444 474 406 495 365 495 c 0
 274 495 202 448 202 407 c 0
 202 344 321 335 365 330 c 0
 461 318 540 293 540 188 c 0
 540 89 452 30 296 22 c 1
 286 -7 l 1
 329 -17 337 -54 337 -79 c 0
 337 -160 267 -206 197 -206 c 0
 174 -206 151 -204 119 -176 c 1
 169 -113 l 1
 186 -124 202 -128 214 -128 c 0
 230 -128 245 -117 245 -104 c 0
 245 -92 234 -85 225 -85 c 0
 206 -85 185 -89 174 -92 c 1
EndSplineSet
EndChar

StartChar: T
Encoding: 84 84 51
Width: 600
Flags: HMW
HStem: 0 91<59 206 77 206 303 410> 471 91<155 284 155 155 381 381 381 509>
LayerCount: 2
Fore
SplineSet
59 0 m 1
 77 91 l 1
 206 91 l 1
 284 471 l 1
 155 471 l 1
 131 358 l 1
 34 358 l 1
 75 562 l 1
 626 562 l 1
 585 358 l 1
 487 358 l 1
 509 471 l 1
 381 471 l 1
 303 91 l 1
 429 91 l 1
 410 0 l 1
 59 0 l 1
EndSplineSet
EndChar

StartChar: Thorn
Encoding: 284 222 52
Width: 600
Flags: HMW
HStem: 0 91<14 146 31 146 231 334> 132 90<254 355 238 385> 339 90<292 400 276 430> 471 91<118 215 101 438 299 299 299 422>
VStem: 146 85<91 91> 499 86<255.5 316.5>
LayerCount: 2
Fore
SplineSet
254 222 m 1
 385 222 l 2
 416 222 499 216 499 295 c 0
 499 338 431 339 400 339 c 2
 276 339 l 1
 254 222 l 1
14 0 m 1
 31 91 l 1
 146 91 l 1
 215 471 l 1
 101 471 l 1
 118 562 l 1
 438 562 l 1
 422 471 l 1
 299 471 l 1
 292 429 l 1
 430 429 l 2
 515 429 585 407 585 316 c 0
 585 168 483 132 355 132 c 2
 238 132 l 1
 231 91 l 1
 351 91 l 1
 334 0 l 1
 14 0 l 1
EndSplineSet
EndChar

StartChar: U
Encoding: 85 85 53
Width: 600
Flags: HMW
HStem: -18 92<169 259.5> 470 92<-7 283 11 75 170 170 170 264 11 320 339 416 511 511 511 589>
VStem: 75 95<470 470> 416 95<470 470>
LayerCount: 2
Fore
SplineSet
-7 470 m 1
 11 562 l 1
 283 562 l 1
 264 470 l 1
 170 470 l 1
 113 190 l 2
 111 177 108 164 108 151 c 0
 109 110 126 74 212 74 c 0
 314 74 347 121 364 207 c 2
 416 470 l 1
 320 470 l 1
 339 562 l 1
 607 562 l 1
 589 470 l 1
 511 470 l 1
 458 192 l 2
 426 38 324 -18 195 -18 c 0
 69 -18 14 35 13 144 c 0
 13 161 16 179 20 199 c 2
 75 470 l 1
 -7 470 l 1
EndSplineSet
EndChar

StartChar: Uacute
Encoding: 285 218 54
Width: 600
Flags: HMW
HStem: -18 91<200 288.5> 460 90<23 311 41 104 198 198 198 293 41 349 367 445 539 539 539 619> 764 20G<513 513>
VStem: 104 94<460 460> 445 94<460 460>
LayerCount: 2
Fore
SplineSet
23 460 m 1
 41 550 l 1
 311 550 l 1
 293 460 l 1
 198 460 l 1
 142 187 l 2
 139 172 137 157 137 142 c 0
 138 105 160 73 240 73 c 0
 343 73 375 118 393 203 c 2
 445 460 l 1
 349 460 l 1
 367 550 l 1
 637 550 l 1
 619 460 l 1
 539 460 l 1
 484 195 l 2
 447 15 353 -18 224 -18 c 0
 103 -18 42 36 42 130 c 0
 42 150 44 172 49 196 c 2
 104 460 l 1
 23 460 l 1
205 604 m 1
 197 663 l 1
 513 784 l 1
 533 680 l 1
 205 604 l 1
EndSplineSet
EndChar

StartChar: Ucircumflex
Encoding: 286 219 55
Width: 600
Flags: HMW
HStem: -18 91<200 288.5> 460 90<23 311 41 104 198 198 198 293 41 349 367 445 539 539 539 619> 760 20G<306 401 401 401>
VStem: 104 94<460 460> 445 94<460 460>
LayerCount: 2
Fore
SplineSet
23 460 m 1
 41 550 l 1
 311 550 l 1
 293 460 l 1
 198 460 l 1
 142 187 l 2
 139 172 137 157 137 142 c 0
 138 105 160 73 240 73 c 0
 343 73 375 118 393 203 c 2
 445 460 l 1
 349 460 l 1
 367 550 l 1
 637 550 l 1
 619 460 l 1
 539 460 l 1
 484 195 l 2
 447 15 353 -18 224 -18 c 0
 103 -18 42 36 42 130 c 0
 42 150 44 172 49 196 c 2
 104 460 l 1
 23 460 l 1
166 601 m 1
 113 638 l 1
 306 780 l 1
 401 780 l 1
 530 637 l 1
 464 601 l 1
 339 707 l 1
 166 601 l 1
EndSplineSet
EndChar

StartChar: Udieresis
Encoding: 287 220 56
Width: 600
Flags: HMW
HStem: -18 91<200 288.5> 460 90<23 311 41 104 198 198 198 293 41 349 367 445 539 539 539 619> 625 123<175 312 202 285 202 356 381 465>
VStem: 104 94<460 460> 445 94<460 460>
LayerCount: 2
Fore
SplineSet
23 460 m 1
 41 550 l 1
 311 550 l 1
 293 460 l 1
 198 460 l 1
 142 187 l 2
 139 172 137 157 137 142 c 0
 138 105 160 73 240 73 c 0
 343 73 375 118 393 203 c 2
 445 460 l 1
 349 460 l 1
 367 550 l 1
 637 550 l 1
 619 460 l 1
 539 460 l 1
 484 195 l 2
 447 15 353 -18 224 -18 c 0
 103 -18 42 36 42 130 c 0
 42 150 44 172 49 196 c 2
 104 460 l 1
 23 460 l 1
175 625 m 1
 202 748 l 1
 312 748 l 1
 285 625 l 1
 175 625 l 1
356 625 m 1
 381 748 l 1
 491 748 l 1
 465 625 l 1
 356 625 l 1
EndSplineSet
EndChar

StartChar: Ugrave
Encoding: 288 217 57
Width: 600
Flags: HMW
HStem: -18 91<200 288.5> 460 90<23 311 41 104 198 198 198 293 41 349 367 445 539 539 539 619>
VStem: 104 94<460 460> 445 94<460 460>
LayerCount: 2
Fore
SplineSet
175 681 m 1
 239 784 l 1
 507 662 l 1
 470 604 l 1
 175 681 l 1
23 460 m 1
 41 550 l 1
 311 550 l 1
 293 460 l 1
 198 460 l 1
 142 187 l 2
 139 172 137 157 137 142 c 0
 138 105 160 73 240 73 c 0
 343 73 375 118 393 203 c 2
 445 460 l 1
 349 460 l 1
 367 550 l 1
 637 550 l 1
 619 460 l 1
 539 460 l 1
 484 195 l 2
 447 15 353 -18 224 -18 c 0
 103 -18 42 36 42 130 c 0
 42 150 44 172 49 196 c 2
 104 460 l 1
 23 460 l 1
EndSplineSet
EndChar

StartChar: V
Encoding: 86 86 58
Width: 600
Flags: HMW
HStem: 471 91<-5 53 -24 252 152 152 152 233 366 441 535 535 535 605>
VStem: 151 97<-2 -2> 441 94<471 471>
LayerCount: 2
Fore
SplineSet
151 -2 m 1
 53 471 l 1
 -24 471 l 1
 -5 562 l 1
 252 562 l 1
 233 471 l 1
 152 471 l 1
 227 107 l 1
 441 471 l 1
 347 471 l 1
 366 562 l 1
 624 562 l 1
 605 471 l 1
 535 471 l 1
 248 -2 l 1
 151 -2 l 1
EndSplineSet
EndChar

StartChar: W
Encoding: 87 87 59
Width: 600
Flags: HMW
HStem: 0 21G<-7 -7 -7 75 312 312 312 394> 438 20G<256 324 324 324> 471 91<-7 24 -26 232 117 117 117 213 389 467 559 559 559 608>
VStem: 8 98
LayerCount: 2
Fore
SplineSet
-7 0 m 1
 24 471 l 1
 -26 471 l 1
 -7 562 l 1
 232 562 l 1
 213 471 l 1
 117 471 l 1
 96 190 l 1
 256 458 l 1
 324 458 l 1
 374 192 l 1
 467 471 l 1
 370 471 l 1
 389 562 l 1
 627 562 l 1
 608 471 l 1
 559 471 l 1
 394 0 l 1
 312 0 l 1
 256 306 l 1
 75 0 l 1
 -7 0 l 1
EndSplineSet
EndChar

StartChar: X
Encoding: 88 88 60
Width: 600
Flags: HMW
HStem: 0 91<-38 49 -19 49 160 221 316 379 492 541> 471 91<97 149 78 337 263 263 263 318 97 393 413 440 550 550 550 620>
LayerCount: 2
Fore
SplineSet
-38 0 m 1
 -19 91 l 1
 49 91 l 1
 255 284 l 1
 149 471 l 1
 78 471 l 1
 97 562 l 1
 337 562 l 1
 318 471 l 1
 263 471 l 1
 327 353 l 1
 440 471 l 1
 393 471 l 1
 413 562 l 1
 639 562 l 1
 620 471 l 1
 550 471 l 1
 367 284 l 1
 492 91 l 1
 560 91 l 1
 541 0 l 1
 296 0 l 1
 316 91 l 1
 379 91 l 1
 295 216 l 1
 160 91 l 1
 240 91 l 1
 221 0 l 1
 -38 0 l 1
EndSplineSet
EndChar

StartChar: Y
Encoding: 89 89 61
Width: 600
Flags: HMW
HStem: 0 91<18 163 38 163 260 366> 471 91<18 79 0 259 185 185 185 240 18 341 360 397 500 500 500 581>
LayerCount: 2
Fore
SplineSet
18 0 m 1
 38 91 l 1
 163 91 l 1
 190 227 l 1
 79 471 l 1
 0 471 l 1
 18 562 l 1
 259 562 l 1
 240 471 l 1
 185 471 l 1
 259 314 l 1
 397 471 l 1
 341 471 l 1
 360 562 l 1
 599 562 l 1
 581 471 l 1
 500 471 l 1
 288 227 l 1
 260 91 l 1
 384 91 l 1
 366 0 l 1
 18 0 l 1
EndSplineSet
EndChar

StartChar: Yacute
Encoding: 289 221 62
Width: 600
Flags: HMW
HStem: 0 90<17 161 37 161 259 364> 462 90<18 78 0 257 185 185 185 239 18 341 359 396 500 500 500 581>
LayerCount: 2
Fore
SplineSet
207 605 m 1
 199 664 l 1
 520 784 l 1
 540 682 l 1
 207 605 l 1
17 0 m 1
 37 90 l 1
 161 90 l 1
 191 223 l 1
 78 462 l 1
 0 462 l 1
 18 552 l 1
 257 552 l 1
 239 462 l 1
 185 462 l 1
 257 309 l 1
 396 462 l 1
 341 462 l 1
 359 552 l 1
 599 552 l 1
 581 462 l 1
 500 462 l 1
 287 223 l 1
 259 90 l 1
 384 90 l 1
 364 0 l 1
 17 0 l 1
EndSplineSet
EndChar

StartChar: Ydieresis
Encoding: 290 376 63
Width: 600
Flags: HMW
HStem: 0 88 479 93<22 81 3 259 187 187 187 241 22 341 359 397 499 499 499 578> 660 129<180 316 206 290 206 360 386 471>
VStem: 164 96<93 93> 180 110<660 660> 360 111<660 660>
LayerCount: 2
Fore
SplineSet
180 660 m 1
 206 789 l 1
 316 789 l 1
 290 660 l 1
 180 660 l 1
360 660 m 1
 386 789 l 1
 497 789 l 1
 471 660 l 1
 360 660 l 1
21 0 m 1
 39 93 l 1
 164 93 l 1
 190 221 l 1
 81 479 l 1
 3 479 l 1
 22 572 l 1
 259 572 l 1
 241 479 l 1
 187 479 l 1
 257 310 l 1
 397 479 l 1
 341 479 l 1
 359 572 l 1
 597 572 l 1
 578 479 l 1
 499 479 l 1
 286 221 l 1
 260 93 l 1
 383 93 l 1
 365 0 l 1
 21 0 l 1
EndSplineSet
EndChar

StartChar: Z
Encoding: 90 90 64
Width: 600
Flags: HMW
HStem: 0 91<164 414 164 493> 471 91<214 432 214 214>
VStem: 89 97<357 357>
LayerCount: 2
Fore
SplineSet
13 0 m 1
 28 70 l 1
 432 471 l 1
 214 471 l 1
 186 357 l 1
 89 357 l 1
 135 562 l 1
 587 562 l 1
 574 497 l 1
 164 91 l 1
 414 91 l 1
 445 220 l 1
 542 220 l 1
 493 0 l 1
 13 0 l 1
EndSplineSet
EndChar

StartChar: Zcaron
Encoding: 291 381 65
Width: 600
Flags: HMW
HStem: 0 89<149 394 149 469> 466 90<197 411 197 197>
VStem: 76 95<353 353> 420 95<217 217>
LayerCount: 2
Fore
SplineSet
312 610 m 1
 179 756 l 1
 248 790 l 1
 373 683 l 1
 547 789 l 1
 598 753 l 1
 410 610 l 1
 312 610 l 1
1 0 m 1
 15 67 l 1
 411 466 l 1
 197 466 l 1
 171 353 l 1
 76 353 l 1
 121 556 l 1
 562 556 l 1
 548 492 l 1
 149 89 l 1
 394 89 l 1
 420 217 l 1
 515 217 l 1
 469 0 l 1
 1 0 l 1
EndSplineSet
EndChar

StartChar: a
Encoding: 97 97 66
Width: 600
Flags: HMW
HStem: -15 95<191.5 231.5> -6 95<484 546> 195 94<256.5 310.5> 358 96<324 350.5>
VStem: 36 98<103.5 126.5> 431 98<309.5 396.5>
LayerCount: 2
Fore
SplineSet
403 156 m 1
 410 187 l 1
 378 189 340 195 281 195 c 0
 232 195 134 176 134 116 c 0
 134 91 173 80 210 80 c 0
 278 80 345 112 403 156 c 1
370 -6 m 1
 379 43 l 1
 314 8 272 -15 191 -15 c 0
 85 -15 36 48 36 109 c 0
 36 144 67 289 315 289 c 0
 353 289 392 286 428 282 c 1
 429 293 431 304 431 315 c 0
 431 357 362 358 339 358 c 0
 277 358 202 341 138 318 c 1
 117 399 l 1
 190 428 285 454 363 454 c 0
 391 454 529 446 529 347 c 0
 530 319 525 288 518 260 c 2
 484 89 l 1
 565 89 l 1
 546 -6 l 1
 370 -6 l 1
EndSplineSet
EndChar

StartChar: aacute
Encoding: 292 225 67
Width: 600
Flags: HMW
HStem: -15 92<179.5 219.5> -3 91<467 528> 189 90<240 297> 345 91<326.5 354.5> 641 20G<553 553>
VStem: 27 96<102.5 119.5>
LayerCount: 2
Fore
SplineSet
387 152 m 1
 393 180 l 1
 364 182 326 189 268 189 c 0
 212 189 123 171 123 115 c 0
 123 90 161 77 198 77 c 0
 265 77 331 110 387 152 c 1
355 -3 m 1
 365 43 l 1
 302 8 259 -15 180 -15 c 0
 79 -15 27 43 27 100 c 0
 27 139 56 279 302 279 c 0
 338 279 377 276 412 272 c 1
 415 280 416 288 416 295 c 0
 416 329 379 345 330 345 c 0
 255 345 155 323 128 306 c 1
 108 385 l 1
 166 408 280 436 373 436 c 0
 442 436 511 406 511 338 c 0
 511 310 506 279 500 250 c 2
 467 88 l 1
 546 88 l 1
 528 -3 l 1
 355 -3 l 1
243 483 m 1
 233 540 l 1
 553 661 l 1
 573 559 l 1
 243 483 l 1
EndSplineSet
EndChar

StartChar: acircumflex
Encoding: 293 226 68
Width: 600
Flags: HMW
HStem: 0 90 189 89 343 91
VStem: 35 94 363 100
LayerCount: 2
Fore
SplineSet
395 152 m 1
 401 180 l 1
 372 182 334 189 276 189 c 0
 220 189 131 171 131 115 c 0
 131 90 169 77 206 77 c 0
 273 77 339 110 395 152 c 1
363 -3 m 1
 373 43 l 1
 310 8 267 -15 188 -15 c 0
 87 -15 35 43 35 100 c 0
 35 139 64 279 310 279 c 0
 346 279 385 276 420 272 c 1
 423 280 424 288 424 295 c 0
 424 329 387 345 338 345 c 0
 263 345 163 323 136 306 c 1
 116 385 l 1
 174 408 288 436 381 436 c 0
 450 436 519 406 519 338 c 0
 519 310 514 279 508 250 c 2
 475 88 l 1
 554 88 l 1
 536 -3 l 1
 363 -3 l 1
205 479 m 1
 152 515 l 1
 340 657 l 1
 437 657 l 1
 565 514 l 1
 500 479 l 1
 376 584 l 1
 205 479 l 1
EndSplineSet
EndChar

StartChar: acute
Encoding: 194 180 69
Width: 600
Flags: HMW
VStem: 161 286<508 571>
LayerCount: 2
Fore
SplineSet
161 508 m 1
 152 557 l 1
 430 661 l 1
 447 571 l 1
 161 508 l 1
EndSplineSet
EndChar

StartChar: adieresis
Encoding: 294 228 70
Width: 600
Flags: HMW
HStem: -15 92<192.5 232.5> -3 91<480 541> 189 90<253 310> 345 91<339.5 367.5> 499 126<228 369 252 342 252 417 442 533>
VStem: 40 96<102.5 119.5>
LayerCount: 2
Fore
SplineSet
400 152 m 1
 406 180 l 1
 377 182 339 189 281 189 c 0
 225 189 136 171 136 115 c 0
 136 90 174 77 211 77 c 0
 278 77 344 110 400 152 c 1
368 -3 m 1
 378 43 l 1
 315 8 272 -15 193 -15 c 0
 92 -15 40 43 40 100 c 0
 40 139 69 279 315 279 c 0
 351 279 390 276 425 272 c 1
 428 280 429 288 429 295 c 0
 429 329 392 345 343 345 c 0
 268 345 168 323 141 306 c 1
 121 385 l 1
 179 408 293 436 386 436 c 0
 455 436 524 406 524 338 c 0
 524 310 519 279 513 250 c 2
 480 88 l 1
 559 88 l 1
 541 -3 l 1
 368 -3 l 1
228 499 m 1
 252 625 l 1
 369 625 l 1
 342 499 l 1
 228 499 l 1
417 499 m 1
 442 625 l 1
 558 625 l 1
 533 499 l 1
 417 499 l 1
EndSplineSet
EndChar

StartChar: ae
Encoding: 241 230 71
Width: 600
Flags: HMW
HStem: -15 95<115 141 386.5 437> 165 96<364 519 364 593 348 519> 179 97<146 195.5> 359 95<206.5 240.5 466.5 496>
LayerCount: 2
Fore
SplineSet
237 123 m 1
 248 174 l 1
 233 178 201 179 190 179 c 0
 102 179 87 135 87 125 c 0
 87 90 106 80 124 80 c 0
 164 80 204 94 237 123 c 1
364 261 m 1
 519 261 l 1
 521 282 525 359 467 359 c 0
 426 359 379 320 364 261 c 1
272 58 m 1
 234 32 177 -15 105 -15 c 0
 30 -15 -14 32 -15 94 c 0
 -15 181 60 276 188 276 c 0
 224 276 242 273 267 271 c 1
 269 281 l 2
 272 295 273 306 273 316 c 0
 273 347 257 359 224 359 c 0
 180 359 127 338 80 321 c 1
 71 415 l 1
 76 417 170 454 243 454 c 0
 311 454 336 438 356 400 c 1
 392 435 445 454 488 454 c 0
 584 454 615 368 615 285 c 0
 615 244 606 204 593 165 c 1
 348 165 l 1
 347 163 l 1
 344 144 344 80 429 80 c 0
 453 80 492 89 560 112 c 1
 574 20 l 1
 514 -1 465 -15 409 -15 c 0
 318 -15 284 32 272 58 c 1
EndSplineSet
EndChar

StartChar: agrave
Encoding: 295 224 72
Width: 600
Flags: HMW
HStem: -15 92<187.5 227.5> -3 91<475 536> 189 90<248 305> 345 91<334.5 362.5> 641 20G<288 288>
VStem: 35 96<102.5 119.5>
LayerCount: 2
Fore
SplineSet
395 152 m 1
 401 180 l 1
 372 182 334 189 276 189 c 0
 220 189 131 171 131 115 c 0
 131 90 169 77 206 77 c 0
 273 77 339 110 395 152 c 1
363 -3 m 1
 373 43 l 1
 310 8 267 -15 188 -15 c 0
 87 -15 35 43 35 100 c 0
 35 139 64 279 310 279 c 0
 346 279 385 276 420 272 c 1
 423 280 424 288 424 295 c 0
 424 329 387 345 338 345 c 0
 263 345 163 323 136 306 c 1
 116 385 l 1
 174 408 288 436 381 436 c 0
 450 436 519 406 519 338 c 0
 519 310 514 279 508 250 c 2
 475 88 l 1
 554 88 l 1
 536 -3 l 1
 363 -3 l 1
224 562 m 1
 288 661 l 1
 565 540 l 1
 528 482 l 1
 224 562 l 1
EndSplineSet
EndChar

StartChar: ampersand
Encoding: 38 38 73
Width: 600
Flags: HMW
HStem: -15 94<175 212.5 175 216.5> -3 94<410 524 347 543> 222 94<463 547 463 463> 448 95
VStem: 34 103<117.5 152.5> 153 98<394 424 394 436.5>
LayerCount: 2
Fore
SplineSet
285 115 m 1
 218 236 l 1
 187 221 137 182 137 130 c 0
 137 105 153 79 197 79 c 0
 228 79 260 92 285 115 c 1
326 37 m 1
 298 19 256 -15 177 -15 c 0
 75 -15 34 48 34 109 c 0
 34 196 99 273 181 307 c 1
 181 309 l 1
 177 323 153 354 153 393 c 0
 153 480 243 543 338 543 c 0
 400 543 464 512 503 474 c 1
 432 405 l 1
 415 426 359 449 313 448 c 0
 283 447 251 438 251 410 c 0
 251 378 275 338 354 196 c 1
 375 222 406 293 416 316 c 1
 566 316 l 1
 547 222 l 1
 463 222 l 1
 442 191 424 142 398 113 c 1
 410 91 l 1
 543 91 l 1
 524 -3 l 1
 347 -3 l 1
 326 37 l 1
EndSplineSet
EndChar

StartChar: aring
Encoding: 296 229 74
Width: 600
Flags: HMW
HStem: -15 92<192.5 232.5> -3 91<480 541> 189 90<253 310> 345 91<339.5 367.5> 599 20G<393 416.5>
VStem: 40 96<102.5 119.5>
LayerCount: 2
Fore
SplineSet
400 152 m 1
 406 180 l 1
 377 182 339 189 281 189 c 0
 225 189 136 171 136 115 c 0
 136 90 174 77 211 77 c 0
 278 77 344 110 400 152 c 1
368 -3 m 1
 378 43 l 1
 315 8 272 -15 193 -15 c 0
 92 -15 40 43 40 100 c 0
 40 139 69 279 315 279 c 0
 351 279 390 276 425 272 c 1
 428 280 429 288 429 295 c 0
 429 329 392 345 343 345 c 0
 268 345 168 323 141 306 c 1
 121 385 l 1
 179 408 293 436 386 436 c 0
 455 436 524 406 524 338 c 0
 524 310 519 279 513 250 c 2
 480 88 l 1
 559 88 l 1
 541 -3 l 1
 368 -3 l 1
353 566 m 0
 353 551 369 540 389 540 c 0
 416 540 443 562 443 587 c 0
 443 605 427 619 406 619 c 0
 380 619 353 594 353 566 c 0
285 560 m 0
 285 623 352 678 418 678 c 0
 472 678 510 642 510 596 c 0
 510 533 441 480 375 480 c 0
 322 480 285 515 285 560 c 0
EndSplineSet
EndChar

StartChar: arrowboth
Encoding: 297 8596 75
Width: 600
Flags: HMW
HStem: 270 68<471 471>
VStem: -24 648<297 301>
LayerCount: 2
Fore
SplineSet
111 143 m 1
 -24 301 l 1
 186 455 l 1
 224 392 l 1
 142 338 l 1
 485 338 l 1
 427 403 l 1
 489 455 l 1
 624 297 l 1
 414 143 l 1
 376 206 l 1
 471 270 l 1
 106 271 l 1
 173 195 l 1
 111 143 l 1
EndSplineSet
EndChar

StartChar: arrowdown
Encoding: 298 8595 76
Width: 600
Flags: HMW
HStem: -5 21G<257 257> 578 20G<377 377>
LayerCount: 2
Fore
SplineSet
257 -5 m 1
 140 165 l 1
 206 212 l 1
 255 139 l 1
 377 598 l 1
 448 589 l 1
 326 135 l 1
 409 210 l 1
 460 157 l 1
 257 -5 l 1
EndSplineSet
EndChar

StartChar: arrowleft
Encoding: 299 8592 77
Width: 600
Flags: HMW
HStem: 261 70<120 624 105 634>
VStem: -34 658<261 301>
LayerCount: 2
Fore
SplineSet
101 143 m 1
 -34 301 l 1
 176 455 l 1
 214 392 l 1
 120 331 l 1
 634 331 l 1
 624 261 l 1
 105 261 l 1
 163 195 l 1
 101 143 l 1
EndSplineSet
EndChar

StartChar: arrowright
Encoding: 300 8594 78
Width: 600
Flags: HMW
HStem: 267 70<-34 495 -24 480>
VStem: -34 668<267 297>
LayerCount: 2
Fore
SplineSet
-34 267 m 1
 -24 337 l 1
 495 337 l 1
 437 403 l 1
 499 455 l 1
 634 297 l 1
 424 143 l 1
 386 206 l 1
 480 267 l 1
 -34 267 l 1
EndSplineSet
EndChar

StartChar: arrowup
Encoding: 301 8593 79
Width: 600
Flags: HMW
HStem: 22 423<153 460>
VStem: 153 70<13 22>
LayerCount: 2
Fore
SplineSet
153 22 m 1
 274 475 l 1
 191 400 l 1
 140 453 l 1
 343 616 l 1
 460 445 l 1
 394 398 l 1
 345 471 l 1
 223 13 l 1
 153 22 l 1
EndSplineSet
EndChar

StartChar: asciicircum
Encoding: 94 94 80
Width: 600
Flags: HMW
HStem: 251 365<319 484>
VStem: 108 376<250 251>
LayerCount: 2
Fore
SplineSet
108 250 m 1
 116 314 l 1
 218 418 271 487 319 616 c 1
 366 616 l 1
 385 480 418 425 492 315 c 1
 484 251 l 1
 419 288 367 364 325 445 c 1
 262 368 184 288 108 250 c 1
EndSplineSet
EndChar

StartChar: asciitilde
Encoding: 126 126 81
Width: 600
Flags: HMW
HStem: 153 21G<120 120> 166 103 236 104<192.5 220.5> 336 20G<483 483>
VStem: 65 469<219 294>
LayerCount: 2
Fore
SplineSet
120 153 m 1
 65 219 l 1
 107 273 157 340 228 340 c 0
 254 340 285 320 317 303 c 0
 341 290 365 279 388 279 c 0
 430 279 468 334 483 356 c 1
 534 294 l 1
 483 210 412 176 369 176 c 0
 344 176 318 186 294 198 c 0
 259 215 228 236 213 236 c 0
 172 236 144 185 120 153 c 1
EndSplineSet
EndChar

StartChar: asterisk
Encoding: 42 42 82
Width: 600
Flags: HMW
VStem: 186 101
LayerCount: 2
Fore
SplineSet
186 219 m 1
 114 279 l 1
 221 384 l 1
 91 417 l 1
 145 517 l 1
 264 468 l 1
 283 601 l 1
 394 601 l 1
 357 464 l 1
 494 517 l 1
 509 418 l 1
 377 384 l 1
 434 280 l 1
 337 220 l 1
 287 334 l 1
 186 219 l 1
EndSplineSet
EndChar

StartChar: at
Encoding: 64 64 83
Width: 600
Flags: HMW
HStem: -18 72<183.5 281 183.5 300.5> 125 73<231.5 234.5 398 430> 365 74 510 69<280.5 401.5>
VStem: 6 86<174.5 258 174.5 324.5> 151 71<212 246.5> 510 80<333.5 415>
LayerCount: 2
Fore
SplineSet
344 333 m 0
 345 342 348 365 324 365 c 0
 292 365 222 276 222 218 c 0
 222 206 226 198 237 198 c 0
 297 198 338 306 344 333 c 0
315 167 m 1
 287 142 251 125 218 125 c 0
 189 125 151 143 151 201 c 0
 151 292 243 429 345 429 c 0
 359 429 372 429 391 405 c 1
 400 423 l 1
 469 423 l 1
 382 243 l 2
 379 237 378 233 377 228 c 0
 373 204 391 198 405 198 c 0
 455 198 510 293 510 374 c 0
 510 456 453 510 350 510 c 0
 167 510 92 303 92 213 c 0
 92 136 124 54 243 54 c 0
 319 54 387 77 476 132 c 1
 490 64 l 1
 448 39 364 -18 237 -18 c 0
 49 -18 6 107 6 212 c 0
 6 437 197 579 364 579 c 0
 488 579 590 513 590 383 c 0
 590 261 491 125 383 125 c 0
 365 125 331 134 315 167 c 1
EndSplineSet
EndChar

StartChar: atilde
Encoding: 302 227 84
Width: 600
Flags: HMW
HStem: -15 92<162.5 202.5> -3 91<450 511> 189 90<223 280> 345 91<309.5 337.5> 554 20G<430 453> 616 20G<508 508>
VStem: 10 96<102.5 119.5>
LayerCount: 2
Fore
SplineSet
370 152 m 1
 376 180 l 1
 347 182 309 189 251 189 c 0
 195 189 106 171 106 115 c 0
 106 90 144 77 181 77 c 0
 248 77 314 110 370 152 c 1
338 -3 m 1
 348 43 l 1
 285 8 242 -15 163 -15 c 0
 62 -15 10 43 10 100 c 0
 10 139 39 279 285 279 c 0
 321 279 360 276 395 272 c 1
 398 280 399 288 399 295 c 0
 399 329 362 345 313 345 c 0
 238 345 138 323 111 306 c 1
 91 385 l 1
 149 408 263 436 356 436 c 0
 425 436 494 406 494 338 c 0
 494 310 489 279 483 250 c 2
 450 88 l 1
 529 88 l 1
 511 -3 l 1
 338 -3 l 1
126 513 m 1
 151 556 198 634 296 634 c 0
 328 634 356 612 384 595 c 0
 403 583 421 574 439 574 c 0
 467 574 481 595 508 636 c 1
 590 612 l 1
 572 578 520 490 419 490 c 0
 394 490 366 506 339 521 c 0
 308 539 278 556 254 543 c 0
 230 530 221 507 206 487 c 1
 126 513 l 1
EndSplineSet
EndChar

StartChar: b
Encoding: 98 98 85
Width: 600
Flags: HMW
HStem: -15 93<311 374.5 311 425> -3 94<-11 90 9 90 9 168> 356 94<383 435.5> 532 94<116 179 97 297>
VStem: 512 100<195 263.5>
LayerCount: 2
Fore
SplineSet
208 191 m 0
 208 104 291 78 331 78 c 0
 418 78 512 152 512 238 c 0
 512 289 482 356 389 356 c 0
 268 356 208 282 208 191 c 0
-11 -3 m 1
 9 91 l 1
 90 91 l 1
 179 532 l 1
 97 532 l 1
 116 626 l 1
 297 626 l 1
 252 409 l 1
 300 443 355 450 411 450 c 0
 539 450 612 359 612 255 c 0
 612 117 524 -15 326 -15 c 0
 250 -15 211 18 177 45 c 1
 168 -3 l 1
 -11 -3 l 1
EndSplineSet
EndChar

StartChar: backslash
Encoding: 92 92 86
Width: 600
Flags: HMW
HStem: -137 763<237 362>
VStem: 163 273
LayerCount: 2
Fore
SplineSet
362 -137 m 1
 163 597 l 1
 237 626 l 1
 436 -108 l 1
 362 -137 l 1
EndSplineSet
EndChar

StartChar: bar
Encoding: 124 124 87
Width: 600
Flags: HMW
HStem: -244 21G<134 134 134 222> 736 20G<378 466 466 466>
VStem: 134 88<-244 -244>
LayerCount: 2
Fore
SplineSet
134 -244 m 1
 378 756 l 1
 466 756 l 1
 222 -244 l 1
 134 -244 l 1
EndSplineSet
EndChar

StartChar: braceleft
Encoding: 123 123 88
Width: 600
Flags: HMW
VStem: 160 81
LayerCount: 2
Fore
SplineSet
74 221 m 1
 91 315 l 1
 202 331 222 396 243 504 c 2
 265 621 l 2
 273 668 309 726 366 746 c 0
 418 764 476 764 525 764 c 1
 506 671 l 1
 467 671 431 671 392 661 c 0
 368 655 357 629 353 606 c 2
 325 458 l 2
 312 386 262 304 193 269 c 1
 233 243 256 187 256 147 c 0
 256 142 256 134 255 122 c 0
 254 111 244 47 225 -70 c 0
 221 -93 223 -118 244 -125 c 0
 276 -135 316 -135 355 -135 c 1
 337 -228 l 1
 288 -228 228 -228 185 -210 c 0
 135 -189 123 -132 131 -85 c 0
 154 48 165 118 165 124 c 0
 165 166 155 209 74 221 c 1
EndSplineSet
EndChar

StartChar: braceright
Encoding: 125 125 89
Width: 600
Flags: HMW
VStem: 366 79
LayerCount: 2
Fore
SplineSet
74 -228 m 1
 93 -135 l 1
 132 -135 168 -135 207 -125 c 0
 231 -119 242 -93 246 -70 c 2
 274 78 l 2
 287 150 337 232 406 267 c 1
 366 293 343 349 343 389 c 0
 343 394 343 402 344 413 c 0
 345 425 355 489 374 606 c 0
 378 629 376 654 355 661 c 0
 323 671 283 671 244 671 c 1
 262 764 l 1
 311 764 371 764 414 746 c 0
 464 725 476 668 468 621 c 0
 445 488 434 418 434 412 c 0
 434 370 444 327 525 315 c 1
 508 221 l 1
 397 205 377 140 356 32 c 2
 334 -85 l 2
 326 -132 290 -190 233 -210 c 0
 181 -228 123 -228 74 -228 c 1
EndSplineSet
EndChar

StartChar: bracketleft
Encoding: 91 91 90
Width: 600
Flags: HMW
HStem: -102 92<225 340> 524 92<338 472 338 338>
LayerCount: 2
Fore
SplineSet
108 -102 m 1
 259 616 l 1
 491 616 l 1
 472 524 l 1
 338 524 l 1
 225 -10 l 1
 360 -10 l 1
 340 -102 l 1
 108 -102 l 1
EndSplineSet
EndChar

StartChar: bracketright
Encoding: 93 93 91
Width: 600
Flags: HMW
HStem: -102 92<127 260 127 339 108 260> 524 92<259 374 239 491>
LayerCount: 2
Fore
SplineSet
127 -10 m 1
 260 -10 l 1
 374 524 l 1
 239 524 l 1
 259 616 l 1
 491 616 l 1
 339 -102 l 1
 108 -102 l 1
 127 -10 l 1
EndSplineSet
EndChar

StartChar: breve
Encoding: 198 728 92
Width: 600
Flags: HMW
HStem: 468 74<245.5 298.5 245.5 348.5>
LayerCount: 2
Fore
SplineSet
84 631 m 1
 179 631 l 1
 180 595 206 542 285 542 c 0
 312 542 386 553 425 631 c 1
 517 631 l 1
 499 581 427 468 270 468 c 0
 128 468 84 560 84 631 c 1
EndSplineSet
EndChar

StartChar: brokenbar
Encoding: 303 166 93
Width: 600
Flags: HMW
HStem: -175 21G<165 165 165 224> 655 20G<376 435 435 435>
VStem: 165 59<-175 -175> 376 59<675 675>
LayerCount: 2
Fore
SplineSet
165 -175 m 1
 263 215 l 1
 322 215 l 1
 224 -175 l 1
 165 -175 l 1
280 284 m 1
 376 675 l 1
 435 675 l 1
 339 284 l 1
 280 284 l 1
EndSplineSet
EndChar

StartChar: bullet
Encoding: 183 8226 94
Width: 600
Flags: HMW
HStem: 132 298<279 315>
VStem: 137 325<260 297.5>
LayerCount: 2
Fore
SplineSet
137 248 m 0
 137 347 227 430 331 430 c 0
 410 430 462 378 462 308 c 0
 462 212 364 132 266 132 c 0
 189 132 137 181 137 248 c 0
EndSplineSet
EndChar

StartChar: c
Encoding: 99 99 95
Width: 600
Flags: HMW
HStem: -15 95<247.5 308.5> 364 95<288.5 369>
VStem: 35 103<154 240.5 154 242>
LayerCount: 2
Fore
SplineSet
501 154 m 1
 544 81 l 1
 460 25 359 -15 258 -15 c 0
 140 -15 35 52 35 172 c 0
 35 312 160 459 368 459 c 0
 409 459 447 453 481 440 c 1
 486 459 l 1
 585 459 l 1
 541 247 l 1
 441 247 l 1
 461 338 l 1
 429 353 389 364 349 364 c 0
 228 364 138 290 138 191 c 0
 138 117 209 80 286 80 c 0
 369 80 432 113 501 154 c 1
EndSplineSet
EndChar

StartChar: caron
Encoding: 207 711 96
Width: 600
Flags: HMW
VStem: 229 91<493 493>
LayerCount: 2
Fore
SplineSet
229 493 m 1
 103 632 l 1
 167 667 l 1
 287 565 l 1
 449 667 l 1
 497 631 l 1
 320 493 l 1
 229 493 l 1
EndSplineSet
EndChar

StartChar: ccedilla
Encoding: 304 231 97
Width: 600
Flags: HMW
HStem: -206 21G<205.5 258> -10 93<221 316.5> 365 94<277 359>
VStem: 25 102<154.5 239.5 154.5 244.5>
LayerCount: 2
Fore
SplineSet
143 -178 m 1
 186 -120 l 1
 194 -128 210 -134 226 -134 c 0
 244 -134 262 -126 262 -111 c 0
 262 -97 252 -93 241 -93 c 0
 224 -93 204 -99 194 -100 c 1
 221 -10 l 1
 114 -1 25 64 25 176 c 0
 25 313 151 459 357 459 c 0
 398 459 437 453 471 440 c 1
 475 459 l 1
 575 459 l 1
 530 249 l 1
 430 249 l 1
 450 339 l 1
 419 355 380 365 338 365 c 0
 216 365 127 289 127 190 c 0
 127 119 199 83 275 83 c 0
 358 83 421 115 490 157 c 1
 533 84 l 1
 465 40 386 6 304 -7 c 1
 300 -24 l 1
 341 -34 347 -67 347 -93 c 0
 347 -151 294 -206 222 -206 c 0
 189 -206 162 -194 143 -178 c 1
EndSplineSet
EndChar

StartChar: cedilla
Encoding: 203 184 98
Width: 600
Flags: HMW
HStem: -206 70<270.5 288 270.5 310.5> -95 95<292.5 306>
VStem: 282 78<0 0>
LayerCount: 2
Fore
SplineSet
201 -178 m 1
 245 -122 l 1
 252 -130 264 -136 277 -136 c 0
 299 -136 318 -129 318 -110 c 0
 318 -100 311 -95 301 -95 c 0
 284 -95 259 -101 250 -103 c 1
 282 0 l 1
 360 0 l 1
 356 -26 l 1
 367 -30 399 -45 399 -90 c 0
 399 -153 344 -206 277 -206 c 0
 247 -206 223 -196 201 -178 c 1
EndSplineSet
EndChar

StartChar: cent
Encoding: 162 162 99
Width: 600
Flags: HMW
HStem: -49 21G<175 175 175 273> 312 186<445 503 406 541> 594 20G<310 407 407 407>
VStem: 58 101<238.5 294.5 238.5 296.5>
LayerCount: 2
Fore
SplineSet
175 -49 m 1
 203 89 l 1
 161 101 58 130 58 238 c 0
 58 355 140 451 283 482 c 1
 310 614 l 1
 407 614 l 1
 380 481 l 1
 399 478 420 473 439 467 c 1
 445 498 l 1
 541 498 l 1
 503 312 l 1
 406 312 l 1
 421 378 l 1
 392 393 357 404 321 404 c 0
 230 404 159 332 159 257 c 0
 159 220 180 166 268 166 c 0
 334 166 382 191 466 234 c 1
 497 162 l 1
 434 123 369 98 299 88 c 1
 273 -49 l 1
 175 -49 l 1
EndSplineSet
EndChar

StartChar: circumflex
Encoding: 195 710 100
Width: 600
Flags: HMW
VStem: 283 92<657 657>
LayerCount: 2
Fore
SplineSet
153 483 m 1
 103 518 l 1
 283 657 l 1
 375 657 l 1
 497 517 l 1
 434 483 l 1
 316 586 l 1
 153 483 l 1
EndSplineSet
EndChar

StartChar: colon
Encoding: 58 58 101
Width: 600
Flags: HMW
HStem: -15 173<259.5 287.5> 252 173<313.5 346>
LayerCount: 2
Fore
SplineSet
163 54 m 0
 163 107 227 158 292 158 c 0
 355 158 382 123 382 87 c 0
 382 82 382 76 381 71 c 0
 370 25 318 -15 257 -15 c 0
 188 -15 163 25 163 54 c 0
219 320 m 0
 219 372 280 425 347 425 c 0
 405 425 436 395 436 362 c 0
 436 301 380 252 312 252 c 0
 243 252 219 291 219 320 c 0
EndSplineSet
EndChar

StartChar: comma
Encoding: 44 44 102
Width: 600
Flags: HMW
HStem: -111 289<134 465 134 465>
VStem: 134 127<-111 -111> 294 171<178 178>
LayerCount: 2
Fore
SplineSet
134 -111 m 1
 294 178 l 1
 465 178 l 1
 261 -111 l 1
 134 -111 l 1
EndSplineSet
EndChar

StartChar: copyright
Encoding: 305 169 103
Width: 600
Flags: HMW
HStem: -18 45<188.5 331.5 188.5 355> 121 46<260.5 311 260.5 318.5> 415 46<303.5 356.5> 535 45<272 413.5>
VStem: -7 46<175.5 314.5 175.5 330.5> 149 46<268 305.5 268 317.5> 560 47<248 384>
LayerCount: 2
Fore
SplineSet
400 214 m 1
 431 176 l 1
 411 157 351 121 286 121 c 0
 197 121 149 186 149 259 c 0
 149 376 254 461 350 461 c 0
 396 461 438 439 463 409 c 1
 428 377 l 1
 410 398 374 415 339 415 c 0
 268 415 195 343 195 268 c 0
 196 212 230 167 291 167 c 0
 331 167 372 189 400 214 c 1
39 234 m 0
 39 117 126 27 251 27 c 0
 412 27 560 166 560 324 c 0
 560 444 477 535 350 535 c 0
 194 535 39 395 39 234 c 0
-7 217 m 0
 -7 444 176 580 361 580 c 0
 505 580 607 475 607 338 c 0
 607 158 469 -18 241 -18 c 0
 100 -18 -7 85 -7 217 c 0
EndSplineSet
EndChar

StartChar: currency
Encoding: 168 164 104
Width: 600
Flags: HMW
HStem: 49 21G<68 68 441 441> 67 89<243 284.5> 410 88<318.5 358> 497 20G<161 161 538 538>
VStem: 76 92<232 274> 434 92<293.5 334.5>
LayerCount: 2
Fore
SplineSet
168 262 m 0
 168 202 211 156 275 156 c 0
 353 156 434 225 434 305 c 0
 434 364 390 410 326 410 c 0
 249 410 168 341 168 262 c 0
17 106 m 1
 93 165 l 1
 80 190 76 217 76 246 c 0
 76 302 103 360 139 400 c 1
 89 458 l 1
 161 517 l 1
 210 460 l 1
 246 484 295 498 342 498 c 0
 387 498 431 486 463 458 c 1
 538 517 l 1
 583 460 l 1
 509 402 l 1
 521 378 526 350 526 322 c 0
 526 265 500 205 461 166 c 1
 512 108 l 1
 441 49 l 1
 390 107 l 1
 354 82 307 67 262 67 c 0
 216 67 172 78 139 106 c 1
 68 49 l 1
 17 106 l 1
EndSplineSet
EndChar

StartChar: d
Encoding: 100 100 105
Width: 600
Flags: HMW
HStem: -15 94<208.5 255> -3 94<496 556> 326 94 532 94<378 485 360 601>
VStem: 18 100<150 228.5 150 233>
LayerCount: 2
Fore
SplineSet
118 183 m 0
 118 117 173 79 244 79 c 0
 288 79 426 117 426 249 c 0
 426 306 379 341 301 341 c 0
 206 341 118 274 118 183 c 0
378 -3 m 1
 388 43 l 1
 341 11 282 -15 228 -15 c 0
 101 -15 18 58 18 161 c 0
 18 305 155 435 313 435 c 0
 369 435 425 429 458 396 c 1
 485 532 l 1
 360 532 l 1
 378 626 l 1
 601 626 l 1
 496 91 l 1
 575 91 l 1
 556 -3 l 1
 378 -3 l 1
EndSplineSet
EndChar

StartChar: dagger
Encoding: 178 8224 106
Width: 600
Flags: HMW
HStem: 315 98<114 240 95 260 114 340 359 486> 560 20G<294 393 393 393>
VStem: 166 99<-70 -70>
LayerCount: 2
Fore
SplineSet
166 -70 m 1
 240 315 l 1
 95 315 l 1
 114 413 l 1
 260 413 l 1
 294 580 l 1
 393 580 l 1
 359 413 l 1
 505 413 l 1
 486 315 l 1
 340 315 l 1
 265 -70 l 1
 166 -70 l 1
EndSplineSet
EndChar

StartChar: daggerdbl
Encoding: 179 8225 107
Width: 600
Flags: HMW
HStem: 112 99 328 97<132 262 112 282 132 364 384 512> 560 20G<317 414 414 414>
VStem: 183 101<-70 -70>
LayerCount: 2
Fore
SplineSet
68 122 m 1
 88 221 l 1
 242 221 l 1
 262 328 l 1
 112 328 l 1
 132 425 l 1
 282 425 l 1
 317 580 l 1
 414 580 l 1
 384 425 l 1
 532 425 l 1
 512 328 l 1
 364 328 l 1
 340 221 l 1
 488 221 l 1
 468 122 l 1
 320 122 l 1
 284 -70 l 1
 183 -70 l 1
 222 122 l 1
 68 122 l 1
EndSplineSet
EndChar

StartChar: degree
Encoding: 306 176 108
Width: 600
Flags: HMW
HStem: 243 91<257.5 313 257.5 333.5> 525 91<287 346>
VStem: 102 98<386.5 439.5 386.5 453.5> 402 96<416.5 469.5>
LayerCount: 2
Fore
SplineSet
200 407 m 0
 200 366 233 334 282 334 c 0
 344 334 402 386 402 447 c 0
 402 492 372 525 320 525 c 0
 254 525 200 472 200 407 c 0
102 385 m 0
 102 522 221 616 339 616 c 0
 433 616 498 556 498 469 c 0
 498 348 404 243 263 243 c 0
 170 243 102 303 102 385 c 0
EndSplineSet
EndChar

StartChar: dieresis
Encoding: 200 168 109
Width: 600
Flags: HMW
HStem: 485 140<126 275 152 248 152 325 352 448>
VStem: 126 122<485 485> 325 123<485 485>
LayerCount: 2
Fore
SplineSet
126 485 m 1
 152 625 l 1
 275 625 l 1
 248 485 l 1
 126 485 l 1
325 485 m 1
 352 625 l 1
 474 625 l 1
 448 485 l 1
 325 485 l 1
EndSplineSet
EndChar

StartChar: divide
Encoding: 307 247 110
Width: 600
Flags: HMW
HStem: 16 151<255.5 274> 203 110<59 541 78 522> 349 151<336.5 355>
VStem: 195 143<81.5 97> 276 143<414.5 430>
CounterMasks: 1 e0
LayerCount: 2
Fore
SplineSet
195 72 m 0
 195 122 231 167 280 167 c 0
 313 167 338 153 338 105 c 0
 338 58 296 16 252 16 c 0
 218 16 195 40 195 72 c 0
59 203 m 1
 78 313 l 1
 541 313 l 1
 522 203 l 1
 59 203 l 1
276 405 m 0
 276 455 312 500 361 500 c 0
 394 500 419 486 419 438 c 0
 419 391 377 349 333 349 c 0
 299 349 276 373 276 405 c 0
EndSplineSet
EndChar

StartChar: dollar
Encoding: 36 36 111
Width: 600
Flags: HMW
HStem: -126 21G<172 273 172 172> -10 182<29 167 66 130> 397 181<471 533 434 571> 471 94<315 359.5> 471 195<335 359.5>
VStem: 112 106<384 434 381 446.5> 404 101<145.5 198.5>
LayerCount: 2
Fore
SplineSet
29 -10 m 1
 66 172 l 1
 167 172 l 1
 159 145 l 1
 190 122 224 114 262 114 c 0
 290 114 404 119 404 172 c 0
 404 225 329 234 291 244 c 0
 187 274 111 305 112 384 c 0
 112 509 236 564 315 565 c 1
 335 666 l 1
 438 666 l 1
 416 564 l 1
 434 561 452 556 463 537 c 1
 471 578 l 1
 571 578 l 1
 533 397 l 1
 434 397 l 1
 442 436 l 1
 404 462 378 471 341 471 c 0
 303 471 218 468 218 400 c 0
 218 362 290 342 325 333 c 0
 415 307 505 285 505 206 c 0
 505 67 377 19 303 18 c 1
 273 -126 l 1
 172 -126 l 1
 201 19 l 1
 180 19 155 25 138 41 c 1
 130 -10 l 1
 29 -10 l 1
EndSplineSet
EndChar

StartChar: dotaccent
Encoding: 199 729 112
Width: 600
Flags: HMW
HStem: 485 140<228 372 255 345>
VStem: 228 117<485 485>
LayerCount: 2
Fore
SplineSet
228 485 m 1
 255 625 l 1
 372 625 l 1
 345 485 l 1
 228 485 l 1
EndSplineSet
EndChar

StartChar: dotlessi
Encoding: 245 305 113
Width: 600
Flags: HMW
HStem: 0 94<66 260 85 260 359 515> 345 94<193 311 173 429>
VStem: 66 449<0 0>
LayerCount: 2
Fore
SplineSet
66 0 m 1
 85 94 l 1
 260 94 l 1
 311 345 l 1
 173 345 l 1
 193 439 l 1
 429 439 l 1
 359 94 l 1
 534 94 l 1
 515 0 l 1
 66 0 l 1
EndSplineSet
EndChar

StartChar: e
Encoding: 101 101 114
Width: 600
Flags: HMW
HStem: -15 95<230.5 320> 165 96<146 465> 358 96<313 375>
VStem: 465 95<261 261>
LayerCount: 2
Fore
SplineSet
174 261 m 1
 465 261 l 1
 464 327 407 358 343 358 c 0
 283 358 205 331 174 261 c 1
146 180 m 1
 146 165 l 2
 145 130 168 80 293 80 c 0
 370 80 436 98 507 135 c 1
 537 56 l 1
 458 17 366 -15 274 -15 c 0
 118 -15 38 67 38 168 c 0
 38 368 219 454 353 454 c 0
 473 454 560 377 560 272 c 0
 560 243 551 201 545 180 c 1
 146 180 l 1
EndSplineSet
EndChar

StartChar: eacute
Encoding: 308 233 115
Width: 600
Flags: HMW
HStem: -15 91<215.5 305.5> 158 91<141 466 157 466 157 538> 343 91<294.5 356.5> 641 20G<543 543>
VStem: 466 93<249 265>
LayerCount: 2
Fore
SplineSet
157 249 m 1
 466 249 l 1
 465 314 388 343 325 343 c 0
 264 343 190 306 157 249 c 1
141 158 m 1
 145 122 154 76 277 76 c 0
 353 76 432 99 503 129 c 1
 520 49 l 1
 438 7 353 -15 258 -15 c 0
 108 -15 36 64 36 161 c 0
 36 335 218 434 349 434 c 0
 466 434 557 364 559 265 c 0
 559 235 547 182 538 158 c 1
 141 158 l 1
238 482 m 1
 228 541 l 1
 543 661 l 1
 563 560 l 1
 238 482 l 1
EndSplineSet
EndChar

StartChar: ecircumflex
Encoding: 309 234 116
Width: 600
Flags: HMW
HStem: -15 91<215.5 305.5> 158 91<141 466 157 466 157 538> 343 91<294.5 356.5> 637 20G<337 434 434 434>
VStem: 466 93<249 265>
LayerCount: 2
Fore
SplineSet
157 249 m 1
 466 249 l 1
 465 314 388 343 325 343 c 0
 264 343 190 306 157 249 c 1
141 158 m 1
 145 122 154 76 277 76 c 0
 353 76 432 99 503 129 c 1
 520 49 l 1
 438 7 353 -15 258 -15 c 0
 108 -15 37 64 37 161 c 0
 37 335 218 434 349 434 c 0
 466 434 557 364 559 265 c 0
 559 235 547 182 538 158 c 1
 141 158 l 1
200 479 m 1
 147 514 l 1
 337 657 l 1
 434 657 l 1
 562 513 l 1
 497 479 l 1
 372 584 l 1
 200 479 l 1
EndSplineSet
EndChar

StartChar: edieresis
Encoding: 310 235 117
Width: 600
Flags: HMW
HStem: -15 91<215.5 305.5> 158 91<141 466 157 466 157 538> 343 91<294.5 356.5> 501 124<216 353 240 328 240 401 426 514>
VStem: 466 93<249 265>
LayerCount: 2
Fore
SplineSet
157 249 m 1
 466 249 l 1
 465 314 388 343 325 343 c 0
 264 343 190 306 157 249 c 1
141 158 m 1
 145 122 154 76 277 76 c 0
 353 76 432 99 503 129 c 1
 520 49 l 1
 438 7 353 -15 258 -15 c 0
 108 -15 36 64 36 161 c 0
 36 335 218 434 349 434 c 0
 466 434 557 364 559 265 c 0
 559 235 547 182 538 158 c 1
 141 158 l 1
216 501 m 1
 240 625 l 1
 353 625 l 1
 328 501 l 1
 216 501 l 1
401 501 m 1
 426 625 l 1
 540 625 l 1
 514 501 l 1
 401 501 l 1
EndSplineSet
EndChar

StartChar: egrave
Encoding: 311 232 118
Width: 600
Flags: HMW
HStem: -15 91<215.5 305.5> 158 91<141 466 157 466 157 538> 343 91<294.5 356.5> 641 20G<282 282>
VStem: 466 93<249 265>
LayerCount: 2
Fore
SplineSet
157 249 m 1
 466 249 l 1
 465 314 388 343 325 343 c 0
 264 343 190 306 157 249 c 1
141 158 m 1
 145 122 154 76 277 76 c 0
 353 76 432 99 503 129 c 1
 513 48 l 1
 431 6 353 -15 258 -15 c 0
 108 -15 36 64 36 161 c 0
 36 335 218 434 349 434 c 0
 466 434 557 364 559 265 c 0
 559 235 547 182 538 158 c 1
 141 158 l 1
218 559 m 1
 282 661 l 1
 557 540 l 1
 521 482 l 1
 218 559 l 1
EndSplineSet
EndChar

StartChar: eight
Encoding: 56 56 119
Width: 600
Flags: HMW
HStem: -15 92<234.5 298.5 234.5 328.5> 258 95<293.5 332.5> 523 93<314.5 387>
VStem: 55 101<133.5 163> 127 98<397 446 397 467> 402 96 445 99<443.5 454>
LayerCount: 2
Fore
SplineSet
156 154 m 0
 156 113 201 77 268 77 c 0
 329 77 402 122 402 191 c 0
 399 227 368 258 297 258 c 0
 229 258 156 215 156 154 c 0
225 417 m 0
 225 377 268 353 319 353 c 0
 377 353 445 390 445 454 c 0
 446 487 424 523 350 523 c 0
 279 523 225 475 225 417 c 0
179 309 m 1
 144 338 127 374 127 416 c 0
 127 518 234 616 370 616 c 0
 474 616 544 560 544 480 c 0
 544 407 502 347 440 310 c 1
 483 278 499 238 498 187 c 0
 497 99 413 -15 244 -15 c 0
 156 -15 55 29 55 124 c 0
 55 202 110 268 179 309 c 1
EndSplineSet
EndChar

StartChar: ellipsis
Encoding: 188 8230 120
Width: 600
Flags: HMW
HStem: -15 131<80.5 108.5 284.5 312.5 490.5 518.5>
VStem: 24 141<43.5 54> 228 141<43.5 54> 434 141<43.5 54>
LayerCount: 2
Fore
SplineSet
228 36 m 0
 228 72 257 116 312 116 c 0
 352 116 369 91 369 62 c 0
 369 25 336 -15 289 -15 c 0
 251 -15 228 10 228 36 c 0
434 36 m 0
 434 72 463 116 518 116 c 0
 558 116 575 91 575 62 c 0
 575 25 542 -15 495 -15 c 0
 457 -15 434 10 434 36 c 0
24 36 m 0
 24 72 53 116 108 116 c 0
 148 116 165 90 165 62 c 0
 165 25 132 -15 85 -15 c 0
 47 -15 24 10 24 36 c 0
EndSplineSet
EndChar

StartChar: emdash
Encoding: 208 8212 121
Width: 600
Flags: HMW
HStem: 203 100<-22 622 -3 603>
VStem: -22 625<203 203>
LayerCount: 2
Fore
SplineSet
-22 203 m 1
 -3 303 l 1
 622 303 l 1
 603 203 l 1
 -22 203 l 1
EndSplineSet
EndChar

StartChar: endash
Encoding: 177 8211 122
Width: 600
Flags: HMW
HStem: 203 100<53 547 72 528>
VStem: 53 475<203 203>
LayerCount: 2
Fore
SplineSet
53 203 m 1
 72 303 l 1
 547 303 l 1
 528 203 l 1
 53 203 l 1
EndSplineSet
EndChar

StartChar: equal
Encoding: 61 61 123
Width: 600
Flags: HMW
HStem: 118 103<41 525 60 505> 295 103<75 559 95 540>
VStem: 41 464<118 118>
LayerCount: 2
Fore
SplineSet
41 118 m 1
 60 221 l 1
 525 221 l 1
 505 118 l 1
 41 118 l 1
75 295 m 1
 95 398 l 1
 559 398 l 1
 540 295 l 1
 75 295 l 1
EndSplineSet
EndChar

StartChar: eth
Encoding: 312 240 124
Width: 600
Flags: HMW
HStem: -27 87<233.5 313 233.5 369> 317 86<283.5 379.5> 606 20G<558 558>
VStem: 16 108<123 211 123 218> 469 115<211.5 239>
LayerCount: 2
Fore
SplineSet
124 157 m 0
 124 89 195 60 272 60 c 0
 354 60 469 108 469 212 c 0
 469 266 431 317 328 317 c 0
 239 317 124 265 124 157 c 0
236 430 m 1
 210 473 l 1
 315 519 l 1
 282 533 233 553 195 560 c 1
 255 611 l 1
 298 603 374 575 405 557 c 1
 558 626 l 1
 581 573 l 1
 462 521 l 1
 502 495 584 422 584 298 c 0
 584 125 487 -27 251 -27 c 0
 90 -27 16 52 16 142 c 0
 16 294 152 403 352 403 c 0
 423 403 442 392 472 374 c 1
 471 378 442 443 373 484 c 1
 236 430 l 1
EndSplineSet
EndChar

StartChar: exclam
Encoding: 33 33 125
Width: 600
Flags: HMW
HStem: -15 154<240 276> 552 20G<301 439 439 439>
VStem: 160 201<52 69>
LayerCount: 2
Fore
SplineSet
160 47 m 0
 160 91 204 139 276 139 c 0
 329 139 361 112 361 80 c 0
 361 24 307 -15 245 -15 c 0
 212 -15 160 3 160 47 c 0
236 180 m 1
 301 572 l 1
 439 572 l 1
 335 180 l 1
 236 180 l 1
EndSplineSet
EndChar

StartChar: exclamdown
Encoding: 161 161 126
Width: 600
Flags: HMW
HStem: -146 21G<160 160 160 299> 293 156<324.5 358.5>
VStem: 239 201<357.5 384.5>
LayerCount: 2
Fore
SplineSet
160 -146 m 1
 264 252 l 1
 363 252 l 1
 299 -146 l 1
 160 -146 l 1
239 357 m 0
 239 412 294 449 355 449 c 0
 388 449 440 432 440 384 c 0
 440 331 395 293 322 293 c 0
 269 293 239 323 239 357 c 0
EndSplineSet
EndChar

StartChar: f
Encoding: 102 102 127
Width: 600
Flags: HMW
HStem: 0 94<43 169 63 169 273 480> 346 93<137 223 117 243 137 326 347 554> 534 91
VStem: 243 104<439 439>
LayerCount: 2
Fore
SplineSet
43 0 m 1
 63 94 l 1
 169 94 l 1
 223 346 l 1
 117 346 l 1
 137 439 l 1
 243 439 l 1
 250 467 l 2
 261 518 276 567 330 597 c 0
 367 616 405 624 456 625 c 0
 503 626 560 620 637 610 c 1
 599 517 l 1
 554 525 501 534 452 534 c 0
 372 534 364 513 347 439 c 1
 574 439 l 1
 554 346 l 1
 326 346 l 1
 273 94 l 1
 500 94 l 1
 480 0 l 1
 43 0 l 1
EndSplineSet
EndChar

StartChar: fi
Encoding: 174 64257 128
Width: 600
Flags: HW
LayerCount: 2
Fore
SplineSet
-15 0 m 1
 4 90 l 1
 102 90 l 1
 147 324 l 1
 49 324 l 1
 68 414 l 1
 166 414 l 1
 178 467 l 2
 208 605 330 608 440 603 c 1
 408 513 l 1
 374 516 288 531 274 476 c 2
 260 414 l 1
 359 414 l 1
 340 324 l 1
 241 324 l 1
 195 90 l 1
 294 90 l 1
 275 0 l 1
 -15 0 l 1
298 0 m 1
 317 90 l 1
 414 90 l 1
 459 324 l 1
 373 324 l 1
 392 414 l 1
 572 414 l 1
 507 90 l 1
 605 90 l 1
 586 0 l 1
 298 0 l 1
481 480 m 1
 510 626 l 1
 616 626 l 1
 587 480 l 1
 481 480 l 1
EndSplineSet
EndChar

StartChar: five
Encoding: 53 53 129
Width: 600
Flags: HMW
HStem: -15 92<228 308 228 328.5> 311 92<324.5 337> 508 93<266 553 266 266>
VStem: 419 100<174 240.5>
LayerCount: 2
Fore
SplineSet
28 36 m 1
 79 117 l 1
 135 95 195 77 261 77 c 0
 355 77 419 136 419 212 c 0
 419 269 369 311 305 311 c 0
 278 311 237 311 189 251 c 1
 123 277 l 1
 187 601 l 1
 572 601 l 1
 553 508 l 1
 266 508 l 1
 239 377 l 1
 261 397 308 403 341 403 c 0
 465 403 519 321 519 238 c 0
 519 107 416 -15 241 -15 c 0
 153 -15 62 22 28 36 c 1
EndSplineSet
EndChar

StartChar: fl
Encoding: 175 64258 130
Width: 600
Flags: HMW
HStem: 0 93<-15 103 4 103 196 278 318 417 510 591> 335 94<70 151 51 170 70 245 262 344> 529 93<417 448> 606 20G<481 616 616 616>
LayerCount: 2
Fore
SplineSet
-15 0 m 1
 4 93 l 1
 103 93 l 1
 151 335 l 1
 51 335 l 1
 70 429 l 1
 170 429 l 1
 181 482 l 2
 210 624 318 625 448 622 c 1
 417 529 l 1
 383 527 289 540 277 484 c 2
 262 429 l 1
 362 429 l 1
 344 335 l 1
 245 335 l 1
 196 93 l 1
 296 93 l 1
 278 0 l 1
 -15 0 l 1
299 0 m 1
 318 93 l 1
 417 93 l 1
 504 533 l 1
 462 533 l 1
 481 626 l 1
 616 626 l 1
 510 93 l 1
 610 93 l 1
 591 0 l 1
 299 0 l 1
EndSplineSet
EndChar

StartChar: florin
Encoding: 166 402 131
Width: 600
Flags: HMW
HStem: -131 95<65 93.5> 334 95<233 303 194 340 233 402 438 513> 522 94<534 560.5>
VStem: 303 99<334 334>
LayerCount: 2
Fore
SplineSet
2 -30 m 1
 25 -32 52 -36 78 -36 c 0
 137 -36 160 -25 190 52 c 2
 303 334 l 1
 194 334 l 1
 233 429 l 1
 340 429 l 1
 356 464 l 2
 400 569 472 616 596 616 c 0
 634 616 634 614 679 609 c 1
 625 515 l 1
 604 518 573 522 548 522 c 0
 493 522 469 498 438 429 c 1
 551 429 l 1
 513 334 l 1
 402 334 l 1
 267 0 l 2
 227 -102 134 -131 53 -131 c 0
 3 -131 -50 -126 -78 -123 c 1
 2 -30 l 1
EndSplineSet
EndChar

StartChar: four
Encoding: 52 52 132
Width: 600
Flags: HMW
HStem: 0 93<208 316 416 486 189 316> 168 93<194 334 194 433 452 518> 596 20G<417 525 525 525>
VStem: 316 100<93 93>
LayerCount: 2
Fore
SplineSet
194 261 m 1
 352 261 l 1
 400 494 l 1
 194 261 l 1
62 168 m 1
 80 248 l 1
 417 616 l 1
 525 616 l 1
 452 261 l 1
 538 261 l 1
 518 168 l 1
 433 168 l 1
 416 93 l 1
 506 93 l 1
 486 0 l 1
 189 0 l 1
 208 93 l 1
 316 93 l 1
 334 168 l 1
 62 168 l 1
EndSplineSet
EndChar

StartChar: fraction
Encoding: 164 8260 133
Width: 600
Flags: HMW
VStem: -42 685<-8 612>
LayerCount: 2
Fore
SplineSet
-42 -8 m 1
 579 661 l 1
 643 612 l 1
 19 -60 l 1
 -42 -8 l 1
EndSplineSet
EndChar

StartChar: g
Encoding: 103 103 134
Width: 600
Flags: HMW
HStem: -146 90<206 301.5 206 321> 39 88<224.5 266.5> 346 89<539 617 539 539> 365 89<265 344.5>
VStem: 38 98<196 266 196 278.5>
LayerCount: 2
Fore
SplineSet
136 226 m 0
 136 166 192 127 257 127 c 0
 352 127 426 173 426 261 c 0
 427 322 381 365 308 365 c 0
 222 365 136 306 136 226 c 0
45 -24 m 1
 81 -35 169 -56 243 -56 c 0
 360 -56 370 -23 390 72 c 1
 345 42 292 39 241 39 c 0
 113 39 38 111 38 211 c 0
 38 346 177 454 331 454 c 0
 382 454 426 432 459 403 c 1
 467 435 l 1
 636 435 l 1
 617 346 l 1
 539 346 l 1
 477 49 l 2
 456 -54 415 -146 227 -146 c 0
 153 -146 84 -132 4 -114 c 1
 45 -24 l 1
EndSplineSet
EndChar

StartChar: gcaron
Encoding: 313 487 135
Width: 600
Flags: HMW
HStem: -146 83<186 281.5 186 301> 25 81<204.5 246.5> 326 82<245 324.5>
VStem: 18 98<169.5 234 169.5 246>
LayerCount: 2
Fore
SplineSet
325 486 m 1
 192 633 l 1
 262 667 l 1
 386 561 l 1
 564 666 l 1
 616 630 l 1
 424 486 l 1
 325 486 l 1
116 197 m 0
 116 142 172 106 237 106 c 0
 332 106 406 148 406 230 c 0
 407 286 361 326 288 326 c 0
 202 326 116 271 116 197 c 0
25 -33 m 1
 61 -44 149 -63 223 -63 c 0
 340 -63 350 -32 370 55 c 1
 325 28 272 25 221 25 c 0
 93 25 18 91 18 184 c 0
 18 308 157 408 311 408 c 0
 362 408 406 388 439 361 c 1
 447 398 l 1
 616 398 l 1
 597 316 l 1
 519 316 l 1
 457 34 l 2
 436 -61 395 -146 207 -146 c 0
 133 -146 64 -133 -16 -116 c 1
 25 -33 l 1
EndSplineSet
EndChar

StartChar: germandbls
Encoding: 251 223 136
Width: 600
Flags: HMW
HStem: -15 94<362.5 412 362.5 423.5> -3 94<-3 99 16 99 16 174> 343 94<87 149 67 167> 543 83<356 422.5>
VStem: 285 98<319 342.5> 505 98<135 166>
LayerCount: 2
Fore
SplineSet
-3 -3 m 1
 16 91 l 1
 99 91 l 1
 149 343 l 1
 67 343 l 1
 87 437 l 1
 167 437 l 1
 172 459 l 2
 195 572 242 626 397 626 c 0
 568 626 588 578 588 503 c 0
 588 431 526 409 460 388 c 0
 432 379 383 360 383 336 c 0
 383 302 445 288 471 280 c 0
 534 259 603 234 603 171 c 0
 603 64 493 -15 354 -15 c 0
 299 -15 262 4 207 40 c 1
 276 109 l 1
 303 97 344 79 381 79 c 0
 443 79 505 118 505 152 c 0
 505 180 442 190 411 201 c 0
 347 225 285 248 285 308 c 0
 285 377 332 430 394 444 c 0
 417 449 492 469 492 501 c 0
 492 534 448 543 397 543 c 0
 315 543 281 531 265 447 c 2
 174 -3 l 1
 -3 -3 l 1
EndSplineSet
EndChar

StartChar: grave
Encoding: 193 96 137
Width: 600
Flags: HMW
VStem: 184 231<557 571>
LayerCount: 2
Fore
SplineSet
184 571 m 1
 227 661 l 1
 415 557 l 1
 391 508 l 1
 184 571 l 1
EndSplineSet
EndChar

StartChar: greater
Encoding: 62 62 138
Width: 600
Flags: HMW
HStem: 15 21G<54 54> 481 20G<145 145>
LayerCount: 2
Fore
SplineSet
54 15 m 1
 71 109 l 1
 445 257 l 1
 128 407 l 1
 145 501 l 1
 546 316 l 1
 525 198 l 1
 54 15 l 1
EndSplineSet
EndChar

StartChar: guillemotleft
Encoding: 171 171 139
Width: 600
Flags: HMW
HStem: 70 58<264 317> 386 60<264 317>
VStem: 58 113<263 263> 281 113<263 263>
LayerCount: 2
Fore
SplineSet
281 263 m 1
 487 446 l 1
 540 386 l 1
 394 263 l 1
 540 128 l 1
 487 70 l 1
 281 263 l 1
58 263 m 1
 264 446 l 1
 317 386 l 1
 171 263 l 1
 317 128 l 1
 264 70 l 1
 58 263 l 1
EndSplineSet
EndChar

StartChar: guillemotright
Encoding: 187 187 140
Width: 600
Flags: HMW
HStem: 70 21G<94 94 292 292> 426 20G<158 158 358 358>
VStem: 242 118<256 257> 429 113<256 257>
LayerCount: 2
Fore
SplineSet
257 133 m 1
 429 257 l 1
 302 384 l 1
 358 446 l 1
 542 256 l 1
 292 70 l 1
 257 133 l 1
58 133 m 1
 242 257 l 1
 102 384 l 1
 158 446 l 1
 360 256 l 1
 94 70 l 1
 58 133 l 1
EndSplineSet
EndChar

StartChar: guilsinglleft
Encoding: 172 8249 141
Width: 600
Flags: HMW
HStem: 70 376<361 436>
VStem: 126 297<122 259>
LayerCount: 2
Fore
SplineSet
126 259 m 1
 436 446 l 1
 474 383 l 1
 252 258 l 1
 423 122 l 1
 361 70 l 1
 126 259 l 1
EndSplineSet
EndChar

StartChar: guilsinglright
Encoding: 173 8250 142
Width: 600
Flags: HMW
HStem: 70 376<165 244>
LayerCount: 2
Fore
SplineSet
126 132 m 1
 349 267 l 1
 180 393 l 1
 244 446 l 1
 474 259 l 1
 165 70 l 1
 126 132 l 1
EndSplineSet
EndChar

StartChar: h
Encoding: 104 104 143
Width: 600
Flags: HMW
HStem: 0 94<2 102 21 102 199 258 341 421 517 579> 532 94<129 192 110 307>
VStem: 102 97<94 94>
LayerCount: 2
Fore
SplineSet
2 0 m 1
 21 94 l 1
 102 94 l 1
 192 532 l 1
 110 532 l 1
 129 626 l 1
 307 626 l 1
 259 393 l 1
 313 419 365 440 425 440 c 0
 541 440 561 385 561 327 c 0
 561 309 557 291 553 274 c 2
 517 94 l 1
 598 94 l 1
 579 0 l 1
 321 0 l 1
 341 94 l 1
 421 94 l 1
 458 281 l 2
 460 291 462 301 462 310 c 0
 462 331 442 347 404 347 c 0
 376 347 319 338 238 289 c 1
 199 94 l 1
 278 94 l 1
 258 0 l 1
 2 0 l 1
EndSplineSet
EndChar

StartChar: hungarumlaut
Encoding: 205 733 144
Width: 600
Flags: HMW
HStem: 488 173<102 250 250 317>
VStem: 47 55<488 507> 262 55<488 507>
LayerCount: 2
Fore
SplineSet
47 507 m 1
 250 661 l 1
 340 631 l 1
 102 488 l 1
 47 507 l 1
262 507 m 1
 463 661 l 1
 553 631 l 1
 317 488 l 1
 262 507 l 1
EndSplineSet
EndChar

StartChar: hyphen
Encoding: 45 45 145
Width: 600
Flags: HMW
HStem: 203 110<88 512 111 489>
VStem: 88 401<203 203>
LayerCount: 2
Fore
SplineSet
88 203 m 1
 111 313 l 1
 512 313 l 1
 489 203 l 1
 88 203 l 1
EndSplineSet
EndChar

StartChar: i
Encoding: 105 105 146
Width: 600
Flags: HMW
HStem: 0 95<56 252 76 252 350 504> 350 95<185 302 165 420> 507 151<320 463 351 432>
VStem: 351 112<658 658>
LayerCount: 2
Fore
SplineSet
56 0 m 1
 76 95 l 1
 252 95 l 1
 302 350 l 1
 165 350 l 1
 185 445 l 1
 420 445 l 1
 350 95 l 1
 524 95 l 1
 504 0 l 1
 56 0 l 1
320 507 m 1
 351 658 l 1
 463 658 l 1
 432 507 l 1
 320 507 l 1
EndSplineSet
EndChar

StartChar: iacute
Encoding: 314 237 147
Width: 600
Flags: HMW
HStem: 0 91<62 221 317 484 484 484> 347 91<159 301 301 301> 641 20G<546 546>
LayerCount: 2
Fore
SplineSet
44 0 m 1
 484 0 l 1
 502 91 l 1
 317 91 l 1
 419 438 l 1
 159 438 l 1
 140 347 l 1
 301 347 l 1
 221 91 l 1
 62 91 l 1
 44 0 l 1
234 483 m 1
 224 541 l 1
 546 661 l 1
 565 560 l 1
 234 483 l 1
EndSplineSet
EndChar

StartChar: icircumflex
Encoding: 315 238 148
Width: 600
Flags: HMW
HStem: 0 91<62 221 317 484 484 484> 347 91<159 301 301 301> 637 20G<333 424 424 424>
LayerCount: 2
Fore
SplineSet
44 0 m 1
 484 0 l 1
 502 91 l 1
 317 91 l 1
 419 438 l 1
 159 438 l 1
 140 347 l 1
 301 347 l 1
 221 91 l 1
 62 91 l 1
 44 0 l 1
203 480 m 1
 153 516 l 1
 333 657 l 1
 424 657 l 1
 544 515 l 1
 483 480 l 1
 366 584 l 1
 203 480 l 1
EndSplineSet
EndChar

StartChar: idieresis
Encoding: 316 239 149
Width: 600
Flags: HMW
HStem: 0 91<62 221 317 484 484 484> 347 91<159 301 301 301> 500 125
LayerCount: 2
Fore
SplineSet
44 0 m 1
 484 0 l 1
 502 91 l 1
 317 91 l 1
 419 438 l 1
 159 438 l 1
 140 347 l 1
 301 347 l 1
 221 91 l 1
 62 91 l 1
 44 0 l 1
225 501 m 1
 249 625 l 1
 358 625 l 1
 333 501 l 1
 225 501 l 1
403 501 m 1
 427 625 l 1
 537 625 l 1
 512 499 l 1
 403 501 l 1
EndSplineSet
EndChar

StartChar: igrave
Encoding: 317 236 150
Width: 600
Flags: HMW
HStem: 0 91<62 221 317 484 484 484> 347 91<159 301 301 301> 641 20G<282 282>
LayerCount: 2
Fore
SplineSet
44 0 m 1
 484 0 l 1
 502 91 l 1
 317 91 l 1
 419 438 l 1
 159 438 l 1
 140 347 l 1
 301 347 l 1
 221 91 l 1
 62 91 l 1
 44 0 l 1
223 560 m 1
 282 661 l 1
 534 541 l 1
 501 483 l 1
 223 560 l 1
EndSplineSet
EndChar

StartChar: ij
Encoding: 318 307 151
Width: 600
Flags: HMW
HStem: -146 95<-34 32 130 184 -54 32> 366 91<413 498 393 624> 507 151<140 283 171 252> 513 145<533 621>
LayerCount: 2
Fore
SplineSet
264 -36 m 1
 274 -40 286 -55 338 -55 c 0
 380 -55 411 -18 427 52 c 2
 498 366 l 1
 393 366 l 1
 413 457 l 1
 624 457 l 1
 532 47 l 2
 519 -11 500 -146 317 -146 c 0
 259 -146 234 -132 219 -127 c 1
 264 -36 l 1
501 513 m 1
 533 658 l 1
 654 658 l 1
 621 513 l 1
 501 513 l 1
-34 -51 m 1
 32 -51 l 1
 122 350 l 1
 55 350 l 1
 75 445 l 1
 240 445 l 1
 130 -51 l 1
 204 -51 l 1
 184 -146 l 1
 -54 -146 l 1
 -34 -51 l 1
140 507 m 1
 171 658 l 1
 283 658 l 1
 252 507 l 1
 140 507 l 1
EndSplineSet
EndChar

StartChar: j
Encoding: 106 106 152
Width: 600
Flags: HMW
HStem: -146 91<150 216 150 260> 366 91<131 376 111 502> 513 145<379 531 411 498>
VStem: 305 105<47 52>
LayerCount: 2
Fore
SplineSet
33 -36 m 1
 78 -47 124 -55 176 -55 c 0
 256 -55 289 -18 305 52 c 2
 376 366 l 1
 111 366 l 1
 131 457 l 1
 502 457 l 1
 410 47 l 2
 397 -11 365 -146 155 -146 c 0
 97 -146 42 -136 -12 -127 c 1
 33 -36 l 1
379 513 m 1
 411 658 l 1
 531 658 l 1
 498 513 l 1
 379 513 l 1
EndSplineSet
EndChar

StartChar: k
Encoding: 107 107 153
Width: 600
Flags: HMW
HStem: 0 94<-4 94 15 94 15 172 319 347 466 554>
VStem: 94 78 301 253<0 0>
LayerCount: 2
Fore
SplineSet
-4 0 m 1
 15 94 l 1
 94 94 l 1
 183 532 l 1
 103 532 l 1
 123 626 l 1
 299 626 l 1
 227 273 l 1
 334 345 l 1
 314 345 l 1
 334 439 l 1
 605 439 l 1
 585 345 l 1
 477 345 l 1
 327 242 l 1
 362 209 433 144 466 94 c 1
 572 94 l 1
 554 0 l 1
 301 0 l 1
 319 94 l 1
 347 94 l 1
 319 133 284 168 246 193 c 1
 207 169 l 1
 172 0 l 1
 -4 0 l 1
EndSplineSet
EndChar

StartChar: l
Encoding: 108 108 154
Width: 600
Flags: HMW
HStem: 0 94<66 260 86 260 359 514> 532 94<212 350 194 468>
VStem: 260 99<94 94>
LayerCount: 2
Fore
SplineSet
66 0 m 1
 86 94 l 1
 260 94 l 1
 350 532 l 1
 194 532 l 1
 212 626 l 1
 468 626 l 1
 359 94 l 1
 534 94 l 1
 514 0 l 1
 66 0 l 1
EndSplineSet
EndChar

StartChar: less
Encoding: 60 60 155
Width: 600
Flags: HMW
HStem: 15 21G<455 455> 481 20G<545 545>
LayerCount: 2
Fore
SplineSet
54 200 m 1
 75 318 l 1
 545 501 l 1
 528 407 l 1
 155 259 l 1
 472 109 l 1
 455 15 l 1
 54 200 l 1
EndSplineSet
EndChar

StartChar: lira
Encoding: 319 8356 156
Width: 600
Flags: HMW
HStem: -28 21G<67 67> -12 21G<325 373> 166 83<61 135 42 161 61 233 262 412> 316 83<91 168 72 171 266 412> 518 93<335 398>
VStem: 171 95<399 406 399 410 399 472>
LayerCount: 2
Fore
SplineSet
28 36 m 1
 100 85 136 138 135 166 c 1
 42 166 l 1
 61 249 l 1
 161 249 l 1
 160 256 168 285 168 316 c 1
 72 316 l 1
 91 399 l 1
 171 399 l 1
 171 410 l 2
 171 534 247 611 389 611 c 0
 518 611 552 530 571 484 c 1
 480 447 l 1
 466 494 424 518 372 518 c 0
 298 518 266 470 266 406 c 2
 266 399 l 1
 432 399 l 1
 412 316 l 1
 265 316 l 1
 266 285 260 256 262 249 c 1
 432 249 l 1
 412 166 l 1
 233 166 l 1
 235 163 206 112 189 97 c 1
 201 105 213 108 228 108 c 0
 249 108 271 101 293 94 c 0
 314 87 335 81 352 81 c 0
 388 81 422 106 451 126 c 1
 495 63 l 1
 468 38 410 -12 336 -12 c 0
 314 -12 290 -4 266 3 c 0
 241 11 217 18 196 18 c 0
 147 18 81 -20 67 -28 c 1
 28 36 l 1
EndSplineSet
EndChar

StartChar: logicalnot
Encoding: 320 172 157
Width: 600
Flags: HMW
HStem: 300 113<59 541 78 422>
VStem: 388 99<103 103>
LayerCount: 2
Fore
SplineSet
59 300 m 1
 78 413 l 1
 541 413 l 1
 487 103 l 1
 388 103 l 1
 422 300 l 1
 59 300 l 1
EndSplineSet
EndChar

StartChar: lslash
Encoding: 248 322 158
Width: 600
Flags: HMW
HStem: 0 94<49 253 70 253 358 522> 532 94<192 349 171 474>
VStem: 253 105<94 94>
LayerCount: 2
Fore
SplineSet
49 0 m 1
 70 94 l 1
 253 94 l 1
 296 289 l 1
 165 257 l 1
 178 322 l 1
 310 355 l 1
 349 532 l 1
 171 532 l 1
 192 626 l 1
 474 626 l 1
 421 382 l 1
 550 414 l 1
 536 348 l 1
 406 317 l 1
 358 94 l 1
 542 94 l 1
 522 0 l 1
 49 0 l 1
EndSplineSet
EndChar

StartChar: m
Encoding: 109 109 159
Width: 600
Flags: HMW
HStem: 0 95<-21 73 -5 73 155 225 360 422 565 605> 347 95<62 122 44 229>
VStem: 73 82<95 95> 261 99<0 95>
LayerCount: 2
Fore
SplineSet
-21 0 m 1
 -5 95 l 1
 73 95 l 1
 122 347 l 1
 44 347 l 1
 62 442 l 1
 229 442 l 1
 226 418 l 1
 250 442 281 454 312 454 c 0
 334 454 371 447 387 405 c 1
 420 436 464 454 505 454 c 0
 574 454 612 409 612 347 c 0
 612 338 611 327 609 317 c 2
 565 95 l 1
 621 95 l 1
 605 0 l 1
 466 0 l 1
 526 321 l 2
 528 331 516 359 482 359 c 0
 466 359 431 350 403 318 c 1
 360 95 l 1
 438 95 l 1
 422 0 l 1
 261 0 l 1
 319 307 l 2
 320 311 320 315 320 320 c 0
 320 339 309 359 278 359 c 0
 256 359 219 343 198 326 c 1
 155 95 l 1
 242 95 l 1
 225 0 l 1
 -21 0 l 1
EndSplineSet
EndChar

StartChar: macron
Encoding: 197 175 160
Width: 600
Flags: HMW
HStem: 505 80<79 520 97 502>
VStem: 79 423<505 505>
LayerCount: 2
Fore
SplineSet
79 505 m 1
 97 585 l 1
 520 585 l 1
 502 505 l 1
 79 505 l 1
EndSplineSet
EndChar

StartChar: minus
Encoding: 321 8722 161
Width: 600
Flags: HMW
HStem: 203 110<59 541 78 522>
VStem: 59 463<203 203>
LayerCount: 2
Fore
SplineSet
59 203 m 1
 78 313 l 1
 541 313 l 1
 522 203 l 1
 59 203 l 1
EndSplineSet
EndChar

StartChar: mu
Encoding: 322 181 162
Width: 600
Flags: HMW
HStem: -142 21G<29 29 29 125> 8 85<234 265.5> 20 89<490 551> 350 89<68 130 50 245 381 443>
LayerCount: 2
Fore
SplineSet
29 -142 m 1
 130 350 l 1
 50 350 l 1
 68 439 l 1
 245 439 l 1
 191 173 l 2
 189 165 189 156 189 149 c 0
 189 115 212 93 256 93 c 0
 315 93 356 120 403 155 c 1
 443 350 l 1
 363 350 l 1
 381 439 l 1
 558 439 l 1
 490 109 l 1
 570 109 l 1
 551 20 l 1
 375 20 l 1
 387 72 l 1
 343 40 298 8 233 8 c 0
 194 8 176 24 163 38 c 1
 125 -142 l 1
 29 -142 l 1
EndSplineSet
EndChar

StartChar: multiply
Encoding: 323 215 163
Width: 600
Flags: HMW
VStem: 49 442<100 100>
LayerCount: 2
Fore
SplineSet
49 100 m 1
 240 259 l 1
 110 418 l 1
 184 478 l 1
 311 318 l 1
 502 475 l 1
 550 415 l 1
 362 259 l 1
 491 100 l 1
 417 39 l 1
 288 200 l 1
 98 39 l 1
 49 100 l 1
EndSplineSet
EndChar

StartChar: n
Encoding: 110 110 164
Width: 600
Flags: HMW
HStem: 0 94<2 101 21 101 197 260 343 422 518 579> 346 95<88 152 69 266> 361 93<399.5 425>
LayerCount: 2
Fore
SplineSet
2 0 m 1
 21 94 l 1
 101 94 l 1
 152 346 l 1
 69 346 l 1
 88 441 l 1
 266 441 l 1
 258 398 l 1
 307 426 371 454 428 454 c 0
 505 454 567 415 567 346 c 0
 567 335 565 324 562 311 c 2
 518 94 l 1
 598 94 l 1
 579 0 l 1
 324 0 l 1
 343 94 l 1
 422 94 l 1
 461 289 l 2
 463 300 465 310 465 319 c 0
 465 344 450 361 400 361 c 0
 369 361 297 338 238 295 c 1
 197 94 l 1
 279 94 l 1
 260 0 l 1
 2 0 l 1
EndSplineSet
EndChar

StartChar: nine
Encoding: 57 57 165
Width: 600
Flags: HMW
HStem: -15 89<140 157 67 264> 209 93<299.5 325.5> 522 94<344.5 414>
VStem: 137 102<385 439 368.5 444> 466 92<377.5 380>
LayerCount: 2
Fore
SplineSet
466 380 m 0
 470 444 458 522 370 522 c 0
 319 522 239 481 239 397 c 0
 239 340 273 302 326 302 c 0
 410 302 466 375 466 380 c 0
42 -9 m 1
 67 74 l 1
 247 74 385 123 418 243 c 1
 389 227 347 209 304 209 c 0
 202 209 135 292 137 385 c 0
 137 503 254 616 383 616 c 0
 517 616 558 520 558 417 c 0
 558 133 363 -15 165 -15 c 0
 115 -15 73 -13 42 -9 c 1
EndSplineSet
EndChar

StartChar: ntilde
Encoding: 324 241 166
Width: 600
Flags: HMW
HStem: 0 92<-12 83 6 83 175 236 315 391 483 540> 337 92<70 132 52 242> 549 85<293 322>
LayerCount: 2
Fore
SplineSet
-12 0 m 1
 6 92 l 1
 83 92 l 1
 132 337 l 1
 52 337 l 1
 70 429 l 1
 242 429 l 1
 233 387 l 1
 278 414 342 442 396 442 c 0
 469 442 528 405 528 339 c 0
 528 327 527 315 524 302 c 2
 483 92 l 1
 558 92 l 1
 540 0 l 1
 296 0 l 1
 315 92 l 1
 391 92 l 1
 428 281 l 2
 430 293 431 304 431 314 c 0
 431 336 415 351 368 351 c 0
 340 351 270 329 213 286 c 1
 175 92 l 1
 253 92 l 1
 236 0 l 1
 -12 0 l 1
164 513 m 1
 189 556 235 634 329 634 c 0
 357 634 382 616 407 599 c 0
 427 586 447 573 466 573 c 0
 495 573 508 595 534 636 c 1
 612 613 l 1
 595 577 546 489 448 489 c 0
 423 489 401 502 379 516 c 0
 355 532 333 549 311 549 c 0
 275 549 258 512 243 487 c 1
 164 513 l 1
EndSplineSet
EndChar

StartChar: numbersign
Encoding: 35 35 167
Width: 600
Flags: HMW
HStem: 149 91<43 112 24 142 43 206 231 309 427 514> 354 91<86 174 67 199 86 263 289 367 485 557>
VStem: 112 94<149 149> 199 90<445 445> 309 92<149 149> 391 94<445 445>
LayerCount: 2
Fore
SplineSet
231 240 m 1
 335 240 l 1
 367 354 l 1
 263 354 l 1
 231 240 l 1
67 -45 m 1
 112 149 l 1
 24 149 l 1
 43 240 l 1
 142 240 l 1
 174 354 l 1
 67 354 l 1
 86 445 l 1
 199 445 l 1
 255 651 l 1
 344 651 l 1
 289 445 l 1
 391 445 l 1
 448 651 l 1
 539 651 l 1
 485 445 l 1
 576 445 l 1
 557 354 l 1
 459 354 l 1
 427 240 l 1
 533 240 l 1
 514 149 l 1
 401 149 l 1
 351 -45 l 1
 256 -45 l 1
 309 149 l 1
 206 149 l 1
 154 -45 l 1
 67 -45 l 1
EndSplineSet
EndChar

StartChar: o
Encoding: 111 111 168
Width: 600
Flags: HMW
HStem: -15 96<249.5 321 249.5 339.5> 358 96<273.5 382.5>
VStem: 25 102<142 236 142 258.5> 474 101<188.5 272.5>
LayerCount: 2
Fore
SplineSet
127 184 m 0
 127 100 222 81 277 81 c 0
 365 81 474 132 474 245 c 0
 474 300 438 358 327 358 c 0
 220 358 127 288 127 184 c 0
25 168 m 0
 25 349 196 454 350 454 c 0
 511 454 575 359 575 260 c 0
 575 75 418 -15 261 -15 c 0
 156 -15 25 33 25 168 c 0
EndSplineSet
EndChar

StartChar: oacute
Encoding: 325 243 169
Width: 600
Flags: HMW
HStem: -15 91<248 319 248 327> 345 91<274 382.5> 641 20G<555 555>
VStem: 24 102<141 232 141 247> 475 100<183.5 263.5>
LayerCount: 2
Fore
SplineSet
126 182 m 0
 126 100 220 76 276 76 c 0
 362 76 475 130 475 237 c 0
 475 290 438 345 327 345 c 0
 221 345 126 282 126 182 c 0
24 159 m 0
 24 335 192 436 350 436 c 0
 508 436 575 351 575 257 c 0
 575 76 394 -15 260 -15 c 0
 156 -15 24 33 24 159 c 0
244 483 m 1
 233 541 l 1
 555 661 l 1
 575 560 l 1
 244 483 l 1
EndSplineSet
EndChar

StartChar: ocircumflex
Encoding: 326 244 170
Width: 600
Flags: HMW
HStem: -15 91<248 319 248 327> 345 91<274 382.5> 637 20G<345 443 443 443>
VStem: 24 102<141 232 141 242> 475 100<183.5 263.5>
LayerCount: 2
Fore
SplineSet
126 182 m 0
 126 100 220 76 276 76 c 0
 362 76 475 130 475 237 c 0
 475 290 438 345 327 345 c 0
 221 345 126 282 126 182 c 0
24 159 m 0
 24 325 192 436 350 436 c 0
 508 436 575 351 575 257 c 0
 575 76 394 -15 260 -15 c 0
 156 -15 24 33 24 159 c 0
151 513 m 1
 345 657 l 1
 443 657 l 1
 575 512 l 1
 508 477 l 1
 381 585 l 1
 204 477 l 1
 151 513 l 1
EndSplineSet
EndChar

StartChar: odieresis
Encoding: 327 246 171
Width: 600
Flags: HMW
HStem: -15 91<248 319 248 327> 345 91<274 382.5> 501 124<211 351 237 325 237 397 423 511>
VStem: 24 102<141 232 141 247> 475 100<183.5 263.5>
LayerCount: 2
Fore
SplineSet
126 182 m 0
 126 100 220 76 276 76 c 0
 362 76 475 130 475 237 c 0
 475 290 438 345 327 345 c 0
 221 345 126 282 126 182 c 0
24 159 m 0
 24 335 192 436 350 436 c 0
 508 436 575 351 575 257 c 0
 575 76 394 -15 260 -15 c 0
 156 -15 24 33 24 159 c 0
211 501 m 1
 237 625 l 1
 351 625 l 1
 325 501 l 1
 211 501 l 1
397 501 m 1
 423 625 l 1
 537 625 l 1
 511 501 l 1
 397 501 l 1
EndSplineSet
EndChar

StartChar: oe
Encoding: 250 339 172
Width: 600
Flags: HMW
HStem: -15 95<123.5 165.5 401.5 445> 165 95<365 524 365 599 353 524> 358 96<164.5 236 471.5 506.5>
VStem: -21 100<121 167.5 121 217>
LayerCount: 2
Fore
SplineSet
79 140 m 0
 79 102 102 80 145 80 c 0
 228 80 271 215 271 289 c 0
 271 321 260 358 212 358 c 0
 117 358 79 195 79 140 c 0
365 260 m 1
 524 260 l 1
 527 282 541 358 472 358 c 0
 420 358 377 300 365 260 c 1
279 54 m 1
 255 30 201 -15 130 -15 c 0
 8 -15 -21 67 -21 138 c 0
 -21 296 77 454 235 454 c 0
 286 454 333 438 359 400 c 1
 399 435 448 454 495 454 c 0
 590 454 621 373 621 290 c 0
 621 245 611 199 599 165 c 1
 353 165 l 1
 350 160 349 153 349 144 c 0
 349 117 369 80 434 80 c 0
 458 80 499 89 568 112 c 1
 581 20 l 1
 522 -1 473 -15 417 -15 c 0
 325 -15 303 20 279 54 c 1
EndSplineSet
EndChar

StartChar: ogonek
Encoding: 206 731 173
Width: 600
Flags: HMW
HStem: -199 73<245 318.5>
VStem: 197 87<-110.5 -91.5>
LayerCount: 2
Fore
SplineSet
309 -1 m 2
 403 -1 l 1
 376 -16 284 -63 284 -101 c 0
 284 -120 293 -126 306 -126 c 0
 331 -126 370 -100 381 -84 c 1
 353 -166 l 1
 327 -187 297 -199 267 -199 c 0
 223 -199 197 -168 197 -129 c 0
 197 -54 290 -1 309 -1 c 2
EndSplineSet
EndChar

StartChar: ograve
Encoding: 328 242 174
Width: 600
Flags: HMW
HStem: -15 91<248 319 248 327> 345 91<274 382.5> 641 20G<282 282>
VStem: 24 102<141 232 141 247> 475 100<183.5 263.5>
LayerCount: 2
Fore
SplineSet
126 182 m 0
 126 100 220 76 276 76 c 0
 362 76 475 130 475 237 c 0
 475 290 438 345 327 345 c 0
 221 345 126 282 126 182 c 0
24 159 m 0
 24 335 192 436 350 436 c 0
 508 436 575 351 575 257 c 0
 575 76 394 -15 260 -15 c 0
 156 -15 24 33 24 159 c 0
217 559 m 1
 282 661 l 1
 561 541 l 1
 526 482 l 1
 217 559 l 1
EndSplineSet
EndChar

StartChar: one
Encoding: 49 49 175
Width: 600
Flags: HMW
HStem: 0 93<66 264 85 264 360 515>
VStem: 264 96<93 93>
LayerCount: 2
Fore
SplineSet
66 0 m 1
 85 93 l 1
 264 93 l 1
 347 506 l 1
 176 472 l 1
 195 563 l 1
 466 616 l 1
 360 93 l 1
 534 93 l 1
 515 0 l 1
 66 0 l 1
EndSplineSet
EndChar

StartChar: onehalf
Encoding: 329 189 176
Width: 600
Flags: HMW
HStem: -60 21G<13 13> -46 67<423 544> 231 68<471 489> 298 69<-46 57 -32 57 125 193> 641 20G<584 584>
VStem: 57 68<367 367> 358 67<179 179> 521 68<190 210>
LayerCount: 2
Fore
SplineSet
-46 298 m 1
 -32 367 l 1
 57 367 l 1
 95 561 l 1
 22 546 l 1
 35 615 l 1
 177 644 l 1
 125 367 l 1
 207 367 l 1
 193 298 l 1
 -46 298 l 1
-45 -9 m 1
 584 661 l 1
 646 613 l 1
 13 -60 l 1
 -45 -9 l 1
306 -46 m 1
 317 11 l 1
 490 144 l 2
 508 157 521 181 521 199 c 0
 521 221 499 231 479 231 c 0
 436 231 430 204 425 179 c 1
 358 179 l 1
 369 242 l 1
 404 277 449 299 493 299 c 0
 573 299 589 242 589 206 c 0
 589 160 558 119 525 98 c 2
 423 21 l 1
 557 21 l 1
 544 -46 l 1
 306 -46 l 1
EndSplineSet
EndChar

StartChar: onequarter
Encoding: 330 188 177
Width: 600
Flags: HMW
HStem: -60 21G<17 17> -47 57<327 384 450 479 316 384> 54 63<350 391 350 458 471 498> 297 69<-46 57 -32 57 123 192> 641 20G<583 583>
LayerCount: 2
Fore
SplineSet
-46 297 m 1
 -32 366 l 1
 57 366 l 1
 94 560 l 1
 23 545 l 1
 36 613 l 1
 175 642 l 1
 123 366 l 1
 206 366 l 1
 192 297 l 1
 -46 297 l 1
-42 -9 m 1
 583 661 l 1
 646 612 l 1
 17 -60 l 1
 -42 -9 l 1
350 117 m 1
 404 117 l 1
 419 198 l 1
 350 117 l 1
258 54 m 1
 268 101 l 1
 441 295 l 1
 504 295 l 1
 471 117 l 1
 511 117 l 1
 498 54 l 1
 458 54 l 1
 450 10 l 1
 490 10 l 1
 479 -47 l 1
 316 -47 l 1
 327 10 l 1
 384 10 l 1
 391 54 l 1
 258 54 l 1
EndSplineSet
EndChar

StartChar: onesuperior
Encoding: 331 185 178
Width: 600
Flags: HMW
HStem: 220 76<149 272 166 272 351 433> 596 20G<413 413>
VStem: 272 79<296 296>
LayerCount: 2
Fore
SplineSet
149 220 m 1
 166 296 l 1
 272 296 l 1
 315 524 l 1
 230 507 l 1
 246 583 l 1
 413 616 l 1
 351 296 l 1
 450 296 l 1
 433 220 l 1
 149 220 l 1
EndSplineSet
EndChar

StartChar: ordfeminine
Encoding: 227 170 179
Width: 600
Flags: HMW
HStem: 196 83<231 250> 377 79<277.5 308> 497 83<307 341.5>
VStem: 131 77<309.5 335>
LayerCount: 2
Fore
SplineSet
352 371 m 1
 352 371 319 377 297 377 c 0
 258 377 208 359 208 319 c 0
 208 300 214 279 248 279 c 0
 288 279 331 331 352 371 c 1
322 204 m 1
 329 245 l 1
 301 217 266 196 234 196 c 0
 170 196 131 245 131 303 c 0
 131 367 170 456 297 456 c 0
 321 456 344 453 366 446 c 1
 370 477 357 497 326 497 c 0
 288 497 232 485 193 471 c 1
 178 550 l 1
 214 564 275 580 329 580 c 0
 385 580 443 560 443 498 c 0
 443 476 441 450 437 428 c 2
 412 286 l 1
 468 286 l 1
 453 204 l 1
 322 204 l 1
EndSplineSet
EndChar

StartChar: ordmasculine
Encoding: 235 186 180
Width: 600
Flags: HMW
HStem: 196 83<253.5 311.5 253.5 322.5> 497 83
VStem: 124 78<358.5 410 358.5 419> 398 78<391 449>
LayerCount: 2
Fore
SplineSet
202 381 m 0
 202 336 227 279 280 279 c 0
 343 279 398 354 398 428 c 0
 398 470 375 534 318 534 c 0
 242 534 202 439 202 381 c 0
124 367 m 0
 124 471 205 617 335 617 c 0
 431 617 476 523 476 442 c 0
 476 314 378 196 267 196 c 0
 176 196 124 281 124 367 c 0
EndSplineSet
EndChar

StartChar: oslash
Encoding: 249 248 181
Width: 600
Flags: HMW
HStem: -24 21G<56 56> -14 95<266.5 318 266.5 325> 364 95<281 343> 443 20G<545 545>
VStem: 33 101<196 253 196 262> 470 97<199.5 264>
LayerCount: 2
Fore
SplineSet
146 139 m 1
 404 350 l 1
 384 359 359 364 327 364 c 0
 235 364 134 300 134 206 c 0
 134 186 133 160 146 139 c 1
202 94 m 1
 227 84 256 81 277 81 c 0
 359 81 470 143 470 256 c 0
 470 272 465 288 457 302 c 1
 202 94 l 1
9 28 m 1
 62 72 l 1
 44 99 33 132 33 172 c 0
 33 352 199 459 348 459 c 0
 410 459 457 444 492 420 c 1
 545 463 l 1
 591 410 l 1
 541 369 l 1
 560 338 568 303 567 267 c 0
 567 81 389 -14 261 -14 c 0
 213 -14 159 -3 115 24 c 1
 56 -24 l 1
 9 28 l 1
EndSplineSet
EndChar

StartChar: otilde
Encoding: 332 245 182
Width: 600
Flags: HMW
HStem: -15 91<248 319 248 327> 345 91<274 382.5> 554 20G<427.5 452.5> 616 20G<507 507>
VStem: 24 102<141 232 141 247> 475 100<183.5 263.5>
LayerCount: 2
Fore
SplineSet
126 182 m 0
 126 100 220 76 276 76 c 0
 362 76 475 130 475 237 c 0
 475 290 438 345 327 345 c 0
 221 345 126 282 126 182 c 0
24 159 m 0
 24 335 192 436 350 436 c 0
 508 436 575 351 575 257 c 0
 575 76 394 -15 260 -15 c 0
 156 -15 24 33 24 159 c 0
135 513 m 1
 159 556 205 634 300 634 c 0
 327 634 352 617 376 601 c 0
 397 587 417 574 438 574 c 0
 467 574 480 595 507 636 c 1
 585 612 l 1
 568 578 519 490 420 490 c 0
 390 490 363 509 337 526 c 0
 317 539 297 549 278 549 c 0
 244 549 230 508 213 487 c 1
 135 513 l 1
EndSplineSet
EndChar

StartChar: p
Encoding: 112 112 183
Width: 600
Flags: HMW
HStem: -142 88<-36 44 138 267 -56 44> 20 21G<269 391.5> 353 88<68 130 50 243> 366 88
VStem: 44 94<-54 -54> 492 99
LayerCount: 2
Fore
SplineSet
193 197 m 0
 193 119 282 105 322 105 c 0
 400 105 492 186 492 268 c 0
 492 321 445 354 378 354 c 0
 325 354 193 319 193 197 c 0
-36 -54 m 1
 44 -54 l 1
 130 353 l 1
 50 353 l 1
 68 441 l 1
 243 441 l 1
 234 398 l 1
 282 429 353 454 408 454 c 0
 517 454 597 394 597 279 c 0
 597 135 474 20 309 20 c 0
 229 20 179 43 161 57 c 1
 138 -54 l 1
 286 -54 l 1
 267 -142 l 1
 -56 -142 l 1
 -36 -54 l 1
EndSplineSet
EndChar

StartChar: paragraph
Encoding: 182 182 184
Width: 600
Flags: HMW
HStem: 550 30<401 496 401 401 547 608 547 547>
VStem: 119 52<-70 -70> 266 53<-70 -70>
LayerCount: 2
Fore
SplineSet
119 -70 m 1
 230 236 l 1
 48 246 -19 312 -19 380 c 0
 -19 530 174 580 360 580 c 2
 619 580 l 1
 608 550 l 1
 547 550 l 1
 319 -70 l 1
 266 -70 l 1
 496 550 l 1
 401 550 l 1
 171 -70 l 1
 119 -70 l 1
EndSplineSet
EndChar

StartChar: parenleft
Encoding: 40 40 185
Width: 600
Flags: HMW
HStem: -102 21G<199 199 199 296> 596 20G<367 463 463 463>
VStem: 137 103<118.5 238>
LayerCount: 2
Fore
SplineSet
199 -102 m 1
 150 -7 137 82 137 149 c 0
 137 327 233 473 367 616 c 1
 463 616 l 1
 362 493 240 350 240 172 c 0
 240 65 267 -32 296 -102 c 1
 199 -102 l 1
EndSplineSet
EndChar

StartChar: parenright
Encoding: 41 41 186
Width: 600
Flags: HMW
HStem: -102 21G<136 136 136 232> 596 20G<304 401 401 401>
VStem: 360 103<276 395.5>
LayerCount: 2
Fore
SplineSet
136 -102 m 1
 237 21 360 164 360 342 c 0
 360 449 333 546 304 616 c 1
 401 616 l 1
 450 521 463 432 463 365 c 0
 463 187 366 41 232 -102 c 1
 136 -102 l 1
EndSplineSet
EndChar

StartChar: percent
Encoding: 37 37 187
Width: 600
Flags: HMW
HStem: -15 70<340.5 383.5 340.5 395> 191 70<361 414.5> 340 70<185.5 228.5 185.5 240> 546 70<206 259.5>
VStem: 56 81<447 483.5 447 497> 211 81<92 128.5 92 142> 308 81<463.5 505.5> 463 81<108.5 150.5>
LayerCount: 2
Fore
SplineSet
79 172 m 1
 61 234 l 1
 520 418 l 1
 537 354 l 1
 79 172 l 1
292 105 m 0
 292 79 320 55 361 55 c 0
 406 55 463 82 463 135 c 0
 463 166 438 191 391 191 c 0
 331 191 292 152 292 105 c 0
211 99 m 0
 211 185 309 261 409 261 c 0
 493 261 544 210 544 150 c 0
 544 56 444 -15 346 -15 c 0
 258 -15 211 37 211 99 c 0
137 460 m 0
 137 434 165 410 206 410 c 0
 251 410 308 437 308 490 c 0
 308 521 283 546 236 546 c 0
 176 546 137 507 137 460 c 0
56 454 m 0
 56 540 154 616 254 616 c 0
 338 616 389 565 389 505 c 0
 389 411 289 340 191 340 c 0
 103 340 56 392 56 454 c 0
EndSplineSet
EndChar

StartChar: period
Encoding: 46 46 188
Width: 600
Flags: HMW
HStem: -15 186<285 314>
VStem: 190 219<58 96>
LayerCount: 2
Fore
SplineSet
190 64 m 0
 190 128 253 171 317 171 c 0
 379 171 409 132 409 92 c 0
 409 24 344 -15 284 -15 c 0
 214 -15 190 29 190 64 c 0
EndSplineSet
EndChar

StartChar: periodcentered
Encoding: 180 183 189
Width: 600
Flags: HMW
HStem: 165 186<285 317>
VStem: 194 212<243 270>
LayerCount: 2
Fore
SplineSet
194 243 m 0
 194 297 252 351 318 351 c 0
 381 351 406 312 406 272 c 0
 406 214 348 165 286 165 c 0
 214 165 194 212 194 243 c 0
EndSplineSet
EndChar

StartChar: perthousand
Encoding: 189 8240 190
Width: 600
Flags: HMW
HStem: -15 70<157 201 157 216 497 541> 190 70<178.5 230 518.5 570> 340 70<47 91 47 106> 546 70<68.5 120>
VStem: -76 78<447 483 447 494> 34 78<92 128 92 139> 167 76<464 506> 277 76<109 151> 374 78<92 128 92 139> 617 76<109 151>
LayerCount: 2
Fore
SplineSet
112 106 m 0
 112 78 136 55 178 55 c 0
 224 55 277 82 277 136 c 0
 277 166 251 190 209 190 c 0
 148 190 112 150 112 106 c 0
34 96 m 0
 34 182 107 260 225 260 c 0
 306 260 353 208 353 148 c 0
 353 56 267 -15 165 -15 c 0
 82 -15 34 36 34 96 c 0
452 106 m 0
 452 78 476 55 518 55 c 0
 564 55 617 82 617 136 c 0
 617 166 591 190 549 190 c 0
 488 190 452 150 452 106 c 0
374 96 m 0
 374 182 447 260 565 260 c 0
 646 260 693 208 693 148 c 0
 693 56 607 -15 505 -15 c 0
 422 -15 374 36 374 96 c 0
-74 183 m 1
 -93 244 l 1
 392 432 l 1
 409 370 l 1
 -74 183 l 1
2 461 m 0
 2 433 26 410 68 410 c 0
 114 410 167 437 167 491 c 0
 167 521 141 546 99 546 c 0
 38 546 2 505 2 461 c 0
-76 451 m 0
 -76 537 -3 616 115 616 c 0
 196 616 243 563 243 503 c 0
 243 411 157 340 55 340 c 0
 -28 340 -76 391 -76 451 c 0
EndSplineSet
EndChar

StartChar: plus
Encoding: 43 43 191
Width: 600
Flags: HMW
HStem: 212 94<59 261 78 241 78 339 359 522> 458 20G<296 394 394 394>
VStem: 206 98<43 43>
LayerCount: 2
Fore
SplineSet
59 212 m 1
 78 306 l 1
 261 306 l 1
 296 478 l 1
 394 478 l 1
 359 306 l 1
 541 306 l 1
 522 212 l 1
 339 212 l 1
 304 43 l 1
 206 43 l 1
 241 212 l 1
 59 212 l 1
EndSplineSet
EndChar

StartChar: plusminus
Encoding: 333 177 192
Width: 600
Flags: HMW
HStem: 30 81 286 81<113 273 94 292 113 370 389 550> 495 20G<326 424 424 424>
VStem: 238 98<138 138>
LayerCount: 2
Fore
SplineSet
31 24 m 1
 50 105 l 1
 506 105 l 1
 487 24 l 1
 31 24 l 1
238 138 m 1
 273 286 l 1
 94 286 l 1
 113 367 l 1
 292 367 l 1
 326 515 l 1
 424 515 l 1
 389 367 l 1
 569 367 l 1
 550 286 l 1
 370 286 l 1
 336 138 l 1
 238 138 l 1
EndSplineSet
EndChar

StartChar: prescription
Encoding: 334 8478 193
Width: 600
Flags: HMW
HStem: -15 94<15 102 202 263 -4 102 514 575> 205 94<248 312 228 346> 468 94<121 184 102 417 283 283 283 417 417 418>
VStem: 501 102<374.5 434.5>
LayerCount: 2
Fore
SplineSet
248 299 m 1
 346 299 l 2
 397 299 501 313 501 410 c 0
 501 459 442 468 418 468 c 2
 283 468 l 1
 248 299 l 1
328 37 m 1
 384 93 l 1
 312 205 l 1
 228 205 l 1
 202 79 l 1
 282 79 l 1
 263 -15 l 1
 -4 -15 l 1
 15 79 l 1
 102 79 l 1
 184 468 l 1
 102 468 l 1
 121 562 l 1
 417 562 l 2
 521 562 603 518 603 421 c 0
 603 328 539 242 418 223 c 1
 456 165 l 1
 525 234 l 1
 580 182 l 1
 500 100 l 1
 514 79 l 1
 595 79 l 1
 575 -15 l 1
 457 -15 l 1
 452 0 442 14 431 29 c 1
 389 -15 l 1
 328 37 l 1
EndSplineSet
EndChar

StartChar: q
Encoding: 113 113 194
Width: 600
Flags: HMW
HStem: -142 88<182 329 426 485 162 329> 21 86<179.5 221> 355 88<514 592 514 514> 367 87<223.5 316 209.5 323>
VStem: -10 102<179 253 179 265>
LayerCount: 2
Fore
SplineSet
92 210 m 0
 92 148 145 107 214 107 c 0
 259 107 393 123 393 248 c 0
 393 301 372 367 274 367 c 0
 173 367 92 296 92 210 c 0
182 -54 m 1
 329 -54 l 1
 351 56 l 1
 303 26 248 21 194 21 c 0
 66 21 -10 101 -10 199 c 0
 -10 331 131 454 288 454 c 0
 344 454 391 432 425 398 c 1
 437 443 l 1
 612 443 l 1
 592 355 l 1
 514 355 l 1
 426 -54 l 1
 506 -54 l 1
 485 -142 l 1
 162 -142 l 1
 182 -54 l 1
EndSplineSet
EndChar

StartChar: question
Encoding: 63 63 195
Width: 600
Flags: HMW
HStem: -14 152<176.5 216.5> 488 92<289 324.5>
VStem: 96 192<57.5 65.5> 404 100<384.5 450.5>
LayerCount: 2
Fore
SplineSet
96 40 m 0
 96 91 144 138 209 138 c 0
 272 138 288 102 288 79 c 0
 288 36 255 -14 178 -14 c 0
 131 -14 96 7 96 40 c 0
169 182 m 1
 195 306 l 1
 294 321 404 339 404 430 c 0
 404 471 354 488 295 488 c 0
 267 488 237 484 209 478 c 1
 195 402 l 1
 96 402 l 1
 125 546 l 1
 182 566 261 580 317 580 c 0
 425 580 504 533 504 444 c 0
 504 310 368 255 280 240 c 1
 267 182 l 1
 169 182 l 1
EndSplineSet
EndChar

StartChar: questiondown
Encoding: 191 191 196
Width: 600
Flags: HMW
HStem: -146 93<271 308> 297 152<387.5 426.5>
VStem: 96 98<-15.5 51 -15.5 57.5> 314 190<366 384.5>
LayerCount: 2
Fore
SplineSet
317 196 m 1
 329 257 l 1
 426 257 l 1
 401 130 l 1
 304 115 194 97 194 5 c 0
 194 -36 242 -53 300 -53 c 0
 329 -53 364 -49 393 -44 c 1
 407 22 l 1
 504 22 l 1
 476 -112 l 1
 419 -132 335 -146 281 -146 c 0
 174 -146 96 -98 96 -10 c 0
 96 125 253 190 317 196 c 1
314 366 m 0
 314 403 352 449 423 449 c 0
 471 449 504 426 504 390 c 0
 504 342 460 297 393 297 c 0
 318 297 313 347 314 366 c 0
EndSplineSet
EndChar

StartChar: quotedbl
Encoding: 34 34 197
Width: 600
Flags: HMW
HStem: 542 20G<162 302 302 302 346 486 486 486>
VStem: 114 112<277 277> 300 110<277 277>
LayerCount: 2
Fore
SplineSet
114 277 m 1
 162 562 l 1
 302 562 l 1
 226 277 l 1
 114 277 l 1
300 277 m 1
 346 562 l 1
 486 562 l 1
 410 277 l 1
 300 277 l 1
EndSplineSet
EndChar

StartChar: quotedblbase
Encoding: 185 8222 198
Width: 600
Flags: HMW
HStem: -142 285<38 348 38 348 252 252 252 348 190 369>
LayerCount: 2
Fore
SplineSet
38 -142 m 1
 190 143 l 1
 348 143 l 1
 153 -142 l 1
 38 -142 l 1
252 -142 m 1
 405 143 l 1
 562 143 l 1
 369 -142 l 1
 252 -142 l 1
EndSplineSet
EndChar

StartChar: quotedblleft
Encoding: 170 8220 199
Width: 600
Flags: HMW
VStem: 178 113<277 277> 389 113<277 277>
LayerCount: 2
Fore
SplineSet
178 277 m 1
 98 562 l 1
 252 562 l 1
 291 277 l 1
 178 277 l 1
389 277 m 1
 309 562 l 1
 462 562 l 1
 502 277 l 1
 389 277 l 1
EndSplineSet
EndChar

StartChar: quotedblright
Encoding: 186 8221 200
Width: 600
Flags: HMW
HStem: 277 21G<38 38 38 154 253 253 253 371> 542 20G<188 347 347 347 404 562 562 562>
VStem: 38 116<277 277> 253 118<277 277>
LayerCount: 2
Fore
SplineSet
38 277 m 1
 188 562 l 1
 347 562 l 1
 154 277 l 1
 38 277 l 1
253 277 m 1
 404 562 l 1
 562 562 l 1
 371 277 l 1
 253 277 l 1
EndSplineSet
EndChar

StartChar: quoteleft
Encoding: 96 8216 201
Width: 600
Flags: HMW
HStem: 277 285<283 283 283 357 205 395>
LayerCount: 2
Fore
SplineSet
283 277 m 1
 205 562 l 1
 357 562 l 1
 395 277 l 1
 283 277 l 1
EndSplineSet
EndChar

StartChar: quoteright
Encoding: 39 8217 202
Width: 600
Flags: HMW
HStem: 277 21G<144 144 144 262> 542 20G<295 456 456 456>
VStem: 144 118<277 277>
LayerCount: 2
Fore
SplineSet
144 277 m 1
 295 562 l 1
 456 562 l 1
 262 277 l 1
 144 277 l 1
EndSplineSet
EndChar

StartChar: quotesinglbase
Encoding: 184 8218 203
Width: 600
Flags: HMW
HStem: -142 21G<144 144 144 263> 120 20G
VStem: 144 119<-142 -142>
LayerCount: 2
Fore
SplineSet
144 -142 m 1
 296 143 l 1
 456 143 l 1
 263 -142 l 1
 144 -142 l 1
EndSplineSet
EndChar

StartChar: quotesingle
Encoding: 169 39 204
Width: 600
Flags: HMW
HStem: 274 21G<206 206 206 319> 542 20G<254 394 394 394>
VStem: 206 113<274 274>
LayerCount: 2
Fore
SplineSet
206 274 m 1
 254 562 l 1
 394 562 l 1
 319 274 l 1
 206 274 l 1
EndSplineSet
EndChar

StartChar: r
Encoding: 114 114 205
Width: 600
Flags: HMW
HStem: 0 94<17 151 37 151 250 425> 345 94<105 202 87 320>
VStem: 151 99<94 94>
LayerCount: 2
Fore
SplineSet
17 0 m 1
 37 94 l 1
 151 94 l 1
 202 345 l 1
 87 345 l 1
 105 439 l 1
 320 439 l 1
 307 358 l 1
 368 398 443 454 517 454 c 0
 622 454 622 403 622 339 c 1
 524 325 l 1
 525 350 523 360 498 360 c 0
 414 360 349 300 283 245 c 1
 250 94 l 1
 444 94 l 1
 425 0 l 1
 17 0 l 1
EndSplineSet
EndChar

StartChar: registered
Encoding: 335 174 206
Width: 600
Flags: HMW
HStem: -18 45<188 326 188 335> 134 163<172 304 172 304 255 325 255 383> 400 47<271 307 307 319 271 271> 535 45<275.5 414.5>
VStem: -7 47<177.5 313.5> 377 47<340.5 378> 561 46<243.5 382>
LayerCount: 2
Fore
SplineSet
255 297 m 1
 304 297 l 2
 335 297 377 310 377 364 c 0
 377 392 348 400 319 400 c 2
 271 400 l 1
 255 297 l 1
172 134 m 1
 233 447 l 1
 307 447 l 2
 368 447 424 437 424 369 c 0
 424 312 397 271 354 261 c 1
 383 134 l 1
 325 134 l 1
 298 250 l 1
 246 250 l 1
 220 134 l 1
 172 134 l 1
40 237 m 0
 40 118 125 27 251 27 c 0
 401 27 561 165 561 322 c 0
 561 442 478 535 351 535 c 0
 200 535 40 395 40 237 c 0
-7 218 m 0
 -7 409 173 580 360 580 c 0
 505 580 607 475 607 338 c 0
 607 149 427 -18 243 -18 c 0
 99 -18 -7 84 -7 218 c 0
EndSplineSet
EndChar

StartChar: ring
Encoding: 202 730 207
Width: 600
Flags: HMW
HStem: 481 59<281.5 306 281.5 313> 619 59<294.5 318>
VStem: 195 62<563 585 563 592> 341 63<577 598.5>
LayerCount: 2
Fore
SplineSet
257 572 m 0
 257 554 271 540 292 540 c 0
 320 540 341 564 341 590 c 0
 341 607 328 619 308 619 c 0
 281 619 257 598 257 572 c 0
195 561 m 0
 195 623 255 678 321 678 c 0
 370 678 404 645 404 602 c 0
 404 538 347 481 279 481 c 0
 229 481 195 516 195 561 c 0
EndSplineSet
EndChar

StartChar: s
Encoding: 115 115 208
Width: 600
Flags: HMW
HStem: -17 91<261 324.5 261 351> 179 78 278 181<472 534 274.5 436> 363 96<315.5 348.5>
VStem: 110 94<296.5 334.5 296.5 359.5> 430 98<98 142>
LayerCount: 2
Fore
SplineSet
30 -17 m 1
 68 176 l 1
 167 176 l 1
 154 115 l 1
 180 98 226 74 296 74 c 0
 353 74 430 80 430 116 c 0
 430 168 340 176 306 179 c 0
 233 185 110 212 110 308 c 0
 110 411 211 459 338 459 c 0
 385 459 429 440 466 425 c 1
 472 459 l 1
 570 459 l 1
 534 278 l 1
 436 278 l 1
 446 326 l 1
 414 348 370 363 327 363 c 0
 304 363 204 356 204 313 c 0
 204 280 252 268 365 257 c 0
 440 249 528 217 528 124 c 0
 528 15 420 -17 282 -17 c 0
 229 -17 178 1 136 22 c 1
 128 -17 l 1
 30 -17 l 1
EndSplineSet
EndChar

StartChar: scaron
Encoding: 336 353 209
Width: 600
Flags: HMW
HStem: -17 85<245.5 306 245.5 338> 263 172
VStem: 93 89<282 302> 398 91<108.5 146.5>
LayerCount: 2
Fore
SplineSet
17 -17 m 1
 53 169 l 1
 147 169 l 1
 137 110 l 1
 160 101 212 68 279 68 c 0
 333 68 398 92 398 125 c 0
 398 168 312 164 279 167 c 0
 210 173 93 205 93 302 c 0
 94 413 206 438 305 438 c 0
 350 438 396 419 431 406 c 1
 438 438 l 1
 531 438 l 1
 497 266 l 1
 403 266 l 1
 412 311 l 1
 382 328 336 352 295 352 c 0
 272 352 182 352 182 300 c 0
 182 264 242 258 343 250 c 0
 426 243 489 207 489 125 c 0
 489 37 410 -17 266 -17 c 0
 214 -17 159 5 118 21 c 1
 110 -17 l 1
 17 -17 l 1
301 485 m 1
 171 631 l 1
 238 667 l 1
 362 559 l 1
 531 667 l 1
 582 630 l 1
 397 485 l 1
 301 485 l 1
EndSplineSet
EndChar

StartChar: scedilla
Encoding: 337 351 210
Width: 600
Flags: HMW
HStem: -206 67<219 230.5 219 238.5> -17 195<30 166 68 128 68 289> 168 87 280 179<472 533 281 435>
VStem: 110 93<296.5 317> 223 66<-17 -7> 435 98<280 280>
LayerCount: 2
Fore
SplineSet
30 -17 m 1
 68 178 l 1
 166 178 l 1
 156 116 l 1
 180 107 234 72 305 72 c 0
 361 72 429 97 429 132 c 0
 429 177 339 173 305 176 c 0
 232 182 110 216 110 317 c 0
 111 434 229 459 333 459 c 0
 380 459 428 439 465 425 c 1
 472 459 l 1
 570 459 l 1
 533 280 l 1
 435 280 l 1
 444 327 l 1
 413 345 365 369 322 369 c 0
 298 369 203 370 203 315 c 0
 203 278 266 271 372 263 c 0
 459 256 525 218 525 132 c 0
 525 39 440 -18 289 -17 c 1
 284 -35 l 1
 320 -43 326 -75 326 -97 c 0
 326 -166 268 -206 209 -206 c 0
 191 -206 172 -204 145 -180 c 1
 186 -126 l 1
 201 -135 214 -139 224 -139 c 0
 237 -139 250 -129 250 -118 c 0
 250 -108 241 -102 233 -102 c 0
 218 -102 200 -105 191 -108 c 1
 223 -7 l 1
 191 0 161 13 136 23 c 1
 128 -17 l 1
 30 -17 l 1
EndSplineSet
EndChar

StartChar: section
Encoding: 167 167 211
Width: 600
Flags: HMW
HStem: -70 94<149 265> 486 93<278 328 283.5 328 283.5 449>
VStem: 65 103<112 112> 431 102<400 400>
LayerCount: 2
Fore
SplineSet
356 168 m 1
 373 170 415 177 415 203 c 0
 415 212 413 220 406 225 c 2
 250 346 l 1
 236 339 204 329 204 308 c 0
 204 296 208 284 217 277 c 2
 356 168 l 1
27 -70 m 1
 65 112 l 1
 168 112 l 1
 149 24 l 1
 326 24 l 2
 330 24 346 25 346 34 c 0
 346 42 344 45 327 59 c 2
 153 197 l 2
 114 228 96 263 96 295 c 0
 96 342 131 385 184 406 c 1
 166 425 155 447 155 475 c 0
 155 558 239 579 328 579 c 2
 572 580 l 1
 533 400 l 1
 431 400 l 1
 449 486 l 1
 281 486 l 2
 275 486 258 485 258 474 c 0
 258 470 261 467 261 467 c 1
 477 294 l 2
 500 276 514 252 515 225 c 0
 515 167 461 116 427 106 c 1
 442 89 448 71 448 42 c 0
 448 -42 356 -70 265 -70 c 2
 27 -70 l 1
EndSplineSet
EndChar

StartChar: semicolon
Encoding: 59 59 212
Width: 600
Flags: HMW
HStem: -111 21G<109 109 109 235> 249 176<365 398.5>
VStem: 273 217<327.5 348>
LayerCount: 2
Fore
SplineSet
109 -111 m 1
 269 169 l 1
 436 169 l 1
 235 -111 l 1
 109 -111 l 1
273 322 m 0
 273 374 330 425 400 425 c 0
 461 425 490 392 490 357 c 0
 490 298 432 249 365 249 c 0
 293 249 273 293 273 322 c 0
EndSplineSet
EndChar

StartChar: seven
Encoding: 55 55 213
Width: 600
Flags: HMW
HStem: 0 21G<105 105 105 211> 421 180<99 160 62 537>
VStem: 105 106<0 0>
LayerCount: 2
Fore
SplineSet
105 0 m 1
 414 508 l 1
 178 508 l 1
 160 421 l 1
 62 421 l 1
 99 601 l 1
 537 601 l 1
 523 533 l 1
 211 0 l 1
 105 0 l 1
EndSplineSet
EndChar

StartChar: six
Encoding: 54 54 214
Width: 600
Flags: HMW
HStem: -15 91<203 269 203 291.5> 300 93<276.5 315> 531 84<454 478 454 532> 594 20G<547 558>
VStem: 367 98<163.5 222.5>
LayerCount: 2
Fore
SplineSet
142 223 m 1
 128 161 166 76 240 76 c 0
 298 76 367 126 367 201 c 0
 367 244 351 300 279 300 c 0
 195 300 142 223 142 223 c 1
180 359 m 1
 226 381 250 393 303 393 c 0
 417 393 465 304 465 216 c 0
 465 100 349 -15 234 -15 c 0
 114 -15 42 76 42 183 c 0
 42 428 253 616 454 615 c 0
 502 615 536 614 558 614 c 1
 532 531 l 1
 373 531 259 492 180 359 c 1
EndSplineSet
EndChar

StartChar: slash
Encoding: 47 47 215
Width: 600
Flags: HMW
HStem: 606 20G<501 501>
VStem: 32 469
LayerCount: 2
Fore
SplineSet
32 -46 m 1
 501 626 l 1
 567 593 l 1
 96 -77 l 1
 32 -46 l 1
EndSplineSet
EndChar

StartChar: sterling
Encoding: 163 163 217
Width: 600
Flags: HMW
HStem: -28 21G<67 67> -12 21G<325 373> 266 93<61 141 61 151 42 141 249 249 249 462> 518 93<335 398>
VStem: 141 95<398.5 410 401.5 438 398.5 472> 151 98<231 266>
LayerCount: 2
Fore
SplineSet
28 36 m 1
 100 85 150 173 151 266 c 1
 42 266 l 1
 61 359 l 1
 141 359 l 1
 139 376 141 393 141 410 c 0
 141 534 247 611 389 611 c 0
 518 611 552 530 571 484 c 1
 480 447 l 1
 466 494 424 518 372 518 c 0
 298 518 236 470 236 406 c 0
 236 391 237 375 242 359 c 1
 482 359 l 1
 462 266 l 1
 249 266 l 1
 249 196 228 148 185 94 c 1
 198 104 212 108 228 108 c 0
 249 108 271 101 293 94 c 0
 314 87 335 81 352 81 c 0
 388 81 422 106 451 126 c 1
 495 63 l 1
 468 38 410 -12 336 -12 c 0
 314 -12 290 -4 266 3 c 0
 241 11 217 18 196 18 c 0
 147 18 81 -20 67 -28 c 1
 28 36 l 1
EndSplineSet
EndChar

StartChar: t
Encoding: 116 116 218
Width: 600
Flags: HMW
HStem: -15 92<285 333.5> 335 93<105 196 125 175 125 280 298 533> 542 20G<224 328 328 328>
LayerCount: 2
Fore
SplineSet
105 335 m 1
 125 428 l 1
 196 428 l 1
 224 562 l 1
 328 562 l 1
 298 428 l 1
 553 428 l 1
 533 335 l 1
 280 335 l 1
 241 163 l 2
 238 149 236 135 236 122 c 0
 236 97 257 77 313 77 c 0
 385 77 505 121 549 136 c 1
 546 44 l 1
 467 17 376 -15 291 -15 c 0
 223 -15 129 1 129 99 c 0
 129 112 131 125 134 141 c 2
 175 335 l 1
 105 335 l 1
EndSplineSet
EndChar

StartChar: thorn
Encoding: 338 254 219
Width: 600
Flags: HMW
HStem: -142 89<-6 74 168 297 -26 74> 21 89<331.5 393.5 331.5 415.5> 384 90 537 89<135 198 116 312>
VStem: 74 94<-53 -53> 529 98<224 303>
LayerCount: 2
Fore
SplineSet
228 218 m 0
 229 137 312 110 351 110 c 0
 436 110 529 178 529 270 c 0
 529 336 475 372 408 372 c 0
 352 372 228 345 228 218 c 0
-6 -53 m 1
 74 -53 l 1
 198 537 l 1
 116 537 l 1
 135 626 l 1
 312 626 l 1
 269 424 l 1
 316 455 373 462 427 462 c 0
 518 462 627 410 627 292 c 0
 627 148 492 21 339 21 c 0
 259 21 215 64 198 79 c 1
 168 -53 l 1
 316 -53 l 1
 297 -142 l 1
 -26 -142 l 1
 -6 -53 l 1
EndSplineSet
EndChar

StartChar: three
Encoding: 51 51 220
Width: 600
Flags: HMW
HStem: -15 93<247 308.5 247 319> 229 94<269 269 269 291> 522 94<344 382>
VStem: 424 100<163 230.5> 448 101<440.5 485.5>
LayerCount: 2
Fore
SplineSet
50 40 m 1
 104 120 l 1
 191 88 221 78 273 78 c 0
 344 78 424 125 424 201 c 0
 424 260 332 229 250 229 c 1
 269 323 l 1
 328 322 448 366 448 464 c 0
 448 507 400 522 364 522 c 0
 321 522 283 509 203 470 c 1
 170 543 l 1
 238 581 306 616 382 616 c 0
 478 616 549 562 549 477 c 0
 549 404 494 343 455 323 c 1
 492 293 524 265 524 201 c 0
 524 44 373 -15 265 -15 c 0
 166 -15 97 22 50 40 c 1
EndSplineSet
EndChar

StartChar: threequarters
Encoding: 339 190 221
Width: 600
Flags: HMW
HStem: -60 21G<14 14> -45 57<327 384 451 481 316 384> 57 63<350 393 350 459 472 501> 289 67<81 118 81 122> 447 64<63 135 63 135> 447 195<63 181 63 181> 556 20G<130 151.5> 641 20G<583 583>
LayerCount: 2
Fore
SplineSet
-34 323 m 1
 6 386 l 1
 35 371 62 356 100 356 c 0
 136 356 163 381 163 411 c 0
 163 430 152 447 119 447 c 2
 63 447 l 1
 76 512 l 1
 123 511 l 2
 147 511 173 523 173 552 c 0
 173 571 158 576 145 576 c 0
 115 576 81 555 53 539 c 1
 27 597 l 1
 66 622 108 642 152 642 c 0
 210 642 242 609 242 562 c 0
 242 532 221 496 205 486 c 1
 223 469 232 445 231 420 c 0
 231 349 164 289 80 289 c 0
 46 289 15 297 -34 323 c 1
-45 -6 m 1
 583 661 l 1
 645 612 l 1
 14 -60 l 1
 -45 -6 l 1
350 120 m 1
 405 120 l 1
 419 199 l 1
 350 120 l 1
260 57 m 1
 269 104 l 1
 442 298 l 1
 507 298 l 1
 472 120 l 1
 513 120 l 1
 501 57 l 1
 459 57 l 1
 451 12 l 1
 492 12 l 1
 481 -45 l 1
 316 -45 l 1
 327 12 l 1
 384 12 l 1
 393 57 l 1
 260 57 l 1
EndSplineSet
EndChar

StartChar: threesuperior
Encoding: 340 179 222
Width: 600
Flags: HMW
HStem: 222 75<292 294 294 314.5 292 316.5> 398 73<265 316 265 316 250 316> 596 20G<330 390.5>
VStem: 369 82<341.5 364 325.5 369.5>
LayerCount: 2
Fore
SplineSet
134 260 m 1
 181 330 l 1
 215 314 249 297 292 297 c 2
 294 297 l 2
 335 297 369 324 369 359 c 0
 369 380 355 398 316 398 c 2
 250 398 l 1
 265 471 l 1
 316 471 l 2
 348 471 382 483 382 517 c 0
 381 535 362 542 348 542 c 0
 311 542 271 519 237 501 c 1
 206 565 l 1
 255 593 304 616 356 616 c 0
 425 616 466 579 466 528 c 0
 466 493 440 453 420 441 c 1
 443 422 453 394 451 364 c 0
 451 287 363 222 270 222 c 0
 229 222 192 232 134 260 c 1
EndSplineSet
EndChar

StartChar: tilde
Encoding: 196 732 223
Width: 600
Flags: HMW
HStem: 496 80<368.5 392 368.5 407.5>
VStem: 79 442<517 614>
LayerCount: 2
Fore
SplineSet
79 517 m 1
 104 559 148 634 241 634 c 0
 269 634 295 616 320 600 c 0
 340 587 359 576 378 576 c 0
 406 576 418 596 444 636 c 1
 521 614 l 1
 504 580 456 496 359 496 c 0
 334 496 311 512 290 527 c 0
 269 543 249 557 228 557 c 0
 193 557 174 515 156 493 c 1
 79 517 l 1
EndSplineSet
EndChar

StartChar: trademark
Encoding: 341 8482 224
Width: 600
Flags: HMW
HStem: 513 49<15 92 5 242 143 143 143 231>
VStem: 34 52<230 230> 214 51<230 230> 440 64 475 51<230 230>
LayerCount: 2
Fore
SplineSet
34 230 m 1
 92 513 l 1
 5 513 l 1
 15 562 l 1
 242 562 l 1
 231 513 l 1
 143 513 l 1
 86 230 l 1
 34 230 l 1
214 230 m 1
 283 562 l 1
 376 562 l 1
 385 293 l 1
 498 562 l 1
 594 562 l 1
 526 230 l 1
 475 230 l 1
 535 529 l 1
 405 230 l 1
 339 230 l 1
 326 530 l 1
 265 230 l 1
 214 230 l 1
EndSplineSet
EndChar

StartChar: two
Encoding: 50 50 225
Width: 600
Flags: HMW
HStem: 74 20G<211 397 397 397> 523 93<363 393>
VStem: 138 99<423 423> 467 99<415 469>
LayerCount: 2
Fore
SplineSet
34 0 m 1
 49 78 l 1
 366 302 l 2
 436 354 467 387 467 443 c 0
 467 495 420 523 366 523 c 0
 360 523 253 525 237 423 c 1
 138 423 l 1
 156 511 l 1
 235 596 305 616 387 616 c 0
 508 616 566 550 566 470 c 0
 566 348 473 286 365 207 c 2
 211 94 l 1
 397 94 l 1
 411 161 l 1
 505 161 l 1
 471 0 l 1
 34 0 l 1
EndSplineSet
EndChar

StartChar: twosuperior
Encoding: 342 178 226
Width: 600
Flags: HMW
HStem: 220 75<125 138 138 138 269 417> 539 77<329 351>
VStem: 188 83<470 470> 391 83<492 519>
LayerCount: 2
Fore
SplineSet
125 220 m 1
 138 295 l 1
 354 442 l 2
 380 460 391 479 391 505 c 0
 391 533 362 539 340 539 c 0
 287 539 278 498 274 481 c 2
 271 470 l 1
 188 470 l 1
 204 550 l 1
 248 591 302 616 356 616 c 0
 452 616 474 553 474 512 c 0
 474 461 432 414 397 390 c 2
 269 295 l 1
 433 295 l 1
 417 220 l 1
 125 220 l 1
EndSplineSet
EndChar

StartChar: u
Encoding: 117 117 227
Width: 600
Flags: HMW
HStem: -15 93<219.5 253.5> -3 95<480 541> 344 95<39 233 58 120 375 435>
LayerCount: 2
Fore
SplineSet
39 344 m 1
 58 439 l 1
 233 439 l 1
 177 157 l 2
 176 149 175 138 175 126 c 0
 175 103 192 78 247 78 c 0
 309 78 357 118 397 150 c 1
 435 344 l 1
 356 344 l 1
 375 439 l 1
 549 439 l 1
 480 92 l 1
 560 92 l 1
 541 -3 l 1
 366 -3 l 1
 376 39 l 1
 332 13 279 -15 228 -15 c 0
 145 -15 76 13 76 97 c 0
 76 115 78 136 84 159 c 2
 120 344 l 1
 39 344 l 1
EndSplineSet
EndChar

StartChar: uacute
Encoding: 343 250 228
Width: 600
Flags: HMW
HStem: -15 89<219.5 253> -3 90<480 541> 351 91<39 233 58 120 375 435> 641 20G<548 548>
LayerCount: 2
Fore
SplineSet
39 351 m 1
 58 442 l 1
 233 442 l 1
 177 150 l 2
 176 142 175 131 175 119 c 0
 175 97 192 74 247 74 c 0
 309 74 357 113 397 144 c 1
 435 351 l 1
 356 351 l 1
 375 442 l 1
 549 442 l 1
 480 87 l 1
 560 87 l 1
 541 -3 l 1
 366 -3 l 1
 376 38 l 1
 332 12 279 -15 227 -15 c 0
 145 -15 76 28 76 100 c 0
 76 116 83 133 84 152 c 2
 120 351 l 1
 39 351 l 1
228 481 m 1
 218 542 l 1
 548 661 l 1
 569 559 l 1
 228 481 l 1
EndSplineSet
EndChar

StartChar: ucircumflex
Encoding: 344 251 229
Width: 600
Flags: HMW
HStem: -15 89<219.5 253> -3 90<480 541> 351 91<39 233 58 120 375 435> 637 20G<331 429 429 429>
LayerCount: 2
Fore
SplineSet
39 351 m 1
 58 442 l 1
 233 442 l 1
 177 150 l 2
 176 142 175 131 175 119 c 0
 175 97 192 74 247 74 c 0
 309 74 357 113 397 144 c 1
 435 351 l 1
 356 351 l 1
 375 442 l 1
 549 442 l 1
 480 87 l 1
 560 87 l 1
 541 -3 l 1
 366 -3 l 1
 376 38 l 1
 332 12 279 -15 227 -15 c 0
 145 -15 76 28 76 100 c 0
 76 116 78 133 84 152 c 2
 120 351 l 1
 39 351 l 1
190 476 m 1
 136 514 l 1
 331 657 l 1
 429 657 l 1
 559 513 l 1
 494 476 l 1
 366 584 l 1
 190 476 l 1
EndSplineSet
EndChar

StartChar: udieresis
Encoding: 345 252 230
Width: 600
Flags: HMW
HStem: -15 89<219.5 253> -3 90<480 541> 351 91<39 233 58 120 375 435> 501 124<197 333 222 308 222 378 403 489>
LayerCount: 2
Fore
SplineSet
39 351 m 1
 58 442 l 1
 233 442 l 1
 177 150 l 2
 176 142 175 131 175 119 c 0
 175 97 192 74 247 74 c 0
 309 74 357 113 397 144 c 1
 435 351 l 1
 356 351 l 1
 375 442 l 1
 549 442 l 1
 480 87 l 1
 560 87 l 1
 541 -3 l 1
 366 -3 l 1
 376 38 l 1
 332 12 279 -15 227 -15 c 0
 145 -15 76 28 76 100 c 0
 76 116 78 133 84 152 c 2
 120 351 l 1
 39 351 l 1
197 501 m 1
 222 625 l 1
 333 625 l 1
 308 501 l 1
 197 501 l 1
378 501 m 1
 403 625 l 1
 513 625 l 1
 489 501 l 1
 378 501 l 1
EndSplineSet
EndChar

StartChar: ugrave
Encoding: 346 249 231
Width: 600
Flags: HMW
HStem: -15 89<219.5 253> -3 90<480 541> 351 91<39 233 58 120 375 435> 641 20G<264 264>
LayerCount: 2
Fore
SplineSet
39 351 m 1
 58 442 l 1
 233 442 l 1
 177 150 l 2
 176 142 175 131 175 119 c 0
 175 97 192 74 247 74 c 0
 309 74 357 113 397 144 c 1
 435 351 l 1
 356 351 l 1
 375 442 l 1
 549 442 l 1
 480 87 l 1
 560 87 l 1
 541 -3 l 1
 366 -3 l 1
 376 38 l 1
 332 12 279 -15 227 -15 c 0
 145 -15 76 28 76 100 c 0
 76 116 78 133 84 152 c 2
 120 351 l 1
 39 351 l 1
201 562 m 1
 264 661 l 1
 535 541 l 1
 500 482 l 1
 201 562 l 1
EndSplineSet
EndChar

StartChar: underscore
Encoding: 95 95 232
Width: 600
Flags: HMW
HStem: -125 50<5 596 -5 606>
LayerCount: 2
Fore
SplineSet
5 -75 m 1
 606 -75 l 1
 596 -125 l 1
 -5 -125 l 1
 5 -75 l 1
EndSplineSet
EndChar

StartChar: v
Encoding: 118 118 233
Width: 600
Flags: HMW
HStem: 0 21G<185 185 185 265> 345 94<7 74 -12 267 180 180 180 247 7 351 369 411 508 508 508 593>
VStem: 185 80<0 0>
LayerCount: 2
Fore
SplineSet
185 0 m 1
 74 345 l 1
 -12 345 l 1
 7 439 l 1
 267 439 l 1
 247 345 l 1
 180 345 l 1
 251 107 l 1
 411 345 l 1
 351 345 l 1
 369 439 l 1
 612 439 l 1
 593 345 l 1
 508 345 l 1
 265 0 l 1
 185 0 l 1
EndSplineSet
EndChar

StartChar: w
Encoding: 119 119 234
Width: 600
Flags: HMW
HStem: 0 21G<65 144 65 65 306 306 306 382> 345 94<-10 20 -29 208 118 118 118 188 418 470 561 561 561 610>
LayerCount: 2
Fore
SplineSet
144 0 m 1
 65 0 l 1
 20 345 l 1
 -29 345 l 1
 -10 439 l 1
 208 439 l 1
 188 345 l 1
 118 345 l 1
 143 160 l 1
 263 369 l 1
 330 369 l 1
 374 160 l 1
 470 345 l 1
 399 345 l 1
 418 439 l 1
 629 439 l 1
 610 345 l 1
 561 345 l 1
 382 0 l 1
 306 0 l 1
 261 211 l 1
 144 0 l 1
EndSplineSet
EndChar

StartChar: x
Encoding: 120 120 235
Width: 600
Flags: HMW
HStem: 0 94<-32 75 -13 75 204 215 341 369 503 569> 345 94<73 141 54 314 274 274 274 295 73 384 73 402 528 528 528 613>
VStem: 75 129<94 94> 369 134<94 94>
LayerCount: 2
Fore
SplineSet
-32 0 m 1
 -13 94 l 1
 75 94 l 1
 241 217 l 1
 141 345 l 1
 54 345 l 1
 73 439 l 1
 314 439 l 1
 295 345 l 1
 274 345 l 1
 321 278 l 1
 402 345 l 1
 384 345 l 1
 403 439 l 1
 632 439 l 1
 613 345 l 1
 528 345 l 1
 372 219 l 1
 503 94 l 1
 588 94 l 1
 569 0 l 1
 321 0 l 1
 341 94 l 1
 369 94 l 1
 296 161 l 1
 204 94 l 1
 235 94 l 1
 215 0 l 1
 -32 0 l 1
EndSplineSet
EndChar

StartChar: y
Encoding: 121 121 236
Width: 600
Flags: HMW
HStem: -142 88<-36 82 194 243 -57 82> 351 88<30 88 10 269 199 199 199 249 422 450 559 559 559 637>
VStem: 88 111<351 351> 450 109<351 351>
LayerCount: 2
Fore
SplineSet
-36 -54 m 1
 82 -54 l 1
 207 83 l 1
 88 351 l 1
 10 351 l 1
 30 439 l 1
 269 439 l 1
 249 351 l 1
 199 351 l 1
 282 166 l 1
 450 351 l 1
 402 351 l 1
 422 439 l 1
 657 439 l 1
 637 351 l 1
 559 351 l 1
 194 -54 l 1
 264 -54 l 1
 243 -142 l 1
 -57 -142 l 1
 -36 -54 l 1
EndSplineSet
EndChar

StartChar: yacute
Encoding: 347 253 237
Width: 600
Flags: HMW
HStem: -142 87<-36 81 194 243 -57 81> 346 88
VStem: 87 112<347 347> 449 110<346 346>
LayerCount: 2
Fore
SplineSet
-36 -55 m 1
 81 -55 l 1
 203 82 l 1
 87 347 l 1
 9 347 l 1
 29 434 l 1
 269 434 l 1
 249 347 l 1
 199 347 l 1
 277 164 l 1
 449 346 l 1
 401 346 l 1
 421 433 l 1
 657 433 l 1
 637 346 l 1
 559 346 l 1
 194 -55 l 1
 263 -55 l 1
 243 -142 l 1
 -57 -142 l 1
 -36 -55 l 1
248 491 m 1
 237 547 l 1
 571 661 l 1
 592 564 l 1
 248 491 l 1
EndSplineSet
EndChar

StartChar: ydieresis
Encoding: 348 255 238
Width: 600
Flags: HMW
HStem: -142 87<-36 81 194 243 -57 81> 347 87<29 87 9 269 199 199 199 249 422 450 560 560 560 637> 507 118<211 353 237 327 237 400 426 517>
VStem: 87 112<347 347> 450 110<347 347>
LayerCount: 2
Fore
SplineSet
-36 -55 m 1
 81 -55 l 1
 203 81 l 1
 87 347 l 1
 9 347 l 1
 29 434 l 1
 269 434 l 1
 249 347 l 1
 199 347 l 1
 277 164 l 1
 450 347 l 1
 402 347 l 1
 422 434 l 1
 657 434 l 1
 637 347 l 1
 560 347 l 1
 194 -55 l 1
 263 -55 l 1
 243 -142 l 1
 -57 -142 l 1
 -36 -55 l 1
211 507 m 1
 237 625 l 1
 353 625 l 1
 327 507 l 1
 211 507 l 1
400 507 m 1
 426 625 l 1
 542 625 l 1
 517 507 l 1
 400 507 l 1
EndSplineSet
EndChar

StartChar: yen
Encoding: 165 165 239
Width: 600
Flags: HMW
HStem: 0 87<24 157 43 157 252 351> 138 50<30 169 21 178 273 412> 244 49<55 193 45 201 306 436> 475 87<14 77 -5 258 193 193 193 239 367 392 509 509 509 587>
LayerCount: 2
Fore
SplineSet
24 0 m 1
 43 87 l 1
 157 87 l 1
 169 138 l 1
 21 138 l 1
 30 188 l 1
 178 188 l 1
 193 244 l 1
 45 244 l 1
 55 293 l 1
 201 293 l 1
 77 475 l 1
 -5 475 l 1
 14 562 l 1
 258 562 l 1
 239 475 l 1
 193 475 l 1
 267 359 l 1
 392 475 l 1
 347 475 l 1
 367 562 l 1
 606 562 l 1
 587 475 l 1
 509 475 l 1
 306 293 l 1
 448 293 l 1
 436 244 l 1
 288 244 l 1
 273 188 l 1
 422 188 l 1
 412 138 l 1
 264 138 l 1
 252 87 l 1
 370 87 l 1
 351 0 l 1
 24 0 l 1
EndSplineSet
EndChar

StartChar: z
Encoding: 122 122 240
Width: 600
Flags: HMW
HStem: 0 94<205 398 205 476> 346 93<218 393 218 218>
VStem: 103 98<261 261> 417 98<188 188>
LayerCount: 2
Fore
SplineSet
34 0 m 1
 49 72 l 1
 393 346 l 1
 218 346 l 1
 201 261 l 1
 103 261 l 1
 139 439 l 1
 566 439 l 1
 552 371 l 1
 205 94 l 1
 398 94 l 1
 417 188 l 1
 515 188 l 1
 476 0 l 1
 34 0 l 1
EndSplineSet
EndChar

StartChar: zcaron
Encoding: 349 382 241
Width: 600
Flags: HMW
HStem: 0 91<191 372 191 449> 336 90<201 367 201 201> 486 74<293 353 353 353 353 390>
VStem: 93 95<273 273> 389 94<168 168>
LayerCount: 2
Fore
SplineSet
24 0 m 1
 38 70 l 1
 367 336 l 1
 201 336 l 1
 188 273 l 1
 93 273 l 1
 125 426 l 1
 534 426 l 1
 521 361 l 1
 191 91 l 1
 372 91 l 1
 389 168 l 1
 483 168 l 1
 449 0 l 1
 24 0 l 1
293 486 m 1
 161 631 l 1
 230 667 l 1
 353 560 l 1
 524 667 l 1
 575 630 l 1
 390 486 l 1
 293 486 l 1
EndSplineSet
EndChar

StartChar: zero
Encoding: 48 48 242
Width: 600
Flags: HMW
HStem: -15 94<219 320 219 363.5> 522 94<292 394.5>
VStem: 72 97<174 243> 432 96<380.5 405.5>
LayerCount: 2
Fore
SplineSet
169 206 m 0
 169 142 179 79 259 79 c 0
 381 79 432 302 432 379 c 0
 432 432 444 522 345 522 c 0
 239 522 169 330 169 206 c 0
72 188 m 0
 72 298 122 616 366 616 c 0
 486 616 528 531 528 441 c 0
 528 320 490 -15 237 -15 c 0
 102 -15 72 92 72 188 c 0
EndSplineSet
EndChar
